%TF.GenerationSoftware,KiCad,Pcbnew,8.0.5*%
%TF.CreationDate,2025-08-25T20:07:28+05:30*%
%TF.ProjectId,ESP32_Development_Board,45535033-325f-4446-9576-656c6f706d65,rev?*%
%TF.SameCoordinates,Original*%
%TF.FileFunction,Copper,L3,Inr*%
%TF.FilePolarity,Positive*%
%FSLAX46Y46*%
G04 Gerber Fmt 4.6, Leading zero omitted, Abs format (unit mm)*
G04 Created by KiCad (PCBNEW 8.0.5) date 2025-08-25 20:07:28*
%MOMM*%
%LPD*%
G01*
G04 APERTURE LIST*
%TA.AperFunction,ComponentPad*%
%ADD10R,1.700000X1.700000*%
%TD*%
%TA.AperFunction,ComponentPad*%
%ADD11O,1.700000X1.700000*%
%TD*%
%TA.AperFunction,ComponentPad*%
%ADD12O,1.900000X1.200000*%
%TD*%
%TA.AperFunction,ComponentPad*%
%ADD13C,1.450000*%
%TD*%
%TA.AperFunction,ComponentPad*%
%ADD14O,1.000000X1.000000*%
%TD*%
%TA.AperFunction,ComponentPad*%
%ADD15R,1.000000X1.000000*%
%TD*%
%TA.AperFunction,ComponentPad*%
%ADD16C,0.600000*%
%TD*%
%TA.AperFunction,ViaPad*%
%ADD17C,0.600000*%
%TD*%
%TA.AperFunction,Conductor*%
%ADD18C,0.200000*%
%TD*%
G04 APERTURE END LIST*
D10*
%TO.N,GND*%
%TO.C,J1*%
X112725000Y-88325000D03*
D11*
%TO.N,+3.3V*%
X115265000Y-88325000D03*
%TO.N,/EN*%
X117805000Y-88325000D03*
%TO.N,/I36*%
X120345000Y-88325000D03*
%TO.N,/I39*%
X122885000Y-88325000D03*
%TO.N,/I34*%
X125425000Y-88325000D03*
%TO.N,/I35*%
X127965000Y-88325000D03*
%TO.N,/IO32*%
X130505000Y-88325000D03*
%TO.N,/IO33*%
X133045000Y-88325000D03*
%TO.N,/IO25*%
X135585000Y-88325000D03*
%TO.N,/IO26*%
X138125000Y-88325000D03*
%TO.N,/IO27*%
X140665000Y-88325000D03*
%TO.N,/IO14*%
X143205000Y-88325000D03*
%TO.N,/IO12*%
X145745000Y-88325000D03*
%TO.N,GND*%
X148285000Y-88325000D03*
%TO.N,/IO13*%
X150825000Y-88325000D03*
%TO.N,+5VD*%
X153365000Y-88325000D03*
%TD*%
D10*
%TO.N,+3.3V*%
%TO.C,J2*%
X112725000Y-104200000D03*
D11*
%TO.N,GND*%
X115265000Y-104200000D03*
%TO.N,/IO23*%
X117805000Y-104200000D03*
%TO.N,/IO22*%
X120345000Y-104200000D03*
%TO.N,/TXD0*%
X122885000Y-104200000D03*
%TO.N,/RXD0*%
X125425000Y-104200000D03*
%TO.N,/IO21*%
X127965000Y-104200000D03*
%TO.N,GND*%
X130505000Y-104200000D03*
%TO.N,/IO19*%
X133045000Y-104200000D03*
%TO.N,/IO18*%
X135585000Y-104200000D03*
%TO.N,/IO5*%
X138125000Y-104200000D03*
%TO.N,/IO17*%
X140665000Y-104200000D03*
%TO.N,/IO16*%
X143205000Y-104200000D03*
%TO.N,/IO4*%
X145745000Y-104200000D03*
%TO.N,/IO0_CON*%
X148285000Y-104200000D03*
%TO.N,/IO2*%
X150825000Y-104200000D03*
%TO.N,/IO15*%
X153365000Y-104200000D03*
%TD*%
D12*
%TO.N,GND*%
%TO.C,J4*%
X110500000Y-92762500D03*
D13*
X113200000Y-93762500D03*
X113200000Y-98762500D03*
D12*
X110500000Y-99762500D03*
%TD*%
D14*
%TO.N,+5VA*%
%TO.C,J3*%
X151485000Y-91975000D03*
%TO.N,+5V*%
X152755000Y-91975000D03*
D15*
%TO.N,+5VD*%
X154025000Y-91975000D03*
%TD*%
%TO.N,+3.3V*%
%TO.C,J5*%
X120940000Y-99820000D03*
D14*
%TO.N,Net-(J5-Pin_2)*%
X120940000Y-101090000D03*
%TD*%
D16*
%TO.N,GND*%
%TO.C,U1*%
X170025000Y-93362500D03*
X168625000Y-93362500D03*
X170725000Y-94062500D03*
X169325000Y-94062500D03*
X167925000Y-94062500D03*
X170025000Y-94762500D03*
X168625000Y-94762500D03*
X170725000Y-95462500D03*
X169325000Y-95462500D03*
X167925000Y-95462500D03*
X170025000Y-96162500D03*
X168625000Y-96162500D03*
%TD*%
D17*
%TO.N,Net-(Q1-B)*%
X131660000Y-100480000D03*
X142070000Y-102000000D03*
%TO.N,/EN*%
X130890000Y-99550000D03*
%TO.N,/IO0_BTN*%
X127510000Y-93810000D03*
%TO.N,+3.3V*%
X121340000Y-90550000D03*
%TO.N,+5VA*%
X117380000Y-91880000D03*
%TO.N,Net-(Q2-B)*%
X144980000Y-97540000D03*
X137050000Y-99800000D03*
%TO.N,/IO18*%
X133702500Y-97862500D03*
%TO.N,/IO13*%
X157770000Y-90410000D03*
%TO.N,/I39*%
X145720000Y-95940000D03*
X156550000Y-97600000D03*
%TO.N,/IO0_BTN*%
X147030000Y-102470000D03*
X156382265Y-104630795D03*
%TO.N,Net-(U1-IO0)*%
X156430000Y-103830000D03*
X155870000Y-102230000D03*
%TO.N,/IO4*%
X161805000Y-103155000D03*
%TO.N,/IO16*%
X163075000Y-103155000D03*
%TO.N,/IO17*%
X164345000Y-103155000D03*
%TO.N,/IO5*%
X165615000Y-103155000D03*
%TO.N,/IO18*%
X166885000Y-103155000D03*
%TO.N,/IO19*%
X168155000Y-103155000D03*
%TO.N,/IO21*%
X170695000Y-103155000D03*
%TO.N,/RXD0*%
X171965000Y-103155000D03*
%TO.N,/TXD0*%
X173235000Y-103155000D03*
%TO.N,/IO22*%
X174505000Y-103155000D03*
%TO.N,/IO23*%
X175775000Y-103155000D03*
%TO.N,GND*%
X177045000Y-103155000D03*
%TO.N,+3.3V*%
X175775000Y-89255000D03*
%TO.N,GND*%
X177045000Y-89255000D03*
%TO.N,/EN*%
X174505000Y-89255000D03*
%TO.N,/I36*%
X173235000Y-89255000D03*
%TO.N,/I39*%
X171965000Y-89255000D03*
%TO.N,/I34*%
X170695000Y-89255000D03*
%TO.N,/I35*%
X169425000Y-89255000D03*
%TO.N,/IO32*%
X168155000Y-89255000D03*
%TO.N,/IO33*%
X166885000Y-89255000D03*
%TO.N,/IO25*%
X165615000Y-89255000D03*
%TO.N,/IO26*%
X164345000Y-89255000D03*
%TO.N,/IO27*%
X163075000Y-89255000D03*
%TO.N,/IO14*%
X161805000Y-89255000D03*
%TO.N,/IO12*%
X160535000Y-89255000D03*
%TO.N,GND*%
X122260000Y-93690000D03*
X120840000Y-96430000D03*
X118830000Y-98350000D03*
X116900000Y-99660000D03*
X157780000Y-89100000D03*
%TO.N,+3.3V*%
X154690000Y-97620000D03*
%TO.N,/USB_DP*%
X143892500Y-96762500D03*
%TO.N,/USB_DN*%
X143892500Y-95587500D03*
%TO.N,GND*%
X143250000Y-97790000D03*
%TO.N,+5VA*%
X142725000Y-90920000D03*
%TO.N,GND*%
X141650000Y-90920000D03*
%TO.N,+3.3V*%
X140575000Y-90920000D03*
%TO.N,GND*%
X139500000Y-90920000D03*
%TO.N,+3.3V*%
X133050000Y-96700000D03*
%TO.N,GND*%
X145520000Y-93780000D03*
%TO.N,+3.3V*%
X145520000Y-94740000D03*
%TO.N,GND*%
X155500000Y-97610000D03*
X150905000Y-94175000D03*
X157100000Y-96000000D03*
X156570000Y-88280000D03*
X115600000Y-101750000D03*
X156320000Y-89680000D03*
X116900000Y-97925000D03*
X110175000Y-90725000D03*
X116900000Y-93950000D03*
X113475000Y-91325000D03*
X116225000Y-90825000D03*
%TO.N,+3.3V*%
X153820000Y-96440000D03*
X112275000Y-101750000D03*
X147665000Y-97375000D03*
X157775000Y-93450000D03*
%TO.N,/USB_DN*%
X116900000Y-95350000D03*
%TO.N,/USB_DP*%
X116900000Y-96525000D03*
%TO.N,+3.3V*%
X157775000Y-92775000D03*
%TD*%
D18*
%TO.N,/EN*%
X130890000Y-99550000D02*
X126120000Y-99550000D01*
X119010000Y-91360000D02*
X119010000Y-90810000D01*
X126120000Y-99550000D02*
X120570000Y-94000000D01*
X120570000Y-94000000D02*
X120570000Y-92920000D01*
X120570000Y-92920000D02*
X119010000Y-91360000D01*
X119010000Y-90810000D02*
X117805000Y-89605000D01*
X117805000Y-89605000D02*
X117805000Y-88325000D01*
%TO.N,/IO0_BTN*%
X127510000Y-93810000D02*
X133340000Y-93810000D01*
X139850000Y-97480000D02*
X143820000Y-101450000D01*
X133340000Y-93810000D02*
X137010000Y-97480000D01*
X137010000Y-97480000D02*
X139850000Y-97480000D01*
X143820000Y-101450000D02*
X146010000Y-101450000D01*
X146010000Y-101450000D02*
X147030000Y-102470000D01*
%TO.N,/IO18*%
X133702500Y-97862500D02*
X133702500Y-99732500D01*
X133702500Y-99732500D02*
X135585000Y-101615000D01*
X135585000Y-101615000D02*
X135585000Y-104200000D01*
%TO.N,Net-(Q1-B)*%
X131660000Y-100480000D02*
X131660000Y-99890000D01*
X132060000Y-94210000D02*
X133174314Y-94210000D01*
X132000000Y-99550000D02*
X132000000Y-97720000D01*
X139684314Y-97880000D02*
X142070000Y-100265686D01*
X131660000Y-99890000D02*
X132000000Y-99550000D01*
X133174314Y-94210000D02*
X136844314Y-97880000D01*
X132000000Y-97720000D02*
X131220000Y-96940000D01*
X131220000Y-96940000D02*
X131220000Y-95050000D01*
X131220000Y-95050000D02*
X132060000Y-94210000D01*
X136844314Y-97880000D02*
X139684314Y-97880000D01*
X142070000Y-100265686D02*
X142070000Y-102000000D01*
%TD*%
%TA.AperFunction,Conductor*%
%TO.N,GND*%
G36*
X177542539Y-86620185D02*
G01*
X177588294Y-86672989D01*
X177599500Y-86724500D01*
X177599500Y-105800500D01*
X177579815Y-105867539D01*
X177527011Y-105913294D01*
X177475500Y-105924500D01*
X108724500Y-105924500D01*
X108657461Y-105904815D01*
X108611706Y-105852011D01*
X108600500Y-105800500D01*
X108600500Y-103302135D01*
X111374500Y-103302135D01*
X111374500Y-105097870D01*
X111374501Y-105097876D01*
X111380908Y-105157483D01*
X111431202Y-105292328D01*
X111431206Y-105292335D01*
X111517452Y-105407544D01*
X111517455Y-105407547D01*
X111632664Y-105493793D01*
X111632671Y-105493797D01*
X111767517Y-105544091D01*
X111767516Y-105544091D01*
X111774444Y-105544835D01*
X111827127Y-105550500D01*
X113622872Y-105550499D01*
X113682483Y-105544091D01*
X113817331Y-105493796D01*
X113932546Y-105407546D01*
X114018796Y-105292331D01*
X114068002Y-105160401D01*
X114109872Y-105104468D01*
X114175337Y-105080050D01*
X114243610Y-105094901D01*
X114271865Y-105116053D01*
X114393917Y-105238105D01*
X114587421Y-105373600D01*
X114801507Y-105473429D01*
X114801516Y-105473433D01*
X115015000Y-105530634D01*
X115015000Y-104633012D01*
X115072007Y-104665925D01*
X115199174Y-104700000D01*
X115330826Y-104700000D01*
X115457993Y-104665925D01*
X115515000Y-104633012D01*
X115515000Y-105530633D01*
X115728483Y-105473433D01*
X115728492Y-105473429D01*
X115942578Y-105373600D01*
X116136082Y-105238105D01*
X116303105Y-105071082D01*
X116433119Y-104885405D01*
X116487696Y-104841781D01*
X116557195Y-104834588D01*
X116619549Y-104866110D01*
X116636269Y-104885405D01*
X116766505Y-105071401D01*
X116933599Y-105238495D01*
X117030384Y-105306265D01*
X117127165Y-105374032D01*
X117127167Y-105374033D01*
X117127170Y-105374035D01*
X117341337Y-105473903D01*
X117569592Y-105535063D01*
X117746034Y-105550500D01*
X117804999Y-105555659D01*
X117805000Y-105555659D01*
X117805001Y-105555659D01*
X117863966Y-105550500D01*
X118040408Y-105535063D01*
X118268663Y-105473903D01*
X118482830Y-105374035D01*
X118676401Y-105238495D01*
X118843495Y-105071401D01*
X118973425Y-104885842D01*
X119028002Y-104842217D01*
X119097500Y-104835023D01*
X119159855Y-104866546D01*
X119176575Y-104885842D01*
X119306500Y-105071395D01*
X119306505Y-105071401D01*
X119473599Y-105238495D01*
X119570384Y-105306265D01*
X119667165Y-105374032D01*
X119667167Y-105374033D01*
X119667170Y-105374035D01*
X119881337Y-105473903D01*
X120109592Y-105535063D01*
X120286034Y-105550500D01*
X120344999Y-105555659D01*
X120345000Y-105555659D01*
X120345001Y-105555659D01*
X120403966Y-105550500D01*
X120580408Y-105535063D01*
X120808663Y-105473903D01*
X121022830Y-105374035D01*
X121216401Y-105238495D01*
X121383495Y-105071401D01*
X121513425Y-104885842D01*
X121568002Y-104842217D01*
X121637500Y-104835023D01*
X121699855Y-104866546D01*
X121716575Y-104885842D01*
X121846500Y-105071395D01*
X121846505Y-105071401D01*
X122013599Y-105238495D01*
X122110384Y-105306265D01*
X122207165Y-105374032D01*
X122207167Y-105374033D01*
X122207170Y-105374035D01*
X122421337Y-105473903D01*
X122649592Y-105535063D01*
X122826034Y-105550500D01*
X122884999Y-105555659D01*
X122885000Y-105555659D01*
X122885001Y-105555659D01*
X122943966Y-105550500D01*
X123120408Y-105535063D01*
X123348663Y-105473903D01*
X123562830Y-105374035D01*
X123756401Y-105238495D01*
X123923495Y-105071401D01*
X124053425Y-104885842D01*
X124108002Y-104842217D01*
X124177500Y-104835023D01*
X124239855Y-104866546D01*
X124256575Y-104885842D01*
X124386500Y-105071395D01*
X124386505Y-105071401D01*
X124553599Y-105238495D01*
X124650384Y-105306265D01*
X124747165Y-105374032D01*
X124747167Y-105374033D01*
X124747170Y-105374035D01*
X124961337Y-105473903D01*
X125189592Y-105535063D01*
X125366034Y-105550500D01*
X125424999Y-105555659D01*
X125425000Y-105555659D01*
X125425001Y-105555659D01*
X125483966Y-105550500D01*
X125660408Y-105535063D01*
X125888663Y-105473903D01*
X126102830Y-105374035D01*
X126296401Y-105238495D01*
X126463495Y-105071401D01*
X126593425Y-104885842D01*
X126648002Y-104842217D01*
X126717500Y-104835023D01*
X126779855Y-104866546D01*
X126796575Y-104885842D01*
X126926500Y-105071395D01*
X126926505Y-105071401D01*
X127093599Y-105238495D01*
X127190384Y-105306265D01*
X127287165Y-105374032D01*
X127287167Y-105374033D01*
X127287170Y-105374035D01*
X127501337Y-105473903D01*
X127729592Y-105535063D01*
X127906034Y-105550500D01*
X127964999Y-105555659D01*
X127965000Y-105555659D01*
X127965001Y-105555659D01*
X128023966Y-105550500D01*
X128200408Y-105535063D01*
X128428663Y-105473903D01*
X128642830Y-105374035D01*
X128836401Y-105238495D01*
X129003495Y-105071401D01*
X129133730Y-104885405D01*
X129188307Y-104841781D01*
X129257805Y-104834587D01*
X129320160Y-104866110D01*
X129336879Y-104885405D01*
X129466890Y-105071078D01*
X129633917Y-105238105D01*
X129827421Y-105373600D01*
X130041507Y-105473429D01*
X130041516Y-105473433D01*
X130255000Y-105530634D01*
X130255000Y-104633012D01*
X130312007Y-104665925D01*
X130439174Y-104700000D01*
X130570826Y-104700000D01*
X130697993Y-104665925D01*
X130755000Y-104633012D01*
X130755000Y-105530633D01*
X130968483Y-105473433D01*
X130968492Y-105473429D01*
X131182578Y-105373600D01*
X131376082Y-105238105D01*
X131543105Y-105071082D01*
X131673119Y-104885405D01*
X131727696Y-104841781D01*
X131797195Y-104834588D01*
X131859549Y-104866110D01*
X131876269Y-104885405D01*
X132006505Y-105071401D01*
X132173599Y-105238495D01*
X132270384Y-105306265D01*
X132367165Y-105374032D01*
X132367167Y-105374033D01*
X132367170Y-105374035D01*
X132581337Y-105473903D01*
X132809592Y-105535063D01*
X132986034Y-105550500D01*
X133044999Y-105555659D01*
X133045000Y-105555659D01*
X133045001Y-105555659D01*
X133103966Y-105550500D01*
X133280408Y-105535063D01*
X133508663Y-105473903D01*
X133722830Y-105374035D01*
X133916401Y-105238495D01*
X134083495Y-105071401D01*
X134213425Y-104885842D01*
X134268002Y-104842217D01*
X134337500Y-104835023D01*
X134399855Y-104866546D01*
X134416575Y-104885842D01*
X134546500Y-105071395D01*
X134546505Y-105071401D01*
X134713599Y-105238495D01*
X134810384Y-105306265D01*
X134907165Y-105374032D01*
X134907167Y-105374033D01*
X134907170Y-105374035D01*
X135121337Y-105473903D01*
X135349592Y-105535063D01*
X135526034Y-105550500D01*
X135584999Y-105555659D01*
X135585000Y-105555659D01*
X135585001Y-105555659D01*
X135643966Y-105550500D01*
X135820408Y-105535063D01*
X136048663Y-105473903D01*
X136262830Y-105374035D01*
X136456401Y-105238495D01*
X136623495Y-105071401D01*
X136753425Y-104885842D01*
X136808002Y-104842217D01*
X136877500Y-104835023D01*
X136939855Y-104866546D01*
X136956575Y-104885842D01*
X137086500Y-105071395D01*
X137086505Y-105071401D01*
X137253599Y-105238495D01*
X137350384Y-105306265D01*
X137447165Y-105374032D01*
X137447167Y-105374033D01*
X137447170Y-105374035D01*
X137661337Y-105473903D01*
X137889592Y-105535063D01*
X138066034Y-105550500D01*
X138124999Y-105555659D01*
X138125000Y-105555659D01*
X138125001Y-105555659D01*
X138183966Y-105550500D01*
X138360408Y-105535063D01*
X138588663Y-105473903D01*
X138802830Y-105374035D01*
X138996401Y-105238495D01*
X139163495Y-105071401D01*
X139293425Y-104885842D01*
X139348002Y-104842217D01*
X139417500Y-104835023D01*
X139479855Y-104866546D01*
X139496575Y-104885842D01*
X139626500Y-105071395D01*
X139626505Y-105071401D01*
X139793599Y-105238495D01*
X139890384Y-105306265D01*
X139987165Y-105374032D01*
X139987167Y-105374033D01*
X139987170Y-105374035D01*
X140201337Y-105473903D01*
X140429592Y-105535063D01*
X140606034Y-105550500D01*
X140664999Y-105555659D01*
X140665000Y-105555659D01*
X140665001Y-105555659D01*
X140723966Y-105550500D01*
X140900408Y-105535063D01*
X141128663Y-105473903D01*
X141342830Y-105374035D01*
X141536401Y-105238495D01*
X141703495Y-105071401D01*
X141833425Y-104885842D01*
X141888002Y-104842217D01*
X141957500Y-104835023D01*
X142019855Y-104866546D01*
X142036575Y-104885842D01*
X142166500Y-105071395D01*
X142166505Y-105071401D01*
X142333599Y-105238495D01*
X142430384Y-105306265D01*
X142527165Y-105374032D01*
X142527167Y-105374033D01*
X142527170Y-105374035D01*
X142741337Y-105473903D01*
X142969592Y-105535063D01*
X143146034Y-105550500D01*
X143204999Y-105555659D01*
X143205000Y-105555659D01*
X143205001Y-105555659D01*
X143263966Y-105550500D01*
X143440408Y-105535063D01*
X143668663Y-105473903D01*
X143882830Y-105374035D01*
X144076401Y-105238495D01*
X144243495Y-105071401D01*
X144373425Y-104885842D01*
X144428002Y-104842217D01*
X144497500Y-104835023D01*
X144559855Y-104866546D01*
X144576575Y-104885842D01*
X144706500Y-105071395D01*
X144706505Y-105071401D01*
X144873599Y-105238495D01*
X144970384Y-105306265D01*
X145067165Y-105374032D01*
X145067167Y-105374033D01*
X145067170Y-105374035D01*
X145281337Y-105473903D01*
X145509592Y-105535063D01*
X145686034Y-105550500D01*
X145744999Y-105555659D01*
X145745000Y-105555659D01*
X145745001Y-105555659D01*
X145803966Y-105550500D01*
X145980408Y-105535063D01*
X146208663Y-105473903D01*
X146422830Y-105374035D01*
X146616401Y-105238495D01*
X146783495Y-105071401D01*
X146913425Y-104885842D01*
X146968002Y-104842217D01*
X147037500Y-104835023D01*
X147099855Y-104866546D01*
X147116575Y-104885842D01*
X147246500Y-105071395D01*
X147246505Y-105071401D01*
X147413599Y-105238495D01*
X147510384Y-105306265D01*
X147607165Y-105374032D01*
X147607167Y-105374033D01*
X147607170Y-105374035D01*
X147821337Y-105473903D01*
X148049592Y-105535063D01*
X148226034Y-105550500D01*
X148284999Y-105555659D01*
X148285000Y-105555659D01*
X148285001Y-105555659D01*
X148343966Y-105550500D01*
X148520408Y-105535063D01*
X148748663Y-105473903D01*
X148962830Y-105374035D01*
X149156401Y-105238495D01*
X149323495Y-105071401D01*
X149453425Y-104885842D01*
X149508002Y-104842217D01*
X149577500Y-104835023D01*
X149639855Y-104866546D01*
X149656575Y-104885842D01*
X149786500Y-105071395D01*
X149786505Y-105071401D01*
X149953599Y-105238495D01*
X150050384Y-105306265D01*
X150147165Y-105374032D01*
X150147167Y-105374033D01*
X150147170Y-105374035D01*
X150361337Y-105473903D01*
X150589592Y-105535063D01*
X150766034Y-105550500D01*
X150824999Y-105555659D01*
X150825000Y-105555659D01*
X150825001Y-105555659D01*
X150883966Y-105550500D01*
X151060408Y-105535063D01*
X151288663Y-105473903D01*
X151502830Y-105374035D01*
X151696401Y-105238495D01*
X151863495Y-105071401D01*
X151993425Y-104885842D01*
X152048002Y-104842217D01*
X152117500Y-104835023D01*
X152179855Y-104866546D01*
X152196575Y-104885842D01*
X152326500Y-105071395D01*
X152326505Y-105071401D01*
X152493599Y-105238495D01*
X152590384Y-105306265D01*
X152687165Y-105374032D01*
X152687167Y-105374033D01*
X152687170Y-105374035D01*
X152901337Y-105473903D01*
X153129592Y-105535063D01*
X153306034Y-105550500D01*
X153364999Y-105555659D01*
X153365000Y-105555659D01*
X153365001Y-105555659D01*
X153423966Y-105550500D01*
X153600408Y-105535063D01*
X153828663Y-105473903D01*
X154042830Y-105374035D01*
X154236401Y-105238495D01*
X154403495Y-105071401D01*
X154539035Y-104877830D01*
X154638903Y-104663663D01*
X154700063Y-104435408D01*
X154720659Y-104200000D01*
X154700063Y-103964592D01*
X154638903Y-103736337D01*
X154539035Y-103522171D01*
X154533731Y-103514595D01*
X154403494Y-103328597D01*
X154236402Y-103161506D01*
X154236395Y-103161501D01*
X154042834Y-103025967D01*
X154042830Y-103025965D01*
X153995040Y-103003680D01*
X153828663Y-102926097D01*
X153828659Y-102926096D01*
X153828655Y-102926094D01*
X153600413Y-102864938D01*
X153600403Y-102864936D01*
X153365001Y-102844341D01*
X153364999Y-102844341D01*
X153129596Y-102864936D01*
X153129586Y-102864938D01*
X152901344Y-102926094D01*
X152901335Y-102926098D01*
X152687171Y-103025964D01*
X152687169Y-103025965D01*
X152493597Y-103161505D01*
X152326505Y-103328597D01*
X152196575Y-103514158D01*
X152141998Y-103557783D01*
X152072500Y-103564977D01*
X152010145Y-103533454D01*
X151993425Y-103514158D01*
X151863494Y-103328597D01*
X151696402Y-103161506D01*
X151696395Y-103161501D01*
X151502834Y-103025967D01*
X151502830Y-103025965D01*
X151455040Y-103003680D01*
X151288663Y-102926097D01*
X151288659Y-102926096D01*
X151288655Y-102926094D01*
X151060413Y-102864938D01*
X151060403Y-102864936D01*
X150825001Y-102844341D01*
X150824999Y-102844341D01*
X150589596Y-102864936D01*
X150589586Y-102864938D01*
X150361344Y-102926094D01*
X150361335Y-102926098D01*
X150147171Y-103025964D01*
X150147169Y-103025965D01*
X149953597Y-103161505D01*
X149786505Y-103328597D01*
X149656575Y-103514158D01*
X149601998Y-103557783D01*
X149532500Y-103564977D01*
X149470145Y-103533454D01*
X149453425Y-103514158D01*
X149323494Y-103328597D01*
X149156402Y-103161506D01*
X149156395Y-103161501D01*
X148962834Y-103025967D01*
X148962830Y-103025965D01*
X148915040Y-103003680D01*
X148748663Y-102926097D01*
X148748659Y-102926096D01*
X148748655Y-102926094D01*
X148520413Y-102864938D01*
X148520403Y-102864936D01*
X148285001Y-102844341D01*
X148284999Y-102844341D01*
X148049596Y-102864936D01*
X148049586Y-102864938D01*
X147934481Y-102895780D01*
X147864631Y-102894117D01*
X147806769Y-102854954D01*
X147779265Y-102790725D01*
X147785347Y-102735049D01*
X147786323Y-102732262D01*
X147799999Y-102693176D01*
X147815367Y-102649259D01*
X147815369Y-102649249D01*
X147835565Y-102470003D01*
X147835565Y-102469996D01*
X147815369Y-102290750D01*
X147815368Y-102290745D01*
X147794111Y-102229996D01*
X155064435Y-102229996D01*
X155064435Y-102230003D01*
X155084630Y-102409249D01*
X155084631Y-102409254D01*
X155144211Y-102579523D01*
X155236116Y-102725788D01*
X155240184Y-102732262D01*
X155367738Y-102859816D01*
X155439091Y-102904650D01*
X155505035Y-102946086D01*
X155520478Y-102955789D01*
X155657343Y-103003680D01*
X155690745Y-103015368D01*
X155690750Y-103015369D01*
X155813970Y-103029252D01*
X155878384Y-103056318D01*
X155917939Y-103113913D01*
X155920077Y-103183750D01*
X155887769Y-103240153D01*
X155800183Y-103327739D01*
X155704211Y-103480476D01*
X155644631Y-103650745D01*
X155644630Y-103650750D01*
X155624435Y-103829996D01*
X155624435Y-103830003D01*
X155644630Y-104009249D01*
X155644632Y-104009257D01*
X155690282Y-104139717D01*
X155693843Y-104209495D01*
X155678236Y-104246640D01*
X155656474Y-104281276D01*
X155596898Y-104451532D01*
X155596895Y-104451545D01*
X155576700Y-104630791D01*
X155576700Y-104630798D01*
X155596895Y-104810044D01*
X155596896Y-104810049D01*
X155656476Y-104980318D01*
X155730341Y-105097872D01*
X155752449Y-105133057D01*
X155880003Y-105260611D01*
X156032743Y-105356584D01*
X156178378Y-105407544D01*
X156203010Y-105416163D01*
X156203015Y-105416164D01*
X156382261Y-105436360D01*
X156382265Y-105436360D01*
X156382269Y-105436360D01*
X156561514Y-105416164D01*
X156561517Y-105416163D01*
X156561520Y-105416163D01*
X156731787Y-105356584D01*
X156884527Y-105260611D01*
X157012081Y-105133057D01*
X157108054Y-104980317D01*
X157167633Y-104810050D01*
X157187830Y-104630795D01*
X157184371Y-104600099D01*
X157167634Y-104451545D01*
X157167633Y-104451540D01*
X157121982Y-104321077D01*
X157118421Y-104251298D01*
X157134029Y-104214151D01*
X157155789Y-104179522D01*
X157215368Y-104009255D01*
X157215369Y-104009249D01*
X157235565Y-103830003D01*
X157235565Y-103829996D01*
X157215369Y-103650750D01*
X157215368Y-103650745D01*
X157182839Y-103557783D01*
X157155789Y-103480478D01*
X157059816Y-103327738D01*
X156932262Y-103200184D01*
X156925267Y-103195789D01*
X156860346Y-103154996D01*
X160999435Y-103154996D01*
X160999435Y-103155003D01*
X161019630Y-103334249D01*
X161019631Y-103334254D01*
X161079211Y-103504523D01*
X161170000Y-103649011D01*
X161175184Y-103657262D01*
X161302738Y-103784816D01*
X161455478Y-103880789D01*
X161625745Y-103940368D01*
X161625750Y-103940369D01*
X161804996Y-103960565D01*
X161805000Y-103960565D01*
X161805004Y-103960565D01*
X161984249Y-103940369D01*
X161984252Y-103940368D01*
X161984255Y-103940368D01*
X162154522Y-103880789D01*
X162307262Y-103784816D01*
X162352319Y-103739759D01*
X162413642Y-103706274D01*
X162483334Y-103711258D01*
X162527681Y-103739759D01*
X162572738Y-103784816D01*
X162725478Y-103880789D01*
X162895745Y-103940368D01*
X162895750Y-103940369D01*
X163074996Y-103960565D01*
X163075000Y-103960565D01*
X163075004Y-103960565D01*
X163254249Y-103940369D01*
X163254252Y-103940368D01*
X163254255Y-103940368D01*
X163424522Y-103880789D01*
X163577262Y-103784816D01*
X163622319Y-103739759D01*
X163683642Y-103706274D01*
X163753334Y-103711258D01*
X163797681Y-103739759D01*
X163842738Y-103784816D01*
X163995478Y-103880789D01*
X164165745Y-103940368D01*
X164165750Y-103940369D01*
X164344996Y-103960565D01*
X164345000Y-103960565D01*
X164345004Y-103960565D01*
X164524249Y-103940369D01*
X164524252Y-103940368D01*
X164524255Y-103940368D01*
X164694522Y-103880789D01*
X164847262Y-103784816D01*
X164892319Y-103739759D01*
X164953642Y-103706274D01*
X165023334Y-103711258D01*
X165067681Y-103739759D01*
X165112738Y-103784816D01*
X165265478Y-103880789D01*
X165435745Y-103940368D01*
X165435750Y-103940369D01*
X165614996Y-103960565D01*
X165615000Y-103960565D01*
X165615004Y-103960565D01*
X165794249Y-103940369D01*
X165794252Y-103940368D01*
X165794255Y-103940368D01*
X165964522Y-103880789D01*
X166117262Y-103784816D01*
X166162319Y-103739759D01*
X166223642Y-103706274D01*
X166293334Y-103711258D01*
X166337681Y-103739759D01*
X166382738Y-103784816D01*
X166535478Y-103880789D01*
X166705745Y-103940368D01*
X166705750Y-103940369D01*
X166884996Y-103960565D01*
X166885000Y-103960565D01*
X166885004Y-103960565D01*
X167064249Y-103940369D01*
X167064252Y-103940368D01*
X167064255Y-103940368D01*
X167234522Y-103880789D01*
X167387262Y-103784816D01*
X167432319Y-103739759D01*
X167493642Y-103706274D01*
X167563334Y-103711258D01*
X167607681Y-103739759D01*
X167652738Y-103784816D01*
X167805478Y-103880789D01*
X167975745Y-103940368D01*
X167975750Y-103940369D01*
X168154996Y-103960565D01*
X168155000Y-103960565D01*
X168155004Y-103960565D01*
X168334249Y-103940369D01*
X168334252Y-103940368D01*
X168334255Y-103940368D01*
X168504522Y-103880789D01*
X168657262Y-103784816D01*
X168784816Y-103657262D01*
X168880789Y-103504522D01*
X168940368Y-103334255D01*
X168940369Y-103334249D01*
X168960565Y-103155003D01*
X168960565Y-103154996D01*
X169889435Y-103154996D01*
X169889435Y-103155003D01*
X169909630Y-103334249D01*
X169909631Y-103334254D01*
X169969211Y-103504523D01*
X170060000Y-103649011D01*
X170065184Y-103657262D01*
X170192738Y-103784816D01*
X170345478Y-103880789D01*
X170515745Y-103940368D01*
X170515750Y-103940369D01*
X170694996Y-103960565D01*
X170695000Y-103960565D01*
X170695004Y-103960565D01*
X170874249Y-103940369D01*
X170874252Y-103940368D01*
X170874255Y-103940368D01*
X171044522Y-103880789D01*
X171197262Y-103784816D01*
X171242319Y-103739759D01*
X171303642Y-103706274D01*
X171373334Y-103711258D01*
X171417681Y-103739759D01*
X171462738Y-103784816D01*
X171615478Y-103880789D01*
X171785745Y-103940368D01*
X171785750Y-103940369D01*
X171964996Y-103960565D01*
X171965000Y-103960565D01*
X171965004Y-103960565D01*
X172144249Y-103940369D01*
X172144252Y-103940368D01*
X172144255Y-103940368D01*
X172314522Y-103880789D01*
X172467262Y-103784816D01*
X172512319Y-103739759D01*
X172573642Y-103706274D01*
X172643334Y-103711258D01*
X172687681Y-103739759D01*
X172732738Y-103784816D01*
X172885478Y-103880789D01*
X173055745Y-103940368D01*
X173055750Y-103940369D01*
X173234996Y-103960565D01*
X173235000Y-103960565D01*
X173235004Y-103960565D01*
X173414249Y-103940369D01*
X173414252Y-103940368D01*
X173414255Y-103940368D01*
X173584522Y-103880789D01*
X173737262Y-103784816D01*
X173782319Y-103739759D01*
X173843642Y-103706274D01*
X173913334Y-103711258D01*
X173957681Y-103739759D01*
X174002738Y-103784816D01*
X174155478Y-103880789D01*
X174325745Y-103940368D01*
X174325750Y-103940369D01*
X174504996Y-103960565D01*
X174505000Y-103960565D01*
X174505004Y-103960565D01*
X174684249Y-103940369D01*
X174684252Y-103940368D01*
X174684255Y-103940368D01*
X174854522Y-103880789D01*
X175007262Y-103784816D01*
X175052319Y-103739759D01*
X175113642Y-103706274D01*
X175183334Y-103711258D01*
X175227681Y-103739759D01*
X175272738Y-103784816D01*
X175425478Y-103880789D01*
X175595745Y-103940368D01*
X175595750Y-103940369D01*
X175774996Y-103960565D01*
X175775000Y-103960565D01*
X175775004Y-103960565D01*
X175954249Y-103940369D01*
X175954252Y-103940368D01*
X175954255Y-103940368D01*
X176124522Y-103880789D01*
X176277262Y-103784816D01*
X176404816Y-103657262D01*
X176500789Y-103504522D01*
X176560368Y-103334255D01*
X176560369Y-103334249D01*
X176580565Y-103155003D01*
X176580565Y-103154996D01*
X176560369Y-102975750D01*
X176560368Y-102975745D01*
X176542994Y-102926094D01*
X176500789Y-102805478D01*
X176404816Y-102652738D01*
X176277262Y-102525184D01*
X176240782Y-102502262D01*
X176124523Y-102429211D01*
X175954254Y-102369631D01*
X175954249Y-102369630D01*
X175775004Y-102349435D01*
X175774996Y-102349435D01*
X175595750Y-102369630D01*
X175595745Y-102369631D01*
X175425476Y-102429211D01*
X175272737Y-102525184D01*
X175227680Y-102570241D01*
X175166357Y-102603725D01*
X175096665Y-102598740D01*
X175052320Y-102570241D01*
X175007263Y-102525185D01*
X175007262Y-102525184D01*
X174854523Y-102429211D01*
X174684254Y-102369631D01*
X174684249Y-102369630D01*
X174505004Y-102349435D01*
X174504996Y-102349435D01*
X174325750Y-102369630D01*
X174325745Y-102369631D01*
X174155476Y-102429211D01*
X174002737Y-102525184D01*
X173957680Y-102570241D01*
X173896357Y-102603725D01*
X173826665Y-102598740D01*
X173782320Y-102570241D01*
X173737263Y-102525185D01*
X173737262Y-102525184D01*
X173584523Y-102429211D01*
X173414254Y-102369631D01*
X173414249Y-102369630D01*
X173235004Y-102349435D01*
X173234996Y-102349435D01*
X173055750Y-102369630D01*
X173055745Y-102369631D01*
X172885476Y-102429211D01*
X172732737Y-102525184D01*
X172687680Y-102570241D01*
X172626357Y-102603725D01*
X172556665Y-102598740D01*
X172512320Y-102570241D01*
X172467263Y-102525185D01*
X172467262Y-102525184D01*
X172314523Y-102429211D01*
X172144254Y-102369631D01*
X172144249Y-102369630D01*
X171965004Y-102349435D01*
X171964996Y-102349435D01*
X171785750Y-102369630D01*
X171785745Y-102369631D01*
X171615476Y-102429211D01*
X171462737Y-102525184D01*
X171417680Y-102570241D01*
X171356357Y-102603725D01*
X171286665Y-102598740D01*
X171242320Y-102570241D01*
X171197263Y-102525185D01*
X171197262Y-102525184D01*
X171044523Y-102429211D01*
X170874254Y-102369631D01*
X170874249Y-102369630D01*
X170695004Y-102349435D01*
X170694996Y-102349435D01*
X170515750Y-102369630D01*
X170515745Y-102369631D01*
X170345476Y-102429211D01*
X170192737Y-102525184D01*
X170065184Y-102652737D01*
X169969211Y-102805476D01*
X169909631Y-102975745D01*
X169909630Y-102975750D01*
X169889435Y-103154996D01*
X168960565Y-103154996D01*
X168940369Y-102975750D01*
X168940368Y-102975745D01*
X168922994Y-102926094D01*
X168880789Y-102805478D01*
X168784816Y-102652738D01*
X168657262Y-102525184D01*
X168620782Y-102502262D01*
X168504523Y-102429211D01*
X168334254Y-102369631D01*
X168334249Y-102369630D01*
X168155004Y-102349435D01*
X168154996Y-102349435D01*
X167975750Y-102369630D01*
X167975745Y-102369631D01*
X167805476Y-102429211D01*
X167652737Y-102525184D01*
X167607680Y-102570241D01*
X167546357Y-102603725D01*
X167476665Y-102598740D01*
X167432320Y-102570241D01*
X167387263Y-102525185D01*
X167387262Y-102525184D01*
X167234523Y-102429211D01*
X167064254Y-102369631D01*
X167064249Y-102369630D01*
X166885004Y-102349435D01*
X166884996Y-102349435D01*
X166705750Y-102369630D01*
X166705745Y-102369631D01*
X166535476Y-102429211D01*
X166382737Y-102525184D01*
X166337680Y-102570241D01*
X166276357Y-102603725D01*
X166206665Y-102598740D01*
X166162320Y-102570241D01*
X166117263Y-102525185D01*
X166117262Y-102525184D01*
X165964523Y-102429211D01*
X165794254Y-102369631D01*
X165794249Y-102369630D01*
X165615004Y-102349435D01*
X165614996Y-102349435D01*
X165435750Y-102369630D01*
X165435745Y-102369631D01*
X165265476Y-102429211D01*
X165112737Y-102525184D01*
X165067680Y-102570241D01*
X165006357Y-102603725D01*
X164936665Y-102598740D01*
X164892320Y-102570241D01*
X164847263Y-102525185D01*
X164847262Y-102525184D01*
X164694523Y-102429211D01*
X164524254Y-102369631D01*
X164524249Y-102369630D01*
X164345004Y-102349435D01*
X164344996Y-102349435D01*
X164165750Y-102369630D01*
X164165745Y-102369631D01*
X163995476Y-102429211D01*
X163842737Y-102525184D01*
X163797680Y-102570241D01*
X163736357Y-102603725D01*
X163666665Y-102598740D01*
X163622320Y-102570241D01*
X163577263Y-102525185D01*
X163577262Y-102525184D01*
X163424523Y-102429211D01*
X163254254Y-102369631D01*
X163254249Y-102369630D01*
X163075004Y-102349435D01*
X163074996Y-102349435D01*
X162895750Y-102369630D01*
X162895745Y-102369631D01*
X162725476Y-102429211D01*
X162572737Y-102525184D01*
X162527680Y-102570241D01*
X162466357Y-102603725D01*
X162396665Y-102598740D01*
X162352320Y-102570241D01*
X162307263Y-102525185D01*
X162307262Y-102525184D01*
X162154523Y-102429211D01*
X161984254Y-102369631D01*
X161984249Y-102369630D01*
X161805004Y-102349435D01*
X161804996Y-102349435D01*
X161625750Y-102369630D01*
X161625745Y-102369631D01*
X161455476Y-102429211D01*
X161302737Y-102525184D01*
X161175184Y-102652737D01*
X161079211Y-102805476D01*
X161019631Y-102975745D01*
X161019630Y-102975750D01*
X160999435Y-103154996D01*
X156860346Y-103154996D01*
X156779523Y-103104211D01*
X156609254Y-103044631D01*
X156609250Y-103044630D01*
X156486028Y-103030747D01*
X156421614Y-103003680D01*
X156382059Y-102946086D01*
X156379922Y-102876249D01*
X156412228Y-102819849D01*
X156499816Y-102732262D01*
X156595789Y-102579522D01*
X156655368Y-102409255D01*
X156658685Y-102379815D01*
X156675565Y-102230003D01*
X156675565Y-102229996D01*
X156655369Y-102050750D01*
X156655368Y-102050745D01*
X156637613Y-102000003D01*
X156595789Y-101880478D01*
X156499816Y-101727738D01*
X156372262Y-101600184D01*
X156325410Y-101570745D01*
X156219523Y-101504211D01*
X156049254Y-101444631D01*
X156049249Y-101444630D01*
X155870004Y-101424435D01*
X155869996Y-101424435D01*
X155690750Y-101444630D01*
X155690745Y-101444631D01*
X155520476Y-101504211D01*
X155367737Y-101600184D01*
X155240184Y-101727737D01*
X155144211Y-101880476D01*
X155084631Y-102050745D01*
X155084630Y-102050750D01*
X155064435Y-102229996D01*
X147794111Y-102229996D01*
X147776356Y-102179255D01*
X147755789Y-102120478D01*
X147742621Y-102099522D01*
X147680089Y-102000003D01*
X147659816Y-101967738D01*
X147532262Y-101840184D01*
X147388740Y-101750003D01*
X147379521Y-101744210D01*
X147209249Y-101684630D01*
X147122330Y-101674837D01*
X147057916Y-101647770D01*
X147048533Y-101639298D01*
X146497590Y-101088355D01*
X146497588Y-101088352D01*
X146378717Y-100969481D01*
X146378716Y-100969480D01*
X146283539Y-100914530D01*
X146241785Y-100890423D01*
X146089057Y-100849499D01*
X145930943Y-100849499D01*
X145923347Y-100849499D01*
X145923331Y-100849500D01*
X144120097Y-100849500D01*
X144053058Y-100829815D01*
X144032416Y-100813181D01*
X140337590Y-97118355D01*
X140337588Y-97118352D01*
X140218717Y-96999481D01*
X140218709Y-96999475D01*
X140119612Y-96942262D01*
X140119610Y-96942261D01*
X140081790Y-96920425D01*
X140081789Y-96920424D01*
X140043573Y-96910184D01*
X139929057Y-96879499D01*
X139770943Y-96879499D01*
X139763347Y-96879499D01*
X139763331Y-96879500D01*
X137310098Y-96879500D01*
X137243059Y-96859815D01*
X137222417Y-96843181D01*
X135966732Y-95587496D01*
X143086935Y-95587496D01*
X143086935Y-95587503D01*
X143107130Y-95766749D01*
X143107131Y-95766754D01*
X143166711Y-95937023D01*
X143262684Y-96089762D01*
X143267025Y-96095205D01*
X143265298Y-96096581D01*
X143293726Y-96148642D01*
X143288742Y-96218334D01*
X143265890Y-96253890D01*
X143267025Y-96254795D01*
X143262684Y-96260237D01*
X143166711Y-96412976D01*
X143107131Y-96583245D01*
X143107130Y-96583250D01*
X143086935Y-96762496D01*
X143086935Y-96762503D01*
X143107130Y-96941749D01*
X143107131Y-96941754D01*
X143166711Y-97112023D01*
X143253904Y-97250789D01*
X143262684Y-97264762D01*
X143390238Y-97392316D01*
X143467312Y-97440745D01*
X143542861Y-97488216D01*
X143542978Y-97488289D01*
X143636978Y-97521181D01*
X143713245Y-97547868D01*
X143713250Y-97547869D01*
X143892496Y-97568065D01*
X143892500Y-97568065D01*
X143892503Y-97568065D01*
X144050802Y-97550229D01*
X144119624Y-97562283D01*
X144171004Y-97609633D01*
X144187906Y-97659565D01*
X144194630Y-97719250D01*
X144194631Y-97719254D01*
X144254211Y-97889523D01*
X144291912Y-97949523D01*
X144350184Y-98042262D01*
X144477738Y-98169816D01*
X144544910Y-98212023D01*
X144605055Y-98249815D01*
X144630478Y-98265789D01*
X144800745Y-98325368D01*
X144800750Y-98325369D01*
X144979996Y-98345565D01*
X144980000Y-98345565D01*
X144980004Y-98345565D01*
X145159249Y-98325369D01*
X145159252Y-98325368D01*
X145159255Y-98325368D01*
X145329522Y-98265789D01*
X145482262Y-98169816D01*
X145609816Y-98042262D01*
X145705789Y-97889522D01*
X145765368Y-97719255D01*
X145769425Y-97683250D01*
X145785565Y-97540003D01*
X145785565Y-97539996D01*
X145766974Y-97374996D01*
X146859435Y-97374996D01*
X146859435Y-97375003D01*
X146879630Y-97554249D01*
X146879631Y-97554254D01*
X146939211Y-97724523D01*
X146992330Y-97809060D01*
X147035184Y-97877262D01*
X147162738Y-98004816D01*
X147221526Y-98041755D01*
X147299704Y-98090878D01*
X147315478Y-98100789D01*
X147485745Y-98160368D01*
X147485750Y-98160369D01*
X147664996Y-98180565D01*
X147665000Y-98180565D01*
X147665004Y-98180565D01*
X147844249Y-98160369D01*
X147844252Y-98160368D01*
X147844255Y-98160368D01*
X148014522Y-98100789D01*
X148167262Y-98004816D01*
X148294816Y-97877262D01*
X148390789Y-97724522D01*
X148450368Y-97554255D01*
X148450678Y-97551504D01*
X148470565Y-97375003D01*
X148470565Y-97374996D01*
X148450369Y-97195750D01*
X148450368Y-97195745D01*
X148421072Y-97112022D01*
X148390789Y-97025478D01*
X148386754Y-97019057D01*
X148338182Y-96941754D01*
X148294816Y-96872738D01*
X148167262Y-96745184D01*
X148102124Y-96704255D01*
X148014523Y-96649211D01*
X147844254Y-96589631D01*
X147844249Y-96589630D01*
X147665004Y-96569435D01*
X147664996Y-96569435D01*
X147485750Y-96589630D01*
X147485745Y-96589631D01*
X147315476Y-96649211D01*
X147162737Y-96745184D01*
X147035184Y-96872737D01*
X146939211Y-97025476D01*
X146879631Y-97195745D01*
X146879630Y-97195750D01*
X146859435Y-97374996D01*
X145766974Y-97374996D01*
X145765369Y-97360750D01*
X145765368Y-97360745D01*
X145747162Y-97308716D01*
X145705789Y-97190478D01*
X145694043Y-97171785D01*
X145656028Y-97111284D01*
X145609816Y-97037738D01*
X145517130Y-96945052D01*
X145483645Y-96883729D01*
X145488629Y-96814037D01*
X145530501Y-96758104D01*
X145595965Y-96733687D01*
X145618695Y-96734151D01*
X145719997Y-96745565D01*
X145720000Y-96745565D01*
X145720004Y-96745565D01*
X145899249Y-96725369D01*
X145899252Y-96725368D01*
X145899255Y-96725368D01*
X146069522Y-96665789D01*
X146222262Y-96569816D01*
X146349816Y-96442262D01*
X146351240Y-96439996D01*
X153014435Y-96439996D01*
X153014435Y-96440003D01*
X153034630Y-96619249D01*
X153034631Y-96619254D01*
X153094211Y-96789523D01*
X153170028Y-96910184D01*
X153190184Y-96942262D01*
X153317738Y-97069816D01*
X153384910Y-97112023D01*
X153453014Y-97154816D01*
X153470478Y-97165789D01*
X153556102Y-97195750D01*
X153640745Y-97225368D01*
X153640750Y-97225369D01*
X153812613Y-97244733D01*
X153877027Y-97271799D01*
X153916582Y-97329394D01*
X153918720Y-97399231D01*
X153915772Y-97408907D01*
X153904632Y-97440742D01*
X153904630Y-97440750D01*
X153884435Y-97619996D01*
X153884435Y-97620003D01*
X153904630Y-97799249D01*
X153904631Y-97799254D01*
X153964211Y-97969523D01*
X154040464Y-98090878D01*
X154060184Y-98122262D01*
X154187738Y-98249816D01*
X154213159Y-98265789D01*
X154340121Y-98345565D01*
X154340478Y-98345789D01*
X154453591Y-98385369D01*
X154510745Y-98405368D01*
X154510750Y-98405369D01*
X154689996Y-98425565D01*
X154690000Y-98425565D01*
X154690004Y-98425565D01*
X154869249Y-98405369D01*
X154869252Y-98405368D01*
X154869255Y-98405368D01*
X155039522Y-98345789D01*
X155192262Y-98249816D01*
X155319816Y-98122262D01*
X155415789Y-97969522D01*
X155475368Y-97799255D01*
X155475390Y-97799061D01*
X155495565Y-97620003D01*
X155495565Y-97619996D01*
X155493312Y-97599996D01*
X155744435Y-97599996D01*
X155744435Y-97600003D01*
X155764630Y-97779249D01*
X155764631Y-97779254D01*
X155824211Y-97949523D01*
X155868556Y-98020097D01*
X155920184Y-98102262D01*
X156047738Y-98229816D01*
X156079568Y-98249816D01*
X156199809Y-98325369D01*
X156200478Y-98325789D01*
X156349326Y-98377873D01*
X156370745Y-98385368D01*
X156370750Y-98385369D01*
X156549996Y-98405565D01*
X156550000Y-98405565D01*
X156550004Y-98405565D01*
X156729249Y-98385369D01*
X156729252Y-98385368D01*
X156729255Y-98385368D01*
X156899522Y-98325789D01*
X157052262Y-98229816D01*
X157179816Y-98102262D01*
X157275789Y-97949522D01*
X157335368Y-97779255D01*
X157335369Y-97779249D01*
X157355565Y-97600003D01*
X157355565Y-97599996D01*
X157335369Y-97420750D01*
X157335368Y-97420745D01*
X157314195Y-97360237D01*
X157275789Y-97250478D01*
X157179816Y-97097738D01*
X157052262Y-96970184D01*
X157025874Y-96953603D01*
X156907399Y-96879160D01*
X168261892Y-96879160D01*
X168261892Y-96879161D01*
X168275692Y-96887833D01*
X168275691Y-96887833D01*
X168445861Y-96947378D01*
X168624997Y-96967562D01*
X168625003Y-96967562D01*
X168804138Y-96947378D01*
X168804141Y-96947377D01*
X168974305Y-96887834D01*
X168974306Y-96887834D01*
X168988106Y-96879161D01*
X168988106Y-96879160D01*
X169661892Y-96879160D01*
X169661892Y-96879161D01*
X169675692Y-96887833D01*
X169675691Y-96887833D01*
X169845861Y-96947378D01*
X170024997Y-96967562D01*
X170025003Y-96967562D01*
X170204138Y-96947378D01*
X170204141Y-96947377D01*
X170374305Y-96887834D01*
X170374306Y-96887834D01*
X170388106Y-96879161D01*
X170388106Y-96879160D01*
X170025001Y-96516053D01*
X170025000Y-96516053D01*
X169661892Y-96879160D01*
X168988106Y-96879160D01*
X168625001Y-96516053D01*
X168625000Y-96516053D01*
X168261892Y-96879160D01*
X156907399Y-96879160D01*
X156899523Y-96874211D01*
X156729254Y-96814631D01*
X156729249Y-96814630D01*
X156550004Y-96794435D01*
X156549996Y-96794435D01*
X156370750Y-96814630D01*
X156370745Y-96814631D01*
X156200476Y-96874211D01*
X156047737Y-96970184D01*
X155920184Y-97097737D01*
X155824211Y-97250476D01*
X155764631Y-97420745D01*
X155764630Y-97420750D01*
X155744435Y-97599996D01*
X155493312Y-97599996D01*
X155475369Y-97440750D01*
X155475368Y-97440745D01*
X155452361Y-97374996D01*
X155415789Y-97270478D01*
X155412197Y-97264762D01*
X155350008Y-97165788D01*
X155319816Y-97117738D01*
X155192262Y-96990184D01*
X155039523Y-96894211D01*
X154869254Y-96834631D01*
X154869250Y-96834630D01*
X154697385Y-96815266D01*
X154632971Y-96788199D01*
X154593416Y-96730604D01*
X154591279Y-96660767D01*
X154594229Y-96651088D01*
X154605366Y-96619260D01*
X154605368Y-96619255D01*
X154609425Y-96583250D01*
X154625565Y-96440003D01*
X154625565Y-96439996D01*
X154605369Y-96260750D01*
X154605368Y-96260745D01*
X154600655Y-96247276D01*
X154576820Y-96179160D01*
X167561892Y-96179160D01*
X167561892Y-96179161D01*
X167575692Y-96187833D01*
X167575691Y-96187833D01*
X167745862Y-96247378D01*
X167746644Y-96247557D01*
X167747097Y-96247810D01*
X167752431Y-96249677D01*
X167752104Y-96250611D01*
X167807623Y-96281666D01*
X167836952Y-96335374D01*
X167837822Y-96335070D01*
X167839670Y-96340352D01*
X167839940Y-96340846D01*
X167840121Y-96341642D01*
X167899663Y-96511800D01*
X167899663Y-96511801D01*
X167908338Y-96525607D01*
X168271446Y-96162500D01*
X168251555Y-96142609D01*
X168525000Y-96142609D01*
X168525000Y-96182391D01*
X168540224Y-96219145D01*
X168568355Y-96247276D01*
X168605109Y-96262500D01*
X168644891Y-96262500D01*
X168681645Y-96247276D01*
X168709776Y-96219145D01*
X168725000Y-96182391D01*
X168725000Y-96162500D01*
X168978553Y-96162500D01*
X169325000Y-96508946D01*
X169325001Y-96508946D01*
X169671446Y-96162500D01*
X169651555Y-96142609D01*
X169925000Y-96142609D01*
X169925000Y-96182391D01*
X169940224Y-96219145D01*
X169968355Y-96247276D01*
X170005109Y-96262500D01*
X170044891Y-96262500D01*
X170081645Y-96247276D01*
X170109776Y-96219145D01*
X170125000Y-96182391D01*
X170125000Y-96162500D01*
X170378553Y-96162500D01*
X170741660Y-96525606D01*
X170741661Y-96525606D01*
X170750334Y-96511806D01*
X170750334Y-96511805D01*
X170809876Y-96341644D01*
X170810056Y-96340858D01*
X170810311Y-96340401D01*
X170812177Y-96335070D01*
X170813110Y-96335396D01*
X170844164Y-96279879D01*
X170897875Y-96250549D01*
X170897570Y-96249677D01*
X170902870Y-96247822D01*
X170903358Y-96247556D01*
X170904144Y-96247376D01*
X171074305Y-96187834D01*
X171074306Y-96187834D01*
X171088106Y-96179161D01*
X171088106Y-96179160D01*
X170725000Y-95816053D01*
X170688794Y-95852260D01*
X170688792Y-95852262D01*
X170378553Y-96162500D01*
X170125000Y-96162500D01*
X170125000Y-96142609D01*
X170109776Y-96105855D01*
X170081645Y-96077724D01*
X170044891Y-96062500D01*
X170005109Y-96062500D01*
X169968355Y-96077724D01*
X169940224Y-96105855D01*
X169925000Y-96142609D01*
X169651555Y-96142609D01*
X169361207Y-95852261D01*
X169325000Y-95816053D01*
X169288793Y-95852261D01*
X169288792Y-95852262D01*
X168978553Y-96162500D01*
X168725000Y-96162500D01*
X168725000Y-96142609D01*
X168709776Y-96105855D01*
X168681645Y-96077724D01*
X168644891Y-96062500D01*
X168605109Y-96062500D01*
X168568355Y-96077724D01*
X168540224Y-96105855D01*
X168525000Y-96142609D01*
X168251555Y-96142609D01*
X167924999Y-95816053D01*
X167924998Y-95816053D01*
X167561892Y-96179160D01*
X154576820Y-96179160D01*
X154545789Y-96090478D01*
X154533037Y-96070184D01*
X154476895Y-95980834D01*
X154449816Y-95937738D01*
X154322262Y-95810184D01*
X154320292Y-95808946D01*
X154169523Y-95714211D01*
X153999254Y-95654631D01*
X153999249Y-95654630D01*
X153820004Y-95634435D01*
X153819996Y-95634435D01*
X153640750Y-95654630D01*
X153640745Y-95654631D01*
X153470476Y-95714211D01*
X153317737Y-95810184D01*
X153190184Y-95937737D01*
X153094211Y-96090476D01*
X153034631Y-96260745D01*
X153034630Y-96260750D01*
X153014435Y-96439996D01*
X146351240Y-96439996D01*
X146445789Y-96289522D01*
X146505368Y-96119255D01*
X146508078Y-96095205D01*
X146525565Y-95940003D01*
X146525565Y-95939996D01*
X146505369Y-95760750D01*
X146505368Y-95760745D01*
X146468237Y-95654630D01*
X146445789Y-95590478D01*
X146445786Y-95590474D01*
X146400967Y-95519145D01*
X146365373Y-95462497D01*
X167119938Y-95462497D01*
X167119938Y-95462502D01*
X167140121Y-95641638D01*
X167199665Y-95811804D01*
X167208338Y-95825607D01*
X167571446Y-95462500D01*
X167571446Y-95462499D01*
X167551556Y-95442609D01*
X167825000Y-95442609D01*
X167825000Y-95482391D01*
X167840224Y-95519145D01*
X167868355Y-95547276D01*
X167905109Y-95562500D01*
X167944891Y-95562500D01*
X167981645Y-95547276D01*
X168009776Y-95519145D01*
X168025000Y-95482391D01*
X168025000Y-95462499D01*
X168278553Y-95462499D01*
X168625000Y-95808946D01*
X168971446Y-95462500D01*
X168951555Y-95442609D01*
X169225000Y-95442609D01*
X169225000Y-95482391D01*
X169240224Y-95519145D01*
X169268355Y-95547276D01*
X169305109Y-95562500D01*
X169344891Y-95562500D01*
X169381645Y-95547276D01*
X169409776Y-95519145D01*
X169425000Y-95482391D01*
X169425000Y-95462499D01*
X169678553Y-95462499D01*
X170025000Y-95808946D01*
X170371446Y-95462500D01*
X170351555Y-95442609D01*
X170625000Y-95442609D01*
X170625000Y-95482391D01*
X170640224Y-95519145D01*
X170668355Y-95547276D01*
X170705109Y-95562500D01*
X170744891Y-95562500D01*
X170781645Y-95547276D01*
X170809776Y-95519145D01*
X170825000Y-95482391D01*
X170825000Y-95462500D01*
X171078553Y-95462500D01*
X171441660Y-95825606D01*
X171441661Y-95825606D01*
X171450334Y-95811806D01*
X171450334Y-95811805D01*
X171509877Y-95641641D01*
X171509878Y-95641638D01*
X171530062Y-95462502D01*
X171530062Y-95462497D01*
X171509878Y-95283361D01*
X171450333Y-95113192D01*
X171441661Y-95099392D01*
X171441660Y-95099392D01*
X171078553Y-95462500D01*
X170825000Y-95462500D01*
X170825000Y-95442609D01*
X170809776Y-95405855D01*
X170781645Y-95377724D01*
X170744891Y-95362500D01*
X170705109Y-95362500D01*
X170668355Y-95377724D01*
X170640224Y-95405855D01*
X170625000Y-95442609D01*
X170351555Y-95442609D01*
X170079690Y-95170744D01*
X170025000Y-95116053D01*
X169970310Y-95170744D01*
X169970309Y-95170745D01*
X169678553Y-95462499D01*
X169425000Y-95462499D01*
X169425000Y-95442609D01*
X169409776Y-95405855D01*
X169381645Y-95377724D01*
X169344891Y-95362500D01*
X169305109Y-95362500D01*
X169268355Y-95377724D01*
X169240224Y-95405855D01*
X169225000Y-95442609D01*
X168951555Y-95442609D01*
X168679690Y-95170744D01*
X168625000Y-95116053D01*
X168570310Y-95170744D01*
X168570309Y-95170745D01*
X168278553Y-95462499D01*
X168025000Y-95462499D01*
X168025000Y-95442609D01*
X168009776Y-95405855D01*
X167981645Y-95377724D01*
X167944891Y-95362500D01*
X167905109Y-95362500D01*
X167868355Y-95377724D01*
X167840224Y-95405855D01*
X167825000Y-95442609D01*
X167551556Y-95442609D01*
X167208338Y-95099391D01*
X167208337Y-95099391D01*
X167199667Y-95113191D01*
X167199662Y-95113201D01*
X167140122Y-95283358D01*
X167140121Y-95283361D01*
X167119938Y-95462497D01*
X146365373Y-95462497D01*
X146349816Y-95437738D01*
X146222262Y-95310184D01*
X146221485Y-95309407D01*
X146188000Y-95248084D01*
X146192984Y-95178392D01*
X146204173Y-95155753D01*
X146205495Y-95153650D01*
X146229118Y-95116053D01*
X146245788Y-95089524D01*
X146245789Y-95089522D01*
X146305368Y-94919255D01*
X146305507Y-94918022D01*
X146323030Y-94762499D01*
X167578553Y-94762499D01*
X167578553Y-94762501D01*
X167924998Y-95108946D01*
X167924999Y-95108946D01*
X168231814Y-94802132D01*
X168271446Y-94762500D01*
X168251555Y-94742609D01*
X168525000Y-94742609D01*
X168525000Y-94782391D01*
X168540224Y-94819145D01*
X168568355Y-94847276D01*
X168605109Y-94862500D01*
X168644891Y-94862500D01*
X168681645Y-94847276D01*
X168709776Y-94819145D01*
X168725000Y-94782391D01*
X168725000Y-94762499D01*
X168978553Y-94762499D01*
X169018186Y-94802131D01*
X169018187Y-94802133D01*
X169325000Y-95108946D01*
X169671446Y-94762500D01*
X169651555Y-94742609D01*
X169925000Y-94742609D01*
X169925000Y-94782391D01*
X169940224Y-94819145D01*
X169968355Y-94847276D01*
X170005109Y-94862500D01*
X170044891Y-94862500D01*
X170081645Y-94847276D01*
X170109776Y-94819145D01*
X170125000Y-94782391D01*
X170125000Y-94762499D01*
X170378553Y-94762499D01*
X170418186Y-94802131D01*
X170418187Y-94802133D01*
X170725000Y-95108946D01*
X171071446Y-94762500D01*
X171071446Y-94762499D01*
X170725000Y-94416053D01*
X170660534Y-94480520D01*
X170660533Y-94480520D01*
X170378553Y-94762499D01*
X170125000Y-94762499D01*
X170125000Y-94742609D01*
X170109776Y-94705855D01*
X170081645Y-94677724D01*
X170044891Y-94662500D01*
X170005109Y-94662500D01*
X169968355Y-94677724D01*
X169940224Y-94705855D01*
X169925000Y-94742609D01*
X169651555Y-94742609D01*
X169389466Y-94480520D01*
X169325000Y-94416053D01*
X169260534Y-94480520D01*
X169260533Y-94480520D01*
X168978553Y-94762499D01*
X168725000Y-94762499D01*
X168725000Y-94742609D01*
X168709776Y-94705855D01*
X168681645Y-94677724D01*
X168644891Y-94662500D01*
X168605109Y-94662500D01*
X168568355Y-94677724D01*
X168540224Y-94705855D01*
X168525000Y-94742609D01*
X168251555Y-94742609D01*
X167924999Y-94416053D01*
X167924998Y-94416053D01*
X167578553Y-94762499D01*
X146323030Y-94762499D01*
X146325565Y-94740003D01*
X146325565Y-94739996D01*
X146305369Y-94560750D01*
X146305368Y-94560745D01*
X146299661Y-94544435D01*
X146245789Y-94390478D01*
X146232114Y-94368715D01*
X146196643Y-94312262D01*
X146149816Y-94237738D01*
X146022262Y-94110184D01*
X145946377Y-94062502D01*
X145869523Y-94014211D01*
X145699254Y-93954631D01*
X145699249Y-93954630D01*
X145520004Y-93934435D01*
X145519996Y-93934435D01*
X145340750Y-93954630D01*
X145340745Y-93954631D01*
X145170476Y-94014211D01*
X145017737Y-94110184D01*
X144890184Y-94237737D01*
X144794211Y-94390476D01*
X144734631Y-94560745D01*
X144734630Y-94560750D01*
X144714435Y-94739996D01*
X144714435Y-94740003D01*
X144734630Y-94919249D01*
X144734632Y-94919257D01*
X144769051Y-95017621D01*
X144772612Y-95087400D01*
X144738244Y-95147395D01*
X144806184Y-95153650D01*
X144861252Y-95196654D01*
X144865484Y-95202952D01*
X144890184Y-95242262D01*
X145018514Y-95370592D01*
X145051999Y-95431915D01*
X145047015Y-95501607D01*
X145035827Y-95524244D01*
X144994212Y-95590474D01*
X144934631Y-95760745D01*
X144934630Y-95760750D01*
X144914435Y-95939996D01*
X144914435Y-95940003D01*
X144934630Y-96119249D01*
X144934631Y-96119254D01*
X144994211Y-96289523D01*
X145090184Y-96442262D01*
X145182869Y-96534947D01*
X145216354Y-96596270D01*
X145211370Y-96665962D01*
X145169498Y-96721895D01*
X145104034Y-96746312D01*
X145081305Y-96745848D01*
X144980004Y-96734435D01*
X144979996Y-96734435D01*
X144821696Y-96752270D01*
X144752874Y-96740215D01*
X144701495Y-96692866D01*
X144684593Y-96642936D01*
X144677868Y-96583245D01*
X144618289Y-96412978D01*
X144522316Y-96260238D01*
X144522315Y-96260237D01*
X144517975Y-96254795D01*
X144519701Y-96253418D01*
X144491274Y-96201358D01*
X144496258Y-96131666D01*
X144519109Y-96096109D01*
X144517975Y-96095205D01*
X144522311Y-96089766D01*
X144522316Y-96089762D01*
X144618289Y-95937022D01*
X144677868Y-95766755D01*
X144678545Y-95760745D01*
X144698065Y-95587503D01*
X144698065Y-95587496D01*
X144677869Y-95408250D01*
X144677866Y-95408237D01*
X144643449Y-95309879D01*
X144639887Y-95240100D01*
X144674253Y-95180103D01*
X144606314Y-95173848D01*
X144551246Y-95130845D01*
X144547022Y-95124558D01*
X144522316Y-95085238D01*
X144394762Y-94957684D01*
X144333601Y-94919254D01*
X144242023Y-94861711D01*
X144071754Y-94802131D01*
X144071749Y-94802130D01*
X143892504Y-94781935D01*
X143892496Y-94781935D01*
X143713250Y-94802130D01*
X143713245Y-94802131D01*
X143542976Y-94861711D01*
X143390237Y-94957684D01*
X143262684Y-95085237D01*
X143166711Y-95237976D01*
X143107131Y-95408245D01*
X143107130Y-95408250D01*
X143086935Y-95587496D01*
X135966732Y-95587496D01*
X133827590Y-93448355D01*
X133827588Y-93448352D01*
X133708717Y-93329481D01*
X133708709Y-93329475D01*
X133606936Y-93270717D01*
X133606934Y-93270716D01*
X133571790Y-93250425D01*
X133571789Y-93250424D01*
X133552035Y-93245131D01*
X133419057Y-93209499D01*
X133260943Y-93209499D01*
X133253347Y-93209499D01*
X133253331Y-93209500D01*
X128092412Y-93209500D01*
X128025373Y-93189815D01*
X128015097Y-93182445D01*
X128012263Y-93180185D01*
X128012262Y-93180184D01*
X127904544Y-93112500D01*
X127859523Y-93084211D01*
X127689254Y-93024631D01*
X127689249Y-93024630D01*
X127510004Y-93004435D01*
X127509996Y-93004435D01*
X127330750Y-93024630D01*
X127330745Y-93024631D01*
X127160476Y-93084211D01*
X127007737Y-93180184D01*
X126880184Y-93307737D01*
X126784211Y-93460476D01*
X126724631Y-93630745D01*
X126724630Y-93630750D01*
X126704435Y-93809996D01*
X126704435Y-93810003D01*
X126724630Y-93989249D01*
X126724631Y-93989254D01*
X126784211Y-94159523D01*
X126844559Y-94255565D01*
X126880184Y-94312262D01*
X127007738Y-94439816D01*
X127160478Y-94535789D01*
X127330745Y-94595368D01*
X127330750Y-94595369D01*
X127509996Y-94615565D01*
X127510000Y-94615565D01*
X127510004Y-94615565D01*
X127689249Y-94595369D01*
X127689252Y-94595368D01*
X127689255Y-94595368D01*
X127859522Y-94535789D01*
X128012262Y-94439816D01*
X128012267Y-94439810D01*
X128015097Y-94437555D01*
X128017275Y-94436665D01*
X128018158Y-94436111D01*
X128018255Y-94436265D01*
X128079783Y-94411145D01*
X128092412Y-94410500D01*
X130710902Y-94410500D01*
X130777941Y-94430185D01*
X130823696Y-94482989D01*
X130833640Y-94552147D01*
X130804615Y-94615703D01*
X130798583Y-94622181D01*
X130739481Y-94681282D01*
X130739480Y-94681284D01*
X130707137Y-94737304D01*
X130660423Y-94818215D01*
X130619499Y-94970943D01*
X130619499Y-94970945D01*
X130619499Y-95139046D01*
X130619500Y-95139059D01*
X130619500Y-96853330D01*
X130619499Y-96853348D01*
X130619499Y-97019054D01*
X130619498Y-97019054D01*
X130651025Y-97136711D01*
X130660423Y-97171785D01*
X130678019Y-97202262D01*
X130687209Y-97218178D01*
X130687210Y-97218182D01*
X130687211Y-97218182D01*
X130717402Y-97270476D01*
X130739479Y-97308714D01*
X130739481Y-97308717D01*
X130858349Y-97427585D01*
X130858355Y-97427590D01*
X131363181Y-97932416D01*
X131396666Y-97993739D01*
X131399500Y-98020097D01*
X131399500Y-98705427D01*
X131379815Y-98772466D01*
X131327011Y-98818221D01*
X131257853Y-98828165D01*
X131234546Y-98822469D01*
X131069257Y-98764632D01*
X131069249Y-98764630D01*
X130890004Y-98744435D01*
X130889996Y-98744435D01*
X130710750Y-98764630D01*
X130710745Y-98764631D01*
X130540476Y-98824211D01*
X130387736Y-98920185D01*
X130384903Y-98922445D01*
X130382724Y-98923334D01*
X130381842Y-98923889D01*
X130381744Y-98923734D01*
X130320217Y-98948855D01*
X130307588Y-98949500D01*
X126420097Y-98949500D01*
X126353058Y-98929815D01*
X126332416Y-98913181D01*
X121206819Y-93787584D01*
X121173334Y-93726261D01*
X121170500Y-93699903D01*
X121170500Y-92840945D01*
X121170500Y-92840943D01*
X121139222Y-92724211D01*
X121129577Y-92688215D01*
X121089143Y-92618182D01*
X121069831Y-92584733D01*
X121050521Y-92551285D01*
X120934385Y-92435149D01*
X120934374Y-92435139D01*
X120474235Y-91975000D01*
X150479659Y-91975000D01*
X150498975Y-92171129D01*
X150556188Y-92359733D01*
X150649086Y-92533532D01*
X150649090Y-92533539D01*
X150774116Y-92685883D01*
X150926460Y-92810909D01*
X150926467Y-92810913D01*
X151100266Y-92903811D01*
X151100269Y-92903811D01*
X151100273Y-92903814D01*
X151288868Y-92961024D01*
X151485000Y-92980341D01*
X151681132Y-92961024D01*
X151869727Y-92903814D01*
X152043538Y-92810910D01*
X152043544Y-92810904D01*
X152048607Y-92807523D01*
X152049703Y-92809164D01*
X152105639Y-92785405D01*
X152174507Y-92797194D01*
X152191148Y-92807888D01*
X152191393Y-92807523D01*
X152196458Y-92810907D01*
X152196462Y-92810910D01*
X152322532Y-92878296D01*
X152368147Y-92902678D01*
X152370273Y-92903814D01*
X152558868Y-92961024D01*
X152755000Y-92980341D01*
X152951132Y-92961024D01*
X153139727Y-92903814D01*
X153141853Y-92902677D01*
X153143095Y-92902418D01*
X153145355Y-92901483D01*
X153145532Y-92901911D01*
X153210254Y-92888435D01*
X153274615Y-92912767D01*
X153282669Y-92918796D01*
X153282672Y-92918797D01*
X153417517Y-92969091D01*
X153417516Y-92969091D01*
X153424444Y-92969835D01*
X153477127Y-92975500D01*
X154572872Y-92975499D01*
X154632483Y-92969091D01*
X154767331Y-92918796D01*
X154882546Y-92832546D01*
X154925628Y-92774996D01*
X156969435Y-92774996D01*
X156969435Y-92775003D01*
X156989631Y-92954252D01*
X157030673Y-93071546D01*
X157034234Y-93141325D01*
X157030673Y-93153454D01*
X156989631Y-93270747D01*
X156969435Y-93449996D01*
X156969435Y-93450003D01*
X156989630Y-93629249D01*
X156989631Y-93629254D01*
X157049211Y-93799523D01*
X157145184Y-93952262D01*
X157272738Y-94079816D01*
X157330409Y-94116053D01*
X157404328Y-94162500D01*
X157425478Y-94175789D01*
X157585505Y-94231785D01*
X157595745Y-94235368D01*
X157595750Y-94235369D01*
X157774996Y-94255565D01*
X157775000Y-94255565D01*
X157775004Y-94255565D01*
X157954249Y-94235369D01*
X157954252Y-94235368D01*
X157954255Y-94235368D01*
X158124522Y-94175789D01*
X158277262Y-94079816D01*
X158294581Y-94062497D01*
X167119938Y-94062497D01*
X167119938Y-94062502D01*
X167140121Y-94241638D01*
X167199665Y-94411804D01*
X167208338Y-94425607D01*
X167571446Y-94062500D01*
X167571446Y-94062499D01*
X167551556Y-94042609D01*
X167825000Y-94042609D01*
X167825000Y-94082391D01*
X167840224Y-94119145D01*
X167868355Y-94147276D01*
X167905109Y-94162500D01*
X167944891Y-94162500D01*
X167981645Y-94147276D01*
X168009776Y-94119145D01*
X168025000Y-94082391D01*
X168025000Y-94062500D01*
X168278553Y-94062500D01*
X168326238Y-94110184D01*
X168625000Y-94408946D01*
X168971446Y-94062500D01*
X168951555Y-94042609D01*
X169225000Y-94042609D01*
X169225000Y-94082391D01*
X169240224Y-94119145D01*
X169268355Y-94147276D01*
X169305109Y-94162500D01*
X169344891Y-94162500D01*
X169381645Y-94147276D01*
X169409776Y-94119145D01*
X169425000Y-94082391D01*
X169425000Y-94062500D01*
X169678553Y-94062500D01*
X169726238Y-94110184D01*
X170025000Y-94408946D01*
X170371446Y-94062500D01*
X170351555Y-94042609D01*
X170625000Y-94042609D01*
X170625000Y-94082391D01*
X170640224Y-94119145D01*
X170668355Y-94147276D01*
X170705109Y-94162500D01*
X170744891Y-94162500D01*
X170781645Y-94147276D01*
X170809776Y-94119145D01*
X170825000Y-94082391D01*
X170825000Y-94062500D01*
X171078553Y-94062500D01*
X171441660Y-94425606D01*
X171441661Y-94425606D01*
X171450334Y-94411806D01*
X171450334Y-94411805D01*
X171509877Y-94241641D01*
X171509878Y-94241638D01*
X171530062Y-94062502D01*
X171530062Y-94062497D01*
X171509878Y-93883361D01*
X171450333Y-93713192D01*
X171441661Y-93699392D01*
X171441660Y-93699392D01*
X171078553Y-94062500D01*
X170825000Y-94062500D01*
X170825000Y-94042609D01*
X170809776Y-94005855D01*
X170781645Y-93977724D01*
X170744891Y-93962500D01*
X170705109Y-93962500D01*
X170668355Y-93977724D01*
X170640224Y-94005855D01*
X170625000Y-94042609D01*
X170351555Y-94042609D01*
X170060209Y-93751263D01*
X170025000Y-93716053D01*
X169989791Y-93751263D01*
X169989789Y-93751265D01*
X169678553Y-94062500D01*
X169425000Y-94062500D01*
X169425000Y-94042609D01*
X169409776Y-94005855D01*
X169381645Y-93977724D01*
X169344891Y-93962500D01*
X169305109Y-93962500D01*
X169268355Y-93977724D01*
X169240224Y-94005855D01*
X169225000Y-94042609D01*
X168951555Y-94042609D01*
X168660209Y-93751263D01*
X168625000Y-93716053D01*
X168589791Y-93751263D01*
X168589789Y-93751265D01*
X168278553Y-94062500D01*
X168025000Y-94062500D01*
X168025000Y-94042609D01*
X168009776Y-94005855D01*
X167981645Y-93977724D01*
X167944891Y-93962500D01*
X167905109Y-93962500D01*
X167868355Y-93977724D01*
X167840224Y-94005855D01*
X167825000Y-94042609D01*
X167551556Y-94042609D01*
X167208338Y-93699391D01*
X167208337Y-93699391D01*
X167199667Y-93713191D01*
X167199662Y-93713201D01*
X167140122Y-93883358D01*
X167140121Y-93883361D01*
X167119938Y-94062497D01*
X158294581Y-94062497D01*
X158404816Y-93952262D01*
X158500789Y-93799522D01*
X158560368Y-93629255D01*
X158563492Y-93601532D01*
X158580565Y-93450003D01*
X158580565Y-93449996D01*
X158568829Y-93345837D01*
X167561891Y-93345837D01*
X167561891Y-93345838D01*
X167924998Y-93708946D01*
X168225000Y-93408946D01*
X168271446Y-93362498D01*
X168251557Y-93342609D01*
X168525000Y-93342609D01*
X168525000Y-93382391D01*
X168540224Y-93419145D01*
X168568355Y-93447276D01*
X168605109Y-93462500D01*
X168644891Y-93462500D01*
X168681645Y-93447276D01*
X168709776Y-93419145D01*
X168725000Y-93382391D01*
X168725000Y-93362498D01*
X168978553Y-93362498D01*
X168978553Y-93362499D01*
X169325000Y-93708946D01*
X169624998Y-93408948D01*
X169671446Y-93362498D01*
X169651557Y-93342609D01*
X169925000Y-93342609D01*
X169925000Y-93382391D01*
X169940224Y-93419145D01*
X169968355Y-93447276D01*
X170005109Y-93462500D01*
X170044891Y-93462500D01*
X170081645Y-93447276D01*
X170109776Y-93419145D01*
X170125000Y-93382391D01*
X170125000Y-93362498D01*
X170378553Y-93362498D01*
X170378553Y-93362499D01*
X170725000Y-93708946D01*
X170725001Y-93708946D01*
X171088107Y-93345838D01*
X171074301Y-93337163D01*
X170904142Y-93277621D01*
X170903346Y-93277440D01*
X170902883Y-93277181D01*
X170897570Y-93275322D01*
X170897895Y-93274390D01*
X170842370Y-93243327D01*
X170813049Y-93189625D01*
X170812177Y-93189931D01*
X170810321Y-93184628D01*
X170810057Y-93184144D01*
X170809878Y-93183362D01*
X170750333Y-93013192D01*
X170741661Y-92999392D01*
X170741660Y-92999392D01*
X170378553Y-93362498D01*
X170125000Y-93362498D01*
X170125000Y-93342609D01*
X170109776Y-93305855D01*
X170081645Y-93277724D01*
X170044891Y-93262500D01*
X170005109Y-93262500D01*
X169968355Y-93277724D01*
X169940224Y-93305855D01*
X169925000Y-93342609D01*
X169651557Y-93342609D01*
X169325001Y-93016053D01*
X169325000Y-93016053D01*
X168978553Y-93362498D01*
X168725000Y-93362498D01*
X168725000Y-93342609D01*
X168709776Y-93305855D01*
X168681645Y-93277724D01*
X168644891Y-93262500D01*
X168605109Y-93262500D01*
X168568355Y-93277724D01*
X168540224Y-93305855D01*
X168525000Y-93342609D01*
X168251557Y-93342609D01*
X167908338Y-92999391D01*
X167908337Y-92999391D01*
X167899667Y-93013191D01*
X167899662Y-93013201D01*
X167840119Y-93183366D01*
X167839939Y-93184156D01*
X167839682Y-93184613D01*
X167837823Y-93189929D01*
X167836891Y-93189603D01*
X167805824Y-93245131D01*
X167752124Y-93274452D01*
X167752429Y-93275323D01*
X167747145Y-93277171D01*
X167746656Y-93277439D01*
X167745866Y-93277619D01*
X167575701Y-93337162D01*
X167575691Y-93337167D01*
X167561891Y-93345837D01*
X158568829Y-93345837D01*
X158560369Y-93270750D01*
X158560368Y-93270747D01*
X158560368Y-93270745D01*
X158519324Y-93153451D01*
X158515762Y-93083677D01*
X158519318Y-93071567D01*
X158560368Y-92954255D01*
X158564363Y-92918797D01*
X158580565Y-92775003D01*
X158580565Y-92774996D01*
X158566012Y-92645837D01*
X168261891Y-92645837D01*
X168261891Y-92645838D01*
X168625000Y-93008946D01*
X168625001Y-93008946D01*
X168988107Y-92645838D01*
X168988105Y-92645837D01*
X169661891Y-92645837D01*
X169661891Y-92645838D01*
X170025000Y-93008946D01*
X170025001Y-93008946D01*
X170388107Y-92645838D01*
X170374304Y-92637165D01*
X170204138Y-92577621D01*
X170025003Y-92557438D01*
X170024997Y-92557438D01*
X169845861Y-92577621D01*
X169845858Y-92577622D01*
X169675701Y-92637162D01*
X169675691Y-92637167D01*
X169661891Y-92645837D01*
X168988105Y-92645837D01*
X168974304Y-92637165D01*
X168804138Y-92577621D01*
X168625003Y-92557438D01*
X168624997Y-92557438D01*
X168445861Y-92577621D01*
X168445858Y-92577622D01*
X168275701Y-92637162D01*
X168275691Y-92637167D01*
X168261891Y-92645837D01*
X158566012Y-92645837D01*
X158560369Y-92595750D01*
X158560368Y-92595745D01*
X158520897Y-92482944D01*
X158500789Y-92425478D01*
X158404816Y-92272738D01*
X158277262Y-92145184D01*
X158124523Y-92049211D01*
X157954254Y-91989631D01*
X157954249Y-91989630D01*
X157775004Y-91969435D01*
X157774996Y-91969435D01*
X157595750Y-91989630D01*
X157595745Y-91989631D01*
X157425476Y-92049211D01*
X157272737Y-92145184D01*
X157145184Y-92272737D01*
X157049211Y-92425476D01*
X156989631Y-92595745D01*
X156989630Y-92595750D01*
X156969435Y-92774996D01*
X154925628Y-92774996D01*
X154968796Y-92717331D01*
X155019091Y-92582483D01*
X155025500Y-92522873D01*
X155025499Y-91427128D01*
X155019091Y-91367517D01*
X155014633Y-91355565D01*
X154968797Y-91232671D01*
X154968793Y-91232664D01*
X154882547Y-91117455D01*
X154882544Y-91117452D01*
X154767335Y-91031206D01*
X154767328Y-91031202D01*
X154632482Y-90980908D01*
X154632483Y-90980908D01*
X154572883Y-90974501D01*
X154572881Y-90974500D01*
X154572873Y-90974500D01*
X154572864Y-90974500D01*
X153477129Y-90974500D01*
X153477123Y-90974501D01*
X153417516Y-90980908D01*
X153282671Y-91031202D01*
X153282666Y-91031205D01*
X153274614Y-91037233D01*
X153209149Y-91061648D01*
X153145530Y-91048104D01*
X153145359Y-91048518D01*
X153143123Y-91047592D01*
X153141850Y-91047321D01*
X153139729Y-91046187D01*
X153139728Y-91046186D01*
X153139727Y-91046186D01*
X152951132Y-90988976D01*
X152951129Y-90988975D01*
X152755000Y-90969659D01*
X152558870Y-90988975D01*
X152370266Y-91046188D01*
X152196467Y-91139086D01*
X152191399Y-91142473D01*
X152190305Y-91140836D01*
X152134337Y-91164596D01*
X152065471Y-91152795D01*
X152048843Y-91142109D01*
X152048601Y-91142473D01*
X152043532Y-91139086D01*
X151869733Y-91046188D01*
X151869727Y-91046186D01*
X151681132Y-90988976D01*
X151681129Y-90988975D01*
X151485000Y-90969659D01*
X151288870Y-90988975D01*
X151100266Y-91046188D01*
X150926467Y-91139086D01*
X150926460Y-91139090D01*
X150774116Y-91264116D01*
X150649090Y-91416460D01*
X150649086Y-91416467D01*
X150556188Y-91590266D01*
X150498975Y-91778870D01*
X150479659Y-91975000D01*
X120474235Y-91975000D01*
X119646819Y-91147584D01*
X119613334Y-91086261D01*
X119610500Y-91059903D01*
X119610500Y-90730945D01*
X119610500Y-90730943D01*
X119569577Y-90578216D01*
X119565108Y-90570476D01*
X119553284Y-90549996D01*
X120534435Y-90549996D01*
X120534435Y-90550003D01*
X120554630Y-90729249D01*
X120554631Y-90729254D01*
X120614211Y-90899523D01*
X120691430Y-91022416D01*
X120710184Y-91052262D01*
X120837738Y-91179816D01*
X120872791Y-91201841D01*
X120986564Y-91273330D01*
X120990478Y-91275789D01*
X121160745Y-91335368D01*
X121160750Y-91335369D01*
X121339996Y-91355565D01*
X121340000Y-91355565D01*
X121340004Y-91355565D01*
X121519249Y-91335369D01*
X121519252Y-91335368D01*
X121519255Y-91335368D01*
X121689522Y-91275789D01*
X121842262Y-91179816D01*
X121969816Y-91052262D01*
X122052924Y-90919996D01*
X139769435Y-90919996D01*
X139769435Y-90920003D01*
X139789630Y-91099249D01*
X139789631Y-91099254D01*
X139849211Y-91269523D01*
X139890585Y-91335369D01*
X139945184Y-91422262D01*
X140072738Y-91549816D01*
X140137114Y-91590266D01*
X140219288Y-91641900D01*
X140225478Y-91645789D01*
X140350640Y-91689585D01*
X140395745Y-91705368D01*
X140395750Y-91705369D01*
X140574996Y-91725565D01*
X140575000Y-91725565D01*
X140575004Y-91725565D01*
X140754249Y-91705369D01*
X140754252Y-91705368D01*
X140754255Y-91705368D01*
X140924522Y-91645789D01*
X141077262Y-91549816D01*
X141204816Y-91422262D01*
X141300789Y-91269522D01*
X141360368Y-91099255D01*
X141362028Y-91084521D01*
X141380565Y-90920003D01*
X141380565Y-90919996D01*
X141919435Y-90919996D01*
X141919435Y-90920003D01*
X141939630Y-91099249D01*
X141939631Y-91099254D01*
X141999211Y-91269523D01*
X142040585Y-91335369D01*
X142095184Y-91422262D01*
X142222738Y-91549816D01*
X142287114Y-91590266D01*
X142369288Y-91641900D01*
X142375478Y-91645789D01*
X142500640Y-91689585D01*
X142545745Y-91705368D01*
X142545750Y-91705369D01*
X142724996Y-91725565D01*
X142725000Y-91725565D01*
X142725004Y-91725565D01*
X142904249Y-91705369D01*
X142904252Y-91705368D01*
X142904255Y-91705368D01*
X143074522Y-91645789D01*
X143227262Y-91549816D01*
X143354816Y-91422262D01*
X143450789Y-91269522D01*
X143510368Y-91099255D01*
X143512028Y-91084521D01*
X143530565Y-90920003D01*
X143530565Y-90919996D01*
X143510369Y-90740750D01*
X143510368Y-90740745D01*
X143457357Y-90589249D01*
X143450789Y-90570478D01*
X143354816Y-90417738D01*
X143347074Y-90409996D01*
X156964435Y-90409996D01*
X156964435Y-90410003D01*
X156984630Y-90589249D01*
X156984631Y-90589254D01*
X157044211Y-90759523D01*
X157140184Y-90912262D01*
X157267738Y-91039816D01*
X157354977Y-91094632D01*
X157391299Y-91117455D01*
X157420478Y-91135789D01*
X157502804Y-91164596D01*
X157590745Y-91195368D01*
X157590750Y-91195369D01*
X157769996Y-91215565D01*
X157770000Y-91215565D01*
X157770004Y-91215565D01*
X157949249Y-91195369D01*
X157949252Y-91195368D01*
X157949255Y-91195368D01*
X158119522Y-91135789D01*
X158272262Y-91039816D01*
X158399816Y-90912262D01*
X158495789Y-90759522D01*
X158555368Y-90589255D01*
X158559791Y-90550000D01*
X158575565Y-90410003D01*
X158575565Y-90409996D01*
X158555369Y-90230750D01*
X158555368Y-90230745D01*
X158542584Y-90194211D01*
X158495789Y-90060478D01*
X158399816Y-89907738D01*
X158272262Y-89780184D01*
X158215368Y-89744435D01*
X158119523Y-89684211D01*
X157949254Y-89624631D01*
X157949249Y-89624630D01*
X157770004Y-89604435D01*
X157769996Y-89604435D01*
X157590750Y-89624630D01*
X157590745Y-89624631D01*
X157420476Y-89684211D01*
X157267737Y-89780184D01*
X157140184Y-89907737D01*
X157044211Y-90060476D01*
X156984631Y-90230745D01*
X156984630Y-90230750D01*
X156964435Y-90409996D01*
X143347074Y-90409996D01*
X143227262Y-90290184D01*
X143074523Y-90194211D01*
X142904254Y-90134631D01*
X142904249Y-90134630D01*
X142725004Y-90114435D01*
X142724996Y-90114435D01*
X142545750Y-90134630D01*
X142545745Y-90134631D01*
X142375476Y-90194211D01*
X142222737Y-90290184D01*
X142095184Y-90417737D01*
X141999211Y-90570476D01*
X141939631Y-90740745D01*
X141939630Y-90740750D01*
X141919435Y-90919996D01*
X141380565Y-90919996D01*
X141360369Y-90740750D01*
X141360368Y-90740745D01*
X141307357Y-90589249D01*
X141300789Y-90570478D01*
X141204816Y-90417738D01*
X141077262Y-90290184D01*
X140924523Y-90194211D01*
X140754254Y-90134631D01*
X140754249Y-90134630D01*
X140575004Y-90114435D01*
X140574996Y-90114435D01*
X140395750Y-90134630D01*
X140395745Y-90134631D01*
X140225476Y-90194211D01*
X140072737Y-90290184D01*
X139945184Y-90417737D01*
X139849211Y-90570476D01*
X139789631Y-90740745D01*
X139789630Y-90740750D01*
X139769435Y-90919996D01*
X122052924Y-90919996D01*
X122065789Y-90899522D01*
X122125368Y-90729255D01*
X122141142Y-90589255D01*
X122145565Y-90550003D01*
X122145565Y-90549996D01*
X122125369Y-90370750D01*
X122125368Y-90370745D01*
X122097178Y-90290184D01*
X122065789Y-90200478D01*
X121969816Y-90047738D01*
X121842262Y-89920184D01*
X121822453Y-89907737D01*
X121689523Y-89824211D01*
X121519254Y-89764631D01*
X121519249Y-89764630D01*
X121340004Y-89744435D01*
X121339996Y-89744435D01*
X121160750Y-89764630D01*
X121160745Y-89764631D01*
X120990476Y-89824211D01*
X120837737Y-89920184D01*
X120710184Y-90047737D01*
X120614211Y-90200476D01*
X120554631Y-90370745D01*
X120554630Y-90370750D01*
X120534435Y-90549996D01*
X119553284Y-90549996D01*
X119490524Y-90441290D01*
X119490521Y-90441286D01*
X119490520Y-90441284D01*
X119378716Y-90329480D01*
X119378715Y-90329479D01*
X119374385Y-90325149D01*
X119374374Y-90325139D01*
X118625813Y-89576578D01*
X118592328Y-89515255D01*
X118597312Y-89445563D01*
X118639184Y-89389630D01*
X118642309Y-89387365D01*
X118676401Y-89363495D01*
X118843495Y-89196401D01*
X118973425Y-89010842D01*
X119028002Y-88967217D01*
X119097500Y-88960023D01*
X119159855Y-88991546D01*
X119176575Y-89010842D01*
X119306500Y-89196395D01*
X119306505Y-89196401D01*
X119473599Y-89363495D01*
X119507625Y-89387320D01*
X119667165Y-89499032D01*
X119667167Y-89499033D01*
X119667170Y-89499035D01*
X119881337Y-89598903D01*
X119881343Y-89598904D01*
X119881344Y-89598905D01*
X119902311Y-89604523D01*
X120109592Y-89660063D01*
X120280319Y-89675000D01*
X120344999Y-89680659D01*
X120345000Y-89680659D01*
X120345001Y-89680659D01*
X120409681Y-89675000D01*
X120580408Y-89660063D01*
X120808663Y-89598903D01*
X121022830Y-89499035D01*
X121216401Y-89363495D01*
X121383495Y-89196401D01*
X121513425Y-89010842D01*
X121568002Y-88967217D01*
X121637500Y-88960023D01*
X121699855Y-88991546D01*
X121716575Y-89010842D01*
X121846500Y-89196395D01*
X121846505Y-89196401D01*
X122013599Y-89363495D01*
X122047625Y-89387320D01*
X122207165Y-89499032D01*
X122207167Y-89499033D01*
X122207170Y-89499035D01*
X122421337Y-89598903D01*
X122421343Y-89598904D01*
X122421344Y-89598905D01*
X122442311Y-89604523D01*
X122649592Y-89660063D01*
X122820319Y-89675000D01*
X122884999Y-89680659D01*
X122885000Y-89680659D01*
X122885001Y-89680659D01*
X122949681Y-89675000D01*
X123120408Y-89660063D01*
X123348663Y-89598903D01*
X123562830Y-89499035D01*
X123756401Y-89363495D01*
X123923495Y-89196401D01*
X124053425Y-89010842D01*
X124108002Y-88967217D01*
X124177500Y-88960023D01*
X124239855Y-88991546D01*
X124256575Y-89010842D01*
X124386500Y-89196395D01*
X124386505Y-89196401D01*
X124553599Y-89363495D01*
X124587625Y-89387320D01*
X124747165Y-89499032D01*
X124747167Y-89499033D01*
X124747170Y-89499035D01*
X124961337Y-89598903D01*
X124961343Y-89598904D01*
X124961344Y-89598905D01*
X124982311Y-89604523D01*
X125189592Y-89660063D01*
X125360319Y-89675000D01*
X125424999Y-89680659D01*
X125425000Y-89680659D01*
X125425001Y-89680659D01*
X125489681Y-89675000D01*
X125660408Y-89660063D01*
X125888663Y-89598903D01*
X126102830Y-89499035D01*
X126296401Y-89363495D01*
X126463495Y-89196401D01*
X126593425Y-89010842D01*
X126648002Y-88967217D01*
X126717500Y-88960023D01*
X126779855Y-88991546D01*
X126796575Y-89010842D01*
X126926500Y-89196395D01*
X126926505Y-89196401D01*
X127093599Y-89363495D01*
X127127625Y-89387320D01*
X127287165Y-89499032D01*
X127287167Y-89499033D01*
X127287170Y-89499035D01*
X127501337Y-89598903D01*
X127501343Y-89598904D01*
X127501344Y-89598905D01*
X127522311Y-89604523D01*
X127729592Y-89660063D01*
X127900319Y-89675000D01*
X127964999Y-89680659D01*
X127965000Y-89680659D01*
X127965001Y-89680659D01*
X128029681Y-89675000D01*
X128200408Y-89660063D01*
X128428663Y-89598903D01*
X128642830Y-89499035D01*
X128836401Y-89363495D01*
X129003495Y-89196401D01*
X129133425Y-89010842D01*
X129188002Y-88967217D01*
X129257500Y-88960023D01*
X129319855Y-88991546D01*
X129336575Y-89010842D01*
X129466500Y-89196395D01*
X129466505Y-89196401D01*
X129633599Y-89363495D01*
X129667625Y-89387320D01*
X129827165Y-89499032D01*
X129827167Y-89499033D01*
X129827170Y-89499035D01*
X130041337Y-89598903D01*
X130041343Y-89598904D01*
X130041344Y-89598905D01*
X130062311Y-89604523D01*
X130269592Y-89660063D01*
X130440319Y-89675000D01*
X130504999Y-89680659D01*
X130505000Y-89680659D01*
X130505001Y-89680659D01*
X130569681Y-89675000D01*
X130740408Y-89660063D01*
X130968663Y-89598903D01*
X131182830Y-89499035D01*
X131376401Y-89363495D01*
X131543495Y-89196401D01*
X131673425Y-89010842D01*
X131728002Y-88967217D01*
X131797500Y-88960023D01*
X131859855Y-88991546D01*
X131876575Y-89010842D01*
X132006500Y-89196395D01*
X132006505Y-89196401D01*
X132173599Y-89363495D01*
X132207625Y-89387320D01*
X132367165Y-89499032D01*
X132367167Y-89499033D01*
X132367170Y-89499035D01*
X132581337Y-89598903D01*
X132581343Y-89598904D01*
X132581344Y-89598905D01*
X132602311Y-89604523D01*
X132809592Y-89660063D01*
X132980319Y-89675000D01*
X133044999Y-89680659D01*
X133045000Y-89680659D01*
X133045001Y-89680659D01*
X133109681Y-89675000D01*
X133280408Y-89660063D01*
X133508663Y-89598903D01*
X133722830Y-89499035D01*
X133916401Y-89363495D01*
X134083495Y-89196401D01*
X134213425Y-89010842D01*
X134268002Y-88967217D01*
X134337500Y-88960023D01*
X134399855Y-88991546D01*
X134416575Y-89010842D01*
X134546500Y-89196395D01*
X134546505Y-89196401D01*
X134713599Y-89363495D01*
X134747625Y-89387320D01*
X134907165Y-89499032D01*
X134907167Y-89499033D01*
X134907170Y-89499035D01*
X135121337Y-89598903D01*
X135121343Y-89598904D01*
X135121344Y-89598905D01*
X135142311Y-89604523D01*
X135349592Y-89660063D01*
X135520319Y-89675000D01*
X135584999Y-89680659D01*
X135585000Y-89680659D01*
X135585001Y-89680659D01*
X135649681Y-89675000D01*
X135820408Y-89660063D01*
X136048663Y-89598903D01*
X136262830Y-89499035D01*
X136456401Y-89363495D01*
X136623495Y-89196401D01*
X136753425Y-89010842D01*
X136808002Y-88967217D01*
X136877500Y-88960023D01*
X136939855Y-88991546D01*
X136956575Y-89010842D01*
X137086500Y-89196395D01*
X137086505Y-89196401D01*
X137253599Y-89363495D01*
X137287625Y-89387320D01*
X137447165Y-89499032D01*
X137447167Y-89499033D01*
X137447170Y-89499035D01*
X137661337Y-89598903D01*
X137661343Y-89598904D01*
X137661344Y-89598905D01*
X137682311Y-89604523D01*
X137889592Y-89660063D01*
X138060319Y-89675000D01*
X138124999Y-89680659D01*
X138125000Y-89680659D01*
X138125001Y-89680659D01*
X138189681Y-89675000D01*
X138360408Y-89660063D01*
X138588663Y-89598903D01*
X138802830Y-89499035D01*
X138996401Y-89363495D01*
X139163495Y-89196401D01*
X139293425Y-89010842D01*
X139348002Y-88967217D01*
X139417500Y-88960023D01*
X139479855Y-88991546D01*
X139496575Y-89010842D01*
X139626500Y-89196395D01*
X139626505Y-89196401D01*
X139793599Y-89363495D01*
X139827625Y-89387320D01*
X139987165Y-89499032D01*
X139987167Y-89499033D01*
X139987170Y-89499035D01*
X140201337Y-89598903D01*
X140201343Y-89598904D01*
X140201344Y-89598905D01*
X140222311Y-89604523D01*
X140429592Y-89660063D01*
X140600319Y-89675000D01*
X140664999Y-89680659D01*
X140665000Y-89680659D01*
X140665001Y-89680659D01*
X140729681Y-89675000D01*
X140900408Y-89660063D01*
X141128663Y-89598903D01*
X141342830Y-89499035D01*
X141536401Y-89363495D01*
X141703495Y-89196401D01*
X141833425Y-89010842D01*
X141888002Y-88967217D01*
X141957500Y-88960023D01*
X142019855Y-88991546D01*
X142036575Y-89010842D01*
X142166500Y-89196395D01*
X142166505Y-89196401D01*
X142333599Y-89363495D01*
X142367625Y-89387320D01*
X142527165Y-89499032D01*
X142527167Y-89499033D01*
X142527170Y-89499035D01*
X142741337Y-89598903D01*
X142741343Y-89598904D01*
X142741344Y-89598905D01*
X142762311Y-89604523D01*
X142969592Y-89660063D01*
X143140319Y-89675000D01*
X143204999Y-89680659D01*
X143205000Y-89680659D01*
X143205001Y-89680659D01*
X143269681Y-89675000D01*
X143440408Y-89660063D01*
X143668663Y-89598903D01*
X143882830Y-89499035D01*
X144076401Y-89363495D01*
X144243495Y-89196401D01*
X144373425Y-89010842D01*
X144428002Y-88967217D01*
X144497500Y-88960023D01*
X144559855Y-88991546D01*
X144576575Y-89010842D01*
X144706500Y-89196395D01*
X144706505Y-89196401D01*
X144873599Y-89363495D01*
X144907625Y-89387320D01*
X145067165Y-89499032D01*
X145067167Y-89499033D01*
X145067170Y-89499035D01*
X145281337Y-89598903D01*
X145281343Y-89598904D01*
X145281344Y-89598905D01*
X145302311Y-89604523D01*
X145509592Y-89660063D01*
X145680319Y-89675000D01*
X145744999Y-89680659D01*
X145745000Y-89680659D01*
X145745001Y-89680659D01*
X145809681Y-89675000D01*
X145980408Y-89660063D01*
X146208663Y-89598903D01*
X146422830Y-89499035D01*
X146616401Y-89363495D01*
X146783495Y-89196401D01*
X146913730Y-89010405D01*
X146968307Y-88966781D01*
X147037805Y-88959587D01*
X147100160Y-88991110D01*
X147116879Y-89010405D01*
X147246890Y-89196078D01*
X147413917Y-89363105D01*
X147607421Y-89498600D01*
X147821507Y-89598429D01*
X147821516Y-89598433D01*
X148035000Y-89655634D01*
X148035000Y-88758012D01*
X148092007Y-88790925D01*
X148219174Y-88825000D01*
X148350826Y-88825000D01*
X148477993Y-88790925D01*
X148535000Y-88758012D01*
X148535000Y-89655633D01*
X148748483Y-89598433D01*
X148748492Y-89598429D01*
X148962578Y-89498600D01*
X149156082Y-89363105D01*
X149323105Y-89196082D01*
X149453119Y-89010405D01*
X149507696Y-88966781D01*
X149577195Y-88959588D01*
X149639549Y-88991110D01*
X149656269Y-89010405D01*
X149786505Y-89196401D01*
X149953599Y-89363495D01*
X149987625Y-89387320D01*
X150147165Y-89499032D01*
X150147167Y-89499033D01*
X150147170Y-89499035D01*
X150361337Y-89598903D01*
X150361343Y-89598904D01*
X150361344Y-89598905D01*
X150382311Y-89604523D01*
X150589592Y-89660063D01*
X150760319Y-89675000D01*
X150824999Y-89680659D01*
X150825000Y-89680659D01*
X150825001Y-89680659D01*
X150889681Y-89675000D01*
X151060408Y-89660063D01*
X151288663Y-89598903D01*
X151502830Y-89499035D01*
X151696401Y-89363495D01*
X151863495Y-89196401D01*
X151993425Y-89010842D01*
X152048002Y-88967217D01*
X152117500Y-88960023D01*
X152179855Y-88991546D01*
X152196575Y-89010842D01*
X152326500Y-89196395D01*
X152326505Y-89196401D01*
X152493599Y-89363495D01*
X152527625Y-89387320D01*
X152687165Y-89499032D01*
X152687167Y-89499033D01*
X152687170Y-89499035D01*
X152901337Y-89598903D01*
X152901343Y-89598904D01*
X152901344Y-89598905D01*
X152922311Y-89604523D01*
X153129592Y-89660063D01*
X153300319Y-89675000D01*
X153364999Y-89680659D01*
X153365000Y-89680659D01*
X153365001Y-89680659D01*
X153429681Y-89675000D01*
X153600408Y-89660063D01*
X153828663Y-89598903D01*
X154042830Y-89499035D01*
X154236401Y-89363495D01*
X154344900Y-89254996D01*
X159729435Y-89254996D01*
X159729435Y-89255003D01*
X159749630Y-89434249D01*
X159749631Y-89434254D01*
X159809211Y-89604523D01*
X159853495Y-89675000D01*
X159905184Y-89757262D01*
X160032738Y-89884816D01*
X160069217Y-89907737D01*
X160174219Y-89973715D01*
X160185478Y-89980789D01*
X160355745Y-90040368D01*
X160355750Y-90040369D01*
X160534996Y-90060565D01*
X160535000Y-90060565D01*
X160535004Y-90060565D01*
X160714249Y-90040369D01*
X160714252Y-90040368D01*
X160714255Y-90040368D01*
X160884522Y-89980789D01*
X161037262Y-89884816D01*
X161082319Y-89839759D01*
X161143642Y-89806274D01*
X161213334Y-89811258D01*
X161257681Y-89839759D01*
X161302738Y-89884816D01*
X161339217Y-89907737D01*
X161444219Y-89973715D01*
X161455478Y-89980789D01*
X161625745Y-90040368D01*
X161625750Y-90040369D01*
X161804996Y-90060565D01*
X161805000Y-90060565D01*
X161805004Y-90060565D01*
X161984249Y-90040369D01*
X161984252Y-90040368D01*
X161984255Y-90040368D01*
X162154522Y-89980789D01*
X162307262Y-89884816D01*
X162352319Y-89839759D01*
X162413642Y-89806274D01*
X162483334Y-89811258D01*
X162527681Y-89839759D01*
X162572738Y-89884816D01*
X162609217Y-89907737D01*
X162714219Y-89973715D01*
X162725478Y-89980789D01*
X162895745Y-90040368D01*
X162895750Y-90040369D01*
X163074996Y-90060565D01*
X163075000Y-90060565D01*
X163075004Y-90060565D01*
X163254249Y-90040369D01*
X163254252Y-90040368D01*
X163254255Y-90040368D01*
X163424522Y-89980789D01*
X163577262Y-89884816D01*
X163622319Y-89839759D01*
X163683642Y-89806274D01*
X163753334Y-89811258D01*
X163797681Y-89839759D01*
X163842738Y-89884816D01*
X163879217Y-89907737D01*
X163984219Y-89973715D01*
X163995478Y-89980789D01*
X164165745Y-90040368D01*
X164165750Y-90040369D01*
X164344996Y-90060565D01*
X164345000Y-90060565D01*
X164345004Y-90060565D01*
X164524249Y-90040369D01*
X164524252Y-90040368D01*
X164524255Y-90040368D01*
X164694522Y-89980789D01*
X164847262Y-89884816D01*
X164892319Y-89839759D01*
X164953642Y-89806274D01*
X165023334Y-89811258D01*
X165067681Y-89839759D01*
X165112738Y-89884816D01*
X165149217Y-89907737D01*
X165254219Y-89973715D01*
X165265478Y-89980789D01*
X165435745Y-90040368D01*
X165435750Y-90040369D01*
X165614996Y-90060565D01*
X165615000Y-90060565D01*
X165615004Y-90060565D01*
X165794249Y-90040369D01*
X165794252Y-90040368D01*
X165794255Y-90040368D01*
X165964522Y-89980789D01*
X166117262Y-89884816D01*
X166162319Y-89839759D01*
X166223642Y-89806274D01*
X166293334Y-89811258D01*
X166337681Y-89839759D01*
X166382738Y-89884816D01*
X166419217Y-89907737D01*
X166524219Y-89973715D01*
X166535478Y-89980789D01*
X166705745Y-90040368D01*
X166705750Y-90040369D01*
X166884996Y-90060565D01*
X166885000Y-90060565D01*
X166885004Y-90060565D01*
X167064249Y-90040369D01*
X167064252Y-90040368D01*
X167064255Y-90040368D01*
X167234522Y-89980789D01*
X167387262Y-89884816D01*
X167432319Y-89839759D01*
X167493642Y-89806274D01*
X167563334Y-89811258D01*
X167607681Y-89839759D01*
X167652738Y-89884816D01*
X167689217Y-89907737D01*
X167794219Y-89973715D01*
X167805478Y-89980789D01*
X167975745Y-90040368D01*
X167975750Y-90040369D01*
X168154996Y-90060565D01*
X168155000Y-90060565D01*
X168155004Y-90060565D01*
X168334249Y-90040369D01*
X168334252Y-90040368D01*
X168334255Y-90040368D01*
X168504522Y-89980789D01*
X168657262Y-89884816D01*
X168702319Y-89839759D01*
X168763642Y-89806274D01*
X168833334Y-89811258D01*
X168877681Y-89839759D01*
X168922738Y-89884816D01*
X168959217Y-89907737D01*
X169064219Y-89973715D01*
X169075478Y-89980789D01*
X169245745Y-90040368D01*
X169245750Y-90040369D01*
X169424996Y-90060565D01*
X169425000Y-90060565D01*
X169425004Y-90060565D01*
X169604249Y-90040369D01*
X169604252Y-90040368D01*
X169604255Y-90040368D01*
X169774522Y-89980789D01*
X169927262Y-89884816D01*
X169972319Y-89839759D01*
X170033642Y-89806274D01*
X170103334Y-89811258D01*
X170147681Y-89839759D01*
X170192738Y-89884816D01*
X170229217Y-89907737D01*
X170334219Y-89973715D01*
X170345478Y-89980789D01*
X170515745Y-90040368D01*
X170515750Y-90040369D01*
X170694996Y-90060565D01*
X170695000Y-90060565D01*
X170695004Y-90060565D01*
X170874249Y-90040369D01*
X170874252Y-90040368D01*
X170874255Y-90040368D01*
X171044522Y-89980789D01*
X171197262Y-89884816D01*
X171242319Y-89839759D01*
X171303642Y-89806274D01*
X171373334Y-89811258D01*
X171417681Y-89839759D01*
X171462738Y-89884816D01*
X171499217Y-89907737D01*
X171604219Y-89973715D01*
X171615478Y-89980789D01*
X171785745Y-90040368D01*
X171785750Y-90040369D01*
X171964996Y-90060565D01*
X171965000Y-90060565D01*
X171965004Y-90060565D01*
X172144249Y-90040369D01*
X172144252Y-90040368D01*
X172144255Y-90040368D01*
X172314522Y-89980789D01*
X172467262Y-89884816D01*
X172512319Y-89839759D01*
X172573642Y-89806274D01*
X172643334Y-89811258D01*
X172687681Y-89839759D01*
X172732738Y-89884816D01*
X172769217Y-89907737D01*
X172874219Y-89973715D01*
X172885478Y-89980789D01*
X173055745Y-90040368D01*
X173055750Y-90040369D01*
X173234996Y-90060565D01*
X173235000Y-90060565D01*
X173235004Y-90060565D01*
X173414249Y-90040369D01*
X173414252Y-90040368D01*
X173414255Y-90040368D01*
X173584522Y-89980789D01*
X173737262Y-89884816D01*
X173782319Y-89839759D01*
X173843642Y-89806274D01*
X173913334Y-89811258D01*
X173957681Y-89839759D01*
X174002738Y-89884816D01*
X174039217Y-89907737D01*
X174144219Y-89973715D01*
X174155478Y-89980789D01*
X174325745Y-90040368D01*
X174325750Y-90040369D01*
X174504996Y-90060565D01*
X174505000Y-90060565D01*
X174505004Y-90060565D01*
X174684249Y-90040369D01*
X174684252Y-90040368D01*
X174684255Y-90040368D01*
X174854522Y-89980789D01*
X175007262Y-89884816D01*
X175052319Y-89839759D01*
X175113642Y-89806274D01*
X175183334Y-89811258D01*
X175227681Y-89839759D01*
X175272738Y-89884816D01*
X175309217Y-89907737D01*
X175414219Y-89973715D01*
X175425478Y-89980789D01*
X175595745Y-90040368D01*
X175595750Y-90040369D01*
X175774996Y-90060565D01*
X175775000Y-90060565D01*
X175775004Y-90060565D01*
X175954249Y-90040369D01*
X175954252Y-90040368D01*
X175954255Y-90040368D01*
X176124522Y-89980789D01*
X176277262Y-89884816D01*
X176404816Y-89757262D01*
X176500789Y-89604522D01*
X176560368Y-89434255D01*
X176562302Y-89417093D01*
X176580565Y-89255003D01*
X176580565Y-89254996D01*
X176560369Y-89075750D01*
X176560368Y-89075745D01*
X176537505Y-89010406D01*
X176500789Y-88905478D01*
X176404816Y-88752738D01*
X176277262Y-88625184D01*
X176174164Y-88560403D01*
X176124523Y-88529211D01*
X175954254Y-88469631D01*
X175954249Y-88469630D01*
X175775004Y-88449435D01*
X175774996Y-88449435D01*
X175595750Y-88469630D01*
X175595745Y-88469631D01*
X175425476Y-88529211D01*
X175272737Y-88625184D01*
X175227680Y-88670241D01*
X175166357Y-88703725D01*
X175096665Y-88698740D01*
X175052320Y-88670241D01*
X175007263Y-88625185D01*
X175007262Y-88625184D01*
X174854523Y-88529211D01*
X174684254Y-88469631D01*
X174684249Y-88469630D01*
X174505004Y-88449435D01*
X174504996Y-88449435D01*
X174325750Y-88469630D01*
X174325745Y-88469631D01*
X174155476Y-88529211D01*
X174002737Y-88625184D01*
X173957680Y-88670241D01*
X173896357Y-88703725D01*
X173826665Y-88698740D01*
X173782320Y-88670241D01*
X173737263Y-88625185D01*
X173737262Y-88625184D01*
X173584523Y-88529211D01*
X173414254Y-88469631D01*
X173414249Y-88469630D01*
X173235004Y-88449435D01*
X173234996Y-88449435D01*
X173055750Y-88469630D01*
X173055745Y-88469631D01*
X172885476Y-88529211D01*
X172732737Y-88625184D01*
X172687680Y-88670241D01*
X172626357Y-88703725D01*
X172556665Y-88698740D01*
X172512320Y-88670241D01*
X172467263Y-88625185D01*
X172467262Y-88625184D01*
X172314523Y-88529211D01*
X172144254Y-88469631D01*
X172144249Y-88469630D01*
X171965004Y-88449435D01*
X171964996Y-88449435D01*
X171785750Y-88469630D01*
X171785745Y-88469631D01*
X171615476Y-88529211D01*
X171462737Y-88625184D01*
X171417680Y-88670241D01*
X171356357Y-88703725D01*
X171286665Y-88698740D01*
X171242320Y-88670241D01*
X171197263Y-88625185D01*
X171197262Y-88625184D01*
X171044523Y-88529211D01*
X170874254Y-88469631D01*
X170874249Y-88469630D01*
X170695004Y-88449435D01*
X170694996Y-88449435D01*
X170515750Y-88469630D01*
X170515745Y-88469631D01*
X170345476Y-88529211D01*
X170192737Y-88625184D01*
X170147680Y-88670241D01*
X170086357Y-88703725D01*
X170016665Y-88698740D01*
X169972320Y-88670241D01*
X169927263Y-88625185D01*
X169927262Y-88625184D01*
X169774523Y-88529211D01*
X169604254Y-88469631D01*
X169604249Y-88469630D01*
X169425004Y-88449435D01*
X169424996Y-88449435D01*
X169245750Y-88469630D01*
X169245745Y-88469631D01*
X169075476Y-88529211D01*
X168922737Y-88625184D01*
X168877680Y-88670241D01*
X168816357Y-88703725D01*
X168746665Y-88698740D01*
X168702320Y-88670241D01*
X168657263Y-88625185D01*
X168657262Y-88625184D01*
X168504523Y-88529211D01*
X168334254Y-88469631D01*
X168334249Y-88469630D01*
X168155004Y-88449435D01*
X168154996Y-88449435D01*
X167975750Y-88469630D01*
X167975745Y-88469631D01*
X167805476Y-88529211D01*
X167652737Y-88625184D01*
X167607680Y-88670241D01*
X167546357Y-88703725D01*
X167476665Y-88698740D01*
X167432320Y-88670241D01*
X167387263Y-88625185D01*
X167387262Y-88625184D01*
X167234523Y-88529211D01*
X167064254Y-88469631D01*
X167064249Y-88469630D01*
X166885004Y-88449435D01*
X166884996Y-88449435D01*
X166705750Y-88469630D01*
X166705745Y-88469631D01*
X166535476Y-88529211D01*
X166382737Y-88625184D01*
X166337680Y-88670241D01*
X166276357Y-88703725D01*
X166206665Y-88698740D01*
X166162320Y-88670241D01*
X166117263Y-88625185D01*
X166117262Y-88625184D01*
X165964523Y-88529211D01*
X165794254Y-88469631D01*
X165794249Y-88469630D01*
X165615004Y-88449435D01*
X165614996Y-88449435D01*
X165435750Y-88469630D01*
X165435745Y-88469631D01*
X165265476Y-88529211D01*
X165112737Y-88625184D01*
X165067680Y-88670241D01*
X165006357Y-88703725D01*
X164936665Y-88698740D01*
X164892320Y-88670241D01*
X164847263Y-88625185D01*
X164847262Y-88625184D01*
X164694523Y-88529211D01*
X164524254Y-88469631D01*
X164524249Y-88469630D01*
X164345004Y-88449435D01*
X164344996Y-88449435D01*
X164165750Y-88469630D01*
X164165745Y-88469631D01*
X163995476Y-88529211D01*
X163842737Y-88625184D01*
X163797680Y-88670241D01*
X163736357Y-88703725D01*
X163666665Y-88698740D01*
X163622320Y-88670241D01*
X163577263Y-88625185D01*
X163577262Y-88625184D01*
X163424523Y-88529211D01*
X163254254Y-88469631D01*
X163254249Y-88469630D01*
X163075004Y-88449435D01*
X163074996Y-88449435D01*
X162895750Y-88469630D01*
X162895745Y-88469631D01*
X162725476Y-88529211D01*
X162572737Y-88625184D01*
X162527680Y-88670241D01*
X162466357Y-88703725D01*
X162396665Y-88698740D01*
X162352320Y-88670241D01*
X162307263Y-88625185D01*
X162307262Y-88625184D01*
X162154523Y-88529211D01*
X161984254Y-88469631D01*
X161984249Y-88469630D01*
X161805004Y-88449435D01*
X161804996Y-88449435D01*
X161625750Y-88469630D01*
X161625745Y-88469631D01*
X161455476Y-88529211D01*
X161302737Y-88625184D01*
X161257680Y-88670241D01*
X161196357Y-88703725D01*
X161126665Y-88698740D01*
X161082320Y-88670241D01*
X161037263Y-88625185D01*
X161037262Y-88625184D01*
X160884523Y-88529211D01*
X160714254Y-88469631D01*
X160714249Y-88469630D01*
X160535004Y-88449435D01*
X160534996Y-88449435D01*
X160355750Y-88469630D01*
X160355745Y-88469631D01*
X160185476Y-88529211D01*
X160032737Y-88625184D01*
X159905184Y-88752737D01*
X159809211Y-88905476D01*
X159749631Y-89075745D01*
X159749630Y-89075750D01*
X159729435Y-89254996D01*
X154344900Y-89254996D01*
X154403495Y-89196401D01*
X154539035Y-89002830D01*
X154638903Y-88788663D01*
X154700063Y-88560408D01*
X154720659Y-88325000D01*
X154700063Y-88089592D01*
X154638903Y-87861337D01*
X154539035Y-87647171D01*
X154533731Y-87639595D01*
X154403494Y-87453597D01*
X154236402Y-87286506D01*
X154236395Y-87286501D01*
X154042834Y-87150967D01*
X154042830Y-87150965D01*
X153971727Y-87117809D01*
X153828663Y-87051097D01*
X153828659Y-87051096D01*
X153828655Y-87051094D01*
X153600413Y-86989938D01*
X153600403Y-86989936D01*
X153365001Y-86969341D01*
X153364999Y-86969341D01*
X153129596Y-86989936D01*
X153129586Y-86989938D01*
X152901344Y-87051094D01*
X152901335Y-87051098D01*
X152687171Y-87150964D01*
X152687169Y-87150965D01*
X152493597Y-87286505D01*
X152326505Y-87453597D01*
X152196575Y-87639158D01*
X152141998Y-87682783D01*
X152072500Y-87689977D01*
X152010145Y-87658454D01*
X151993425Y-87639158D01*
X151863494Y-87453597D01*
X151696402Y-87286506D01*
X151696395Y-87286501D01*
X151502834Y-87150967D01*
X151502830Y-87150965D01*
X151431727Y-87117809D01*
X151288663Y-87051097D01*
X151288659Y-87051096D01*
X151288655Y-87051094D01*
X151060413Y-86989938D01*
X151060403Y-86989936D01*
X150825001Y-86969341D01*
X150824999Y-86969341D01*
X150589596Y-86989936D01*
X150589586Y-86989938D01*
X150361344Y-87051094D01*
X150361335Y-87051098D01*
X150147171Y-87150964D01*
X150147169Y-87150965D01*
X149953597Y-87286505D01*
X149786508Y-87453594D01*
X149656269Y-87639595D01*
X149601692Y-87683219D01*
X149532193Y-87690412D01*
X149469839Y-87658890D01*
X149453119Y-87639594D01*
X149323113Y-87453926D01*
X149323108Y-87453920D01*
X149156082Y-87286894D01*
X148962578Y-87151399D01*
X148748492Y-87051570D01*
X148748486Y-87051567D01*
X148535000Y-86994364D01*
X148535000Y-87891988D01*
X148477993Y-87859075D01*
X148350826Y-87825000D01*
X148219174Y-87825000D01*
X148092007Y-87859075D01*
X148035000Y-87891988D01*
X148035000Y-86994364D01*
X148034999Y-86994364D01*
X147821513Y-87051567D01*
X147821507Y-87051570D01*
X147607422Y-87151399D01*
X147607420Y-87151400D01*
X147413926Y-87286886D01*
X147413920Y-87286891D01*
X147246891Y-87453920D01*
X147246890Y-87453922D01*
X147116880Y-87639595D01*
X147062303Y-87683219D01*
X146992804Y-87690412D01*
X146930450Y-87658890D01*
X146913730Y-87639594D01*
X146783494Y-87453597D01*
X146616402Y-87286506D01*
X146616395Y-87286501D01*
X146422834Y-87150967D01*
X146422830Y-87150965D01*
X146351727Y-87117809D01*
X146208663Y-87051097D01*
X146208659Y-87051096D01*
X146208655Y-87051094D01*
X145980413Y-86989938D01*
X145980403Y-86989936D01*
X145745001Y-86969341D01*
X145744999Y-86969341D01*
X145509596Y-86989936D01*
X145509586Y-86989938D01*
X145281344Y-87051094D01*
X145281335Y-87051098D01*
X145067171Y-87150964D01*
X145067169Y-87150965D01*
X144873597Y-87286505D01*
X144706505Y-87453597D01*
X144576575Y-87639158D01*
X144521998Y-87682783D01*
X144452500Y-87689977D01*
X144390145Y-87658454D01*
X144373425Y-87639158D01*
X144243494Y-87453597D01*
X144076402Y-87286506D01*
X144076395Y-87286501D01*
X143882834Y-87150967D01*
X143882830Y-87150965D01*
X143811727Y-87117809D01*
X143668663Y-87051097D01*
X143668659Y-87051096D01*
X143668655Y-87051094D01*
X143440413Y-86989938D01*
X143440403Y-86989936D01*
X143205001Y-86969341D01*
X143204999Y-86969341D01*
X142969596Y-86989936D01*
X142969586Y-86989938D01*
X142741344Y-87051094D01*
X142741335Y-87051098D01*
X142527171Y-87150964D01*
X142527169Y-87150965D01*
X142333597Y-87286505D01*
X142166505Y-87453597D01*
X142036575Y-87639158D01*
X141981998Y-87682783D01*
X141912500Y-87689977D01*
X141850145Y-87658454D01*
X141833425Y-87639158D01*
X141703494Y-87453597D01*
X141536402Y-87286506D01*
X141536395Y-87286501D01*
X141342834Y-87150967D01*
X141342830Y-87150965D01*
X141271727Y-87117809D01*
X141128663Y-87051097D01*
X141128659Y-87051096D01*
X141128655Y-87051094D01*
X140900413Y-86989938D01*
X140900403Y-86989936D01*
X140665001Y-86969341D01*
X140664999Y-86969341D01*
X140429596Y-86989936D01*
X140429586Y-86989938D01*
X140201344Y-87051094D01*
X140201335Y-87051098D01*
X139987171Y-87150964D01*
X139987169Y-87150965D01*
X139793597Y-87286505D01*
X139626505Y-87453597D01*
X139496575Y-87639158D01*
X139441998Y-87682783D01*
X139372500Y-87689977D01*
X139310145Y-87658454D01*
X139293425Y-87639158D01*
X139163494Y-87453597D01*
X138996402Y-87286506D01*
X138996395Y-87286501D01*
X138802834Y-87150967D01*
X138802830Y-87150965D01*
X138731727Y-87117809D01*
X138588663Y-87051097D01*
X138588659Y-87051096D01*
X138588655Y-87051094D01*
X138360413Y-86989938D01*
X138360403Y-86989936D01*
X138125001Y-86969341D01*
X138124999Y-86969341D01*
X137889596Y-86989936D01*
X137889586Y-86989938D01*
X137661344Y-87051094D01*
X137661335Y-87051098D01*
X137447171Y-87150964D01*
X137447169Y-87150965D01*
X137253597Y-87286505D01*
X137086505Y-87453597D01*
X136956575Y-87639158D01*
X136901998Y-87682783D01*
X136832500Y-87689977D01*
X136770145Y-87658454D01*
X136753425Y-87639158D01*
X136623494Y-87453597D01*
X136456402Y-87286506D01*
X136456395Y-87286501D01*
X136262834Y-87150967D01*
X136262830Y-87150965D01*
X136191727Y-87117809D01*
X136048663Y-87051097D01*
X136048659Y-87051096D01*
X136048655Y-87051094D01*
X135820413Y-86989938D01*
X135820403Y-86989936D01*
X135585001Y-86969341D01*
X135584999Y-86969341D01*
X135349596Y-86989936D01*
X135349586Y-86989938D01*
X135121344Y-87051094D01*
X135121335Y-87051098D01*
X134907171Y-87150964D01*
X134907169Y-87150965D01*
X134713597Y-87286505D01*
X134546505Y-87453597D01*
X134416575Y-87639158D01*
X134361998Y-87682783D01*
X134292500Y-87689977D01*
X134230145Y-87658454D01*
X134213425Y-87639158D01*
X134083494Y-87453597D01*
X133916402Y-87286506D01*
X133916395Y-87286501D01*
X133722834Y-87150967D01*
X133722830Y-87150965D01*
X133651727Y-87117809D01*
X133508663Y-87051097D01*
X133508659Y-87051096D01*
X133508655Y-87051094D01*
X133280413Y-86989938D01*
X133280403Y-86989936D01*
X133045001Y-86969341D01*
X133044999Y-86969341D01*
X132809596Y-86989936D01*
X132809586Y-86989938D01*
X132581344Y-87051094D01*
X132581335Y-87051098D01*
X132367171Y-87150964D01*
X132367169Y-87150965D01*
X132173597Y-87286505D01*
X132006505Y-87453597D01*
X131876575Y-87639158D01*
X131821998Y-87682783D01*
X131752500Y-87689977D01*
X131690145Y-87658454D01*
X131673425Y-87639158D01*
X131543494Y-87453597D01*
X131376402Y-87286506D01*
X131376395Y-87286501D01*
X131182834Y-87150967D01*
X131182830Y-87150965D01*
X131111727Y-87117809D01*
X130968663Y-87051097D01*
X130968659Y-87051096D01*
X130968655Y-87051094D01*
X130740413Y-86989938D01*
X130740403Y-86989936D01*
X130505001Y-86969341D01*
X130504999Y-86969341D01*
X130269596Y-86989936D01*
X130269586Y-86989938D01*
X130041344Y-87051094D01*
X130041335Y-87051098D01*
X129827171Y-87150964D01*
X129827169Y-87150965D01*
X129633597Y-87286505D01*
X129466505Y-87453597D01*
X129336575Y-87639158D01*
X129281998Y-87682783D01*
X129212500Y-87689977D01*
X129150145Y-87658454D01*
X129133425Y-87639158D01*
X129003494Y-87453597D01*
X128836402Y-87286506D01*
X128836395Y-87286501D01*
X128642834Y-87150967D01*
X128642830Y-87150965D01*
X128571727Y-87117809D01*
X128428663Y-87051097D01*
X128428659Y-87051096D01*
X128428655Y-87051094D01*
X128200413Y-86989938D01*
X128200403Y-86989936D01*
X127965001Y-86969341D01*
X127964999Y-86969341D01*
X127729596Y-86989936D01*
X127729586Y-86989938D01*
X127501344Y-87051094D01*
X127501335Y-87051098D01*
X127287171Y-87150964D01*
X127287169Y-87150965D01*
X127093597Y-87286505D01*
X126926505Y-87453597D01*
X126796575Y-87639158D01*
X126741998Y-87682783D01*
X126672500Y-87689977D01*
X126610145Y-87658454D01*
X126593425Y-87639158D01*
X126463494Y-87453597D01*
X126296402Y-87286506D01*
X126296395Y-87286501D01*
X126102834Y-87150967D01*
X126102830Y-87150965D01*
X126031727Y-87117809D01*
X125888663Y-87051097D01*
X125888659Y-87051096D01*
X125888655Y-87051094D01*
X125660413Y-86989938D01*
X125660403Y-86989936D01*
X125425001Y-86969341D01*
X125424999Y-86969341D01*
X125189596Y-86989936D01*
X125189586Y-86989938D01*
X124961344Y-87051094D01*
X124961335Y-87051098D01*
X124747171Y-87150964D01*
X124747169Y-87150965D01*
X124553597Y-87286505D01*
X124386505Y-87453597D01*
X124256575Y-87639158D01*
X124201998Y-87682783D01*
X124132500Y-87689977D01*
X124070145Y-87658454D01*
X124053425Y-87639158D01*
X123923494Y-87453597D01*
X123756402Y-87286506D01*
X123756395Y-87286501D01*
X123562834Y-87150967D01*
X123562830Y-87150965D01*
X123491727Y-87117809D01*
X123348663Y-87051097D01*
X123348659Y-87051096D01*
X123348655Y-87051094D01*
X123120413Y-86989938D01*
X123120403Y-86989936D01*
X122885001Y-86969341D01*
X122884999Y-86969341D01*
X122649596Y-86989936D01*
X122649586Y-86989938D01*
X122421344Y-87051094D01*
X122421335Y-87051098D01*
X122207171Y-87150964D01*
X122207169Y-87150965D01*
X122013597Y-87286505D01*
X121846505Y-87453597D01*
X121716575Y-87639158D01*
X121661998Y-87682783D01*
X121592500Y-87689977D01*
X121530145Y-87658454D01*
X121513425Y-87639158D01*
X121383494Y-87453597D01*
X121216402Y-87286506D01*
X121216395Y-87286501D01*
X121022834Y-87150967D01*
X121022830Y-87150965D01*
X120951727Y-87117809D01*
X120808663Y-87051097D01*
X120808659Y-87051096D01*
X120808655Y-87051094D01*
X120580413Y-86989938D01*
X120580403Y-86989936D01*
X120345001Y-86969341D01*
X120344999Y-86969341D01*
X120109596Y-86989936D01*
X120109586Y-86989938D01*
X119881344Y-87051094D01*
X119881335Y-87051098D01*
X119667171Y-87150964D01*
X119667169Y-87150965D01*
X119473597Y-87286505D01*
X119306505Y-87453597D01*
X119176575Y-87639158D01*
X119121998Y-87682783D01*
X119052500Y-87689977D01*
X118990145Y-87658454D01*
X118973425Y-87639158D01*
X118843494Y-87453597D01*
X118676402Y-87286506D01*
X118676395Y-87286501D01*
X118482834Y-87150967D01*
X118482830Y-87150965D01*
X118411727Y-87117809D01*
X118268663Y-87051097D01*
X118268659Y-87051096D01*
X118268655Y-87051094D01*
X118040413Y-86989938D01*
X118040403Y-86989936D01*
X117805001Y-86969341D01*
X117804999Y-86969341D01*
X117569596Y-86989936D01*
X117569586Y-86989938D01*
X117341344Y-87051094D01*
X117341335Y-87051098D01*
X117127171Y-87150964D01*
X117127169Y-87150965D01*
X116933597Y-87286505D01*
X116766505Y-87453597D01*
X116636575Y-87639158D01*
X116581998Y-87682783D01*
X116512500Y-87689977D01*
X116450145Y-87658454D01*
X116433425Y-87639158D01*
X116303494Y-87453597D01*
X116136402Y-87286506D01*
X116136395Y-87286501D01*
X115942834Y-87150967D01*
X115942830Y-87150965D01*
X115871727Y-87117809D01*
X115728663Y-87051097D01*
X115728659Y-87051096D01*
X115728655Y-87051094D01*
X115500413Y-86989938D01*
X115500403Y-86989936D01*
X115265001Y-86969341D01*
X115264999Y-86969341D01*
X115029596Y-86989936D01*
X115029586Y-86989938D01*
X114801344Y-87051094D01*
X114801335Y-87051098D01*
X114587171Y-87150964D01*
X114587169Y-87150965D01*
X114393600Y-87286503D01*
X114271284Y-87408819D01*
X114209961Y-87442303D01*
X114140269Y-87437319D01*
X114084336Y-87395447D01*
X114067421Y-87364470D01*
X114018354Y-87232913D01*
X114018350Y-87232906D01*
X113932190Y-87117812D01*
X113932187Y-87117809D01*
X113817093Y-87031649D01*
X113817086Y-87031645D01*
X113682379Y-86981403D01*
X113682372Y-86981401D01*
X113622844Y-86975000D01*
X112975000Y-86975000D01*
X112975000Y-87891988D01*
X112917993Y-87859075D01*
X112790826Y-87825000D01*
X112659174Y-87825000D01*
X112532007Y-87859075D01*
X112475000Y-87891988D01*
X112475000Y-86975000D01*
X111827155Y-86975000D01*
X111767627Y-86981401D01*
X111767620Y-86981403D01*
X111632913Y-87031645D01*
X111632906Y-87031649D01*
X111517812Y-87117809D01*
X111517809Y-87117812D01*
X111431649Y-87232906D01*
X111431645Y-87232913D01*
X111381403Y-87367620D01*
X111381401Y-87367627D01*
X111375000Y-87427155D01*
X111375000Y-88075000D01*
X112291988Y-88075000D01*
X112259075Y-88132007D01*
X112225000Y-88259174D01*
X112225000Y-88390826D01*
X112259075Y-88517993D01*
X112291988Y-88575000D01*
X111375000Y-88575000D01*
X111375000Y-89222844D01*
X111381401Y-89282372D01*
X111381403Y-89282379D01*
X111431645Y-89417086D01*
X111431649Y-89417093D01*
X111517809Y-89532187D01*
X111517812Y-89532190D01*
X111632906Y-89618350D01*
X111632913Y-89618354D01*
X111767620Y-89668596D01*
X111767627Y-89668598D01*
X111827155Y-89674999D01*
X111827172Y-89675000D01*
X112475000Y-89675000D01*
X112475000Y-88758012D01*
X112532007Y-88790925D01*
X112659174Y-88825000D01*
X112790826Y-88825000D01*
X112917993Y-88790925D01*
X112975000Y-88758012D01*
X112975000Y-89675000D01*
X113622828Y-89675000D01*
X113622844Y-89674999D01*
X113682372Y-89668598D01*
X113682379Y-89668596D01*
X113817086Y-89618354D01*
X113817093Y-89618350D01*
X113932187Y-89532190D01*
X113932190Y-89532187D01*
X114018350Y-89417093D01*
X114018354Y-89417086D01*
X114067422Y-89285529D01*
X114109293Y-89229595D01*
X114174757Y-89205178D01*
X114243030Y-89220030D01*
X114271285Y-89241181D01*
X114393599Y-89363495D01*
X114427625Y-89387320D01*
X114587165Y-89499032D01*
X114587167Y-89499033D01*
X114587170Y-89499035D01*
X114801337Y-89598903D01*
X114801343Y-89598904D01*
X114801344Y-89598905D01*
X114822311Y-89604523D01*
X115029592Y-89660063D01*
X115200319Y-89675000D01*
X115264999Y-89680659D01*
X115265000Y-89680659D01*
X115265001Y-89680659D01*
X115329681Y-89675000D01*
X115500408Y-89660063D01*
X115728663Y-89598903D01*
X115942830Y-89499035D01*
X116136401Y-89363495D01*
X116303495Y-89196401D01*
X116433425Y-89010842D01*
X116488002Y-88967217D01*
X116557500Y-88960023D01*
X116619855Y-88991546D01*
X116636575Y-89010842D01*
X116766500Y-89196395D01*
X116766505Y-89196401D01*
X116933599Y-89363495D01*
X116967625Y-89387320D01*
X117127165Y-89499032D01*
X117127170Y-89499035D01*
X117132900Y-89501706D01*
X117185340Y-89547876D01*
X117204499Y-89614090D01*
X117204499Y-89684054D01*
X117204498Y-89684054D01*
X117237247Y-89806274D01*
X117245423Y-89836785D01*
X117263270Y-89867696D01*
X117286388Y-89907738D01*
X117324479Y-89973715D01*
X117443349Y-90092585D01*
X117443355Y-90092590D01*
X118373181Y-91022416D01*
X118406666Y-91083739D01*
X118409500Y-91110097D01*
X118409500Y-91273330D01*
X118409499Y-91273348D01*
X118409499Y-91439054D01*
X118409498Y-91439054D01*
X118450423Y-91591785D01*
X118479358Y-91641900D01*
X118479359Y-91641904D01*
X118479360Y-91641904D01*
X118529479Y-91728714D01*
X118529481Y-91728717D01*
X118648349Y-91847585D01*
X118648355Y-91847590D01*
X119933181Y-93132416D01*
X119966666Y-93193739D01*
X119969500Y-93220097D01*
X119969500Y-93913330D01*
X119969499Y-93913348D01*
X119969499Y-94079054D01*
X119969498Y-94079054D01*
X119990796Y-94158537D01*
X120010423Y-94231785D01*
X120024153Y-94255565D01*
X120056887Y-94312262D01*
X120089479Y-94368715D01*
X120208349Y-94487585D01*
X120208355Y-94487590D01*
X125635139Y-99914374D01*
X125635149Y-99914385D01*
X125639479Y-99918715D01*
X125639480Y-99918716D01*
X125751284Y-100030520D01*
X125838095Y-100080639D01*
X125838097Y-100080641D01*
X125888213Y-100109576D01*
X125888215Y-100109577D01*
X126040942Y-100150500D01*
X126040943Y-100150500D01*
X130307588Y-100150500D01*
X130374627Y-100170185D01*
X130384903Y-100177555D01*
X130387736Y-100179814D01*
X130387738Y-100179816D01*
X130540478Y-100275789D01*
X130710745Y-100335368D01*
X130745503Y-100339284D01*
X130809916Y-100366348D01*
X130849473Y-100423942D01*
X130854842Y-100476379D01*
X130854435Y-100479993D01*
X130854435Y-100480003D01*
X130874630Y-100659249D01*
X130874631Y-100659254D01*
X130934211Y-100829523D01*
X131022153Y-100969481D01*
X131030184Y-100982262D01*
X131157738Y-101109816D01*
X131310478Y-101205789D01*
X131480745Y-101265368D01*
X131480750Y-101265369D01*
X131659996Y-101285565D01*
X131660000Y-101285565D01*
X131660004Y-101285565D01*
X131839249Y-101265369D01*
X131839252Y-101265368D01*
X131839255Y-101265368D01*
X132009522Y-101205789D01*
X132162262Y-101109816D01*
X132289816Y-100982262D01*
X132385789Y-100829522D01*
X132445368Y-100659255D01*
X132448006Y-100635846D01*
X132465565Y-100480003D01*
X132465565Y-100479996D01*
X132445369Y-100300750D01*
X132445366Y-100300737D01*
X132383490Y-100123906D01*
X132384723Y-100123474D01*
X132374571Y-100061814D01*
X132402293Y-99997680D01*
X132409946Y-99989289D01*
X132480520Y-99918716D01*
X132559577Y-99781784D01*
X132600501Y-99629057D01*
X132600501Y-99470942D01*
X132600501Y-99463347D01*
X132600500Y-99463329D01*
X132600500Y-97809060D01*
X132600501Y-97809047D01*
X132600501Y-97640944D01*
X132592111Y-97609633D01*
X132587266Y-97591550D01*
X132588929Y-97521702D01*
X132628091Y-97463840D01*
X132692319Y-97436335D01*
X132747995Y-97442416D01*
X132856716Y-97480459D01*
X132913493Y-97521181D01*
X132939240Y-97586134D01*
X132932804Y-97638455D01*
X132917132Y-97683242D01*
X132917130Y-97683250D01*
X132896935Y-97862496D01*
X132896935Y-97862503D01*
X132917130Y-98041749D01*
X132917131Y-98041754D01*
X132976711Y-98212023D01*
X133010494Y-98265788D01*
X133070017Y-98360518D01*
X133072685Y-98364763D01*
X133074945Y-98367597D01*
X133075834Y-98369775D01*
X133076389Y-98370658D01*
X133076234Y-98370755D01*
X133101355Y-98432283D01*
X133102000Y-98444912D01*
X133102000Y-99645830D01*
X133101999Y-99645848D01*
X133101999Y-99811554D01*
X133101998Y-99811554D01*
X133101999Y-99811557D01*
X133138212Y-99946705D01*
X133142924Y-99964287D01*
X133151565Y-99979253D01*
X133151566Y-99979255D01*
X133221977Y-100101212D01*
X133221981Y-100101217D01*
X133340849Y-100220085D01*
X133340855Y-100220090D01*
X134948181Y-101827416D01*
X134981666Y-101888739D01*
X134984500Y-101915097D01*
X134984500Y-102910908D01*
X134964815Y-102977947D01*
X134912914Y-103023286D01*
X134907173Y-103025963D01*
X134907169Y-103025965D01*
X134713597Y-103161505D01*
X134546505Y-103328597D01*
X134416575Y-103514158D01*
X134361998Y-103557783D01*
X134292500Y-103564977D01*
X134230145Y-103533454D01*
X134213425Y-103514158D01*
X134083494Y-103328597D01*
X133916402Y-103161506D01*
X133916395Y-103161501D01*
X133722834Y-103025967D01*
X133722830Y-103025965D01*
X133675040Y-103003680D01*
X133508663Y-102926097D01*
X133508659Y-102926096D01*
X133508655Y-102926094D01*
X133280413Y-102864938D01*
X133280403Y-102864936D01*
X133045001Y-102844341D01*
X133044999Y-102844341D01*
X132809596Y-102864936D01*
X132809586Y-102864938D01*
X132581344Y-102926094D01*
X132581335Y-102926098D01*
X132367171Y-103025964D01*
X132367169Y-103025965D01*
X132173597Y-103161505D01*
X132006508Y-103328594D01*
X131876269Y-103514595D01*
X131821692Y-103558219D01*
X131752193Y-103565412D01*
X131689839Y-103533890D01*
X131673119Y-103514594D01*
X131543113Y-103328926D01*
X131543108Y-103328920D01*
X131376082Y-103161894D01*
X131182578Y-103026399D01*
X130968492Y-102926570D01*
X130968486Y-102926567D01*
X130755000Y-102869364D01*
X130755000Y-103766988D01*
X130697993Y-103734075D01*
X130570826Y-103700000D01*
X130439174Y-103700000D01*
X130312007Y-103734075D01*
X130255000Y-103766988D01*
X130255000Y-102869364D01*
X130254999Y-102869364D01*
X130041513Y-102926567D01*
X130041507Y-102926570D01*
X129827422Y-103026399D01*
X129827420Y-103026400D01*
X129633926Y-103161886D01*
X129633920Y-103161891D01*
X129466891Y-103328920D01*
X129466890Y-103328922D01*
X129336880Y-103514595D01*
X129282303Y-103558219D01*
X129212804Y-103565412D01*
X129150450Y-103533890D01*
X129133730Y-103514594D01*
X129003494Y-103328597D01*
X128836402Y-103161506D01*
X128836395Y-103161501D01*
X128642834Y-103025967D01*
X128642830Y-103025965D01*
X128595040Y-103003680D01*
X128428663Y-102926097D01*
X128428659Y-102926096D01*
X128428655Y-102926094D01*
X128200413Y-102864938D01*
X128200403Y-102864936D01*
X127965001Y-102844341D01*
X127964999Y-102844341D01*
X127729596Y-102864936D01*
X127729586Y-102864938D01*
X127501344Y-102926094D01*
X127501335Y-102926098D01*
X127287171Y-103025964D01*
X127287169Y-103025965D01*
X127093597Y-103161505D01*
X126926505Y-103328597D01*
X126796575Y-103514158D01*
X126741998Y-103557783D01*
X126672500Y-103564977D01*
X126610145Y-103533454D01*
X126593425Y-103514158D01*
X126463494Y-103328597D01*
X126296402Y-103161506D01*
X126296395Y-103161501D01*
X126102834Y-103025967D01*
X126102830Y-103025965D01*
X126055040Y-103003680D01*
X125888663Y-102926097D01*
X125888659Y-102926096D01*
X125888655Y-102926094D01*
X125660413Y-102864938D01*
X125660403Y-102864936D01*
X125425001Y-102844341D01*
X125424999Y-102844341D01*
X125189596Y-102864936D01*
X125189586Y-102864938D01*
X124961344Y-102926094D01*
X124961335Y-102926098D01*
X124747171Y-103025964D01*
X124747169Y-103025965D01*
X124553597Y-103161505D01*
X124386505Y-103328597D01*
X124256575Y-103514158D01*
X124201998Y-103557783D01*
X124132500Y-103564977D01*
X124070145Y-103533454D01*
X124053425Y-103514158D01*
X123923494Y-103328597D01*
X123756402Y-103161506D01*
X123756395Y-103161501D01*
X123562834Y-103025967D01*
X123562830Y-103025965D01*
X123515040Y-103003680D01*
X123348663Y-102926097D01*
X123348659Y-102926096D01*
X123348655Y-102926094D01*
X123120413Y-102864938D01*
X123120403Y-102864936D01*
X122885001Y-102844341D01*
X122884999Y-102844341D01*
X122649596Y-102864936D01*
X122649586Y-102864938D01*
X122421344Y-102926094D01*
X122421335Y-102926098D01*
X122207171Y-103025964D01*
X122207169Y-103025965D01*
X122013597Y-103161505D01*
X121846505Y-103328597D01*
X121716575Y-103514158D01*
X121661998Y-103557783D01*
X121592500Y-103564977D01*
X121530145Y-103533454D01*
X121513425Y-103514158D01*
X121383494Y-103328597D01*
X121216402Y-103161506D01*
X121216395Y-103161501D01*
X121022834Y-103025967D01*
X121022830Y-103025965D01*
X120975040Y-103003680D01*
X120808663Y-102926097D01*
X120808659Y-102926096D01*
X120808655Y-102926094D01*
X120580413Y-102864938D01*
X120580403Y-102864936D01*
X120345001Y-102844341D01*
X120344999Y-102844341D01*
X120109596Y-102864936D01*
X120109586Y-102864938D01*
X119881344Y-102926094D01*
X119881335Y-102926098D01*
X119667171Y-103025964D01*
X119667169Y-103025965D01*
X119473597Y-103161505D01*
X119306505Y-103328597D01*
X119176575Y-103514158D01*
X119121998Y-103557783D01*
X119052500Y-103564977D01*
X118990145Y-103533454D01*
X118973425Y-103514158D01*
X118843494Y-103328597D01*
X118676402Y-103161506D01*
X118676395Y-103161501D01*
X118482834Y-103025967D01*
X118482830Y-103025965D01*
X118435040Y-103003680D01*
X118268663Y-102926097D01*
X118268659Y-102926096D01*
X118268655Y-102926094D01*
X118040413Y-102864938D01*
X118040403Y-102864936D01*
X117805001Y-102844341D01*
X117804999Y-102844341D01*
X117569596Y-102864936D01*
X117569586Y-102864938D01*
X117341344Y-102926094D01*
X117341335Y-102926098D01*
X117127171Y-103025964D01*
X117127169Y-103025965D01*
X116933597Y-103161505D01*
X116766508Y-103328594D01*
X116636269Y-103514595D01*
X116581692Y-103558219D01*
X116512193Y-103565412D01*
X116449839Y-103533890D01*
X116433119Y-103514594D01*
X116303113Y-103328926D01*
X116303108Y-103328920D01*
X116136082Y-103161894D01*
X115942578Y-103026399D01*
X115728492Y-102926570D01*
X115728486Y-102926567D01*
X115515000Y-102869364D01*
X115515000Y-103766988D01*
X115457993Y-103734075D01*
X115330826Y-103700000D01*
X115199174Y-103700000D01*
X115072007Y-103734075D01*
X115015000Y-103766988D01*
X115015000Y-102869364D01*
X115014999Y-102869364D01*
X114801513Y-102926567D01*
X114801507Y-102926570D01*
X114587422Y-103026399D01*
X114587420Y-103026400D01*
X114393926Y-103161886D01*
X114271865Y-103283947D01*
X114210542Y-103317431D01*
X114140850Y-103312447D01*
X114084917Y-103270575D01*
X114068002Y-103239598D01*
X114051662Y-103195789D01*
X114039021Y-103161894D01*
X114018797Y-103107671D01*
X114018793Y-103107664D01*
X113932547Y-102992455D01*
X113932544Y-102992452D01*
X113817335Y-102906206D01*
X113817328Y-102906202D01*
X113682482Y-102855908D01*
X113682483Y-102855908D01*
X113622883Y-102849501D01*
X113622881Y-102849500D01*
X113622873Y-102849500D01*
X113622864Y-102849500D01*
X111827129Y-102849500D01*
X111827123Y-102849501D01*
X111767516Y-102855908D01*
X111632671Y-102906202D01*
X111632664Y-102906206D01*
X111517455Y-102992452D01*
X111517452Y-102992455D01*
X111431206Y-103107664D01*
X111431202Y-103107671D01*
X111380908Y-103242517D01*
X111374501Y-103302116D01*
X111374500Y-103302135D01*
X108600500Y-103302135D01*
X108600500Y-101749996D01*
X111469435Y-101749996D01*
X111469435Y-101750003D01*
X111489630Y-101929249D01*
X111489631Y-101929254D01*
X111549211Y-102099523D01*
X111631193Y-102229996D01*
X111645184Y-102252262D01*
X111772738Y-102379816D01*
X111819590Y-102409255D01*
X111916269Y-102470003D01*
X111925478Y-102475789D01*
X112066641Y-102525184D01*
X112095745Y-102535368D01*
X112095750Y-102535369D01*
X112274996Y-102555565D01*
X112275000Y-102555565D01*
X112275004Y-102555565D01*
X112454249Y-102535369D01*
X112454252Y-102535368D01*
X112454255Y-102535368D01*
X112624522Y-102475789D01*
X112777262Y-102379816D01*
X112904816Y-102252262D01*
X113000789Y-102099522D01*
X113060368Y-101929255D01*
X113060745Y-101925909D01*
X113080565Y-101750003D01*
X113080565Y-101749996D01*
X113060369Y-101570750D01*
X113060368Y-101570745D01*
X113026770Y-101474727D01*
X113000789Y-101400478D01*
X112904816Y-101247738D01*
X112777262Y-101120184D01*
X112729225Y-101090000D01*
X119934659Y-101090000D01*
X119953975Y-101286129D01*
X119953976Y-101286132D01*
X120009273Y-101468422D01*
X120011188Y-101474733D01*
X120104086Y-101648532D01*
X120104090Y-101648539D01*
X120229116Y-101800883D01*
X120381460Y-101925909D01*
X120381467Y-101925913D01*
X120555266Y-102018811D01*
X120555269Y-102018811D01*
X120555273Y-102018814D01*
X120743868Y-102076024D01*
X120940000Y-102095341D01*
X121136132Y-102076024D01*
X121324727Y-102018814D01*
X121342009Y-102009577D01*
X121492280Y-101929255D01*
X121498538Y-101925910D01*
X121650883Y-101800883D01*
X121775910Y-101648538D01*
X121852700Y-101504874D01*
X121868811Y-101474733D01*
X121868811Y-101474732D01*
X121868814Y-101474727D01*
X121926024Y-101286132D01*
X121945341Y-101090000D01*
X121926024Y-100893868D01*
X121868814Y-100705273D01*
X121867677Y-100703146D01*
X121867418Y-100701904D01*
X121866483Y-100699645D01*
X121866911Y-100699467D01*
X121853435Y-100634746D01*
X121877771Y-100570379D01*
X121883796Y-100562331D01*
X121934091Y-100427483D01*
X121940500Y-100367873D01*
X121940499Y-99272128D01*
X121934091Y-99212517D01*
X121928052Y-99196326D01*
X121883797Y-99077671D01*
X121883793Y-99077664D01*
X121797547Y-98962455D01*
X121797544Y-98962452D01*
X121682335Y-98876206D01*
X121682328Y-98876202D01*
X121547482Y-98825908D01*
X121547483Y-98825908D01*
X121487883Y-98819501D01*
X121487881Y-98819500D01*
X121487873Y-98819500D01*
X121487864Y-98819500D01*
X120392129Y-98819500D01*
X120392123Y-98819501D01*
X120332516Y-98825908D01*
X120197671Y-98876202D01*
X120197664Y-98876206D01*
X120082455Y-98962452D01*
X120082452Y-98962455D01*
X119996206Y-99077664D01*
X119996202Y-99077671D01*
X119945908Y-99212517D01*
X119939501Y-99272116D01*
X119939501Y-99272123D01*
X119939500Y-99272135D01*
X119939500Y-100367870D01*
X119939501Y-100367876D01*
X119945908Y-100427483D01*
X119996202Y-100562328D01*
X119996204Y-100562331D01*
X120002231Y-100570382D01*
X120026648Y-100635846D01*
X120013105Y-100699470D01*
X120013518Y-100699641D01*
X120012595Y-100701869D01*
X120012324Y-100703143D01*
X120011188Y-100705267D01*
X119953975Y-100893870D01*
X119934659Y-101090000D01*
X112729225Y-101090000D01*
X112624523Y-101024211D01*
X112454254Y-100964631D01*
X112454249Y-100964630D01*
X112275004Y-100944435D01*
X112274996Y-100944435D01*
X112095750Y-100964630D01*
X112095745Y-100964631D01*
X111925476Y-101024211D01*
X111772737Y-101120184D01*
X111645184Y-101247737D01*
X111549211Y-101400476D01*
X111489631Y-101570745D01*
X111489630Y-101570750D01*
X111469435Y-101749996D01*
X108600500Y-101749996D01*
X108600500Y-99512499D01*
X109075884Y-99512499D01*
X109075885Y-99512500D01*
X109983012Y-99512500D01*
X109965795Y-99522440D01*
X109909940Y-99578295D01*
X109870444Y-99646704D01*
X109850000Y-99723004D01*
X109850000Y-99801996D01*
X109870444Y-99878296D01*
X109909940Y-99946705D01*
X109965795Y-100002560D01*
X109983012Y-100012500D01*
X109075885Y-100012500D01*
X109077085Y-100020084D01*
X109130591Y-100184755D01*
X109209195Y-100339024D01*
X109310967Y-100479102D01*
X109433397Y-100601532D01*
X109573475Y-100703304D01*
X109727742Y-100781908D01*
X109892415Y-100835414D01*
X110063429Y-100862500D01*
X110250000Y-100862500D01*
X110250000Y-100062500D01*
X110750000Y-100062500D01*
X110750000Y-100862500D01*
X110936571Y-100862500D01*
X111107584Y-100835414D01*
X111272257Y-100781908D01*
X111426524Y-100703304D01*
X111566602Y-100601532D01*
X111689032Y-100479102D01*
X111790804Y-100339024D01*
X111869408Y-100184755D01*
X111922914Y-100020084D01*
X111924115Y-100012500D01*
X111016988Y-100012500D01*
X111034205Y-100002560D01*
X111090060Y-99946705D01*
X111129556Y-99878296D01*
X111150000Y-99801996D01*
X111150000Y-99723004D01*
X111129556Y-99646704D01*
X111090060Y-99578295D01*
X111034205Y-99522440D01*
X111016988Y-99512500D01*
X111924115Y-99512500D01*
X111924115Y-99512499D01*
X111922914Y-99504917D01*
X111918286Y-99490673D01*
X111916291Y-99420832D01*
X111952371Y-99360999D01*
X112015071Y-99330170D01*
X112084486Y-99338134D01*
X112137792Y-99381231D01*
X112174825Y-99434120D01*
X112174826Y-99434121D01*
X112778274Y-98830672D01*
X112803963Y-98926544D01*
X112859916Y-99023456D01*
X112939044Y-99102584D01*
X113035956Y-99158537D01*
X113131827Y-99184225D01*
X112528377Y-99787673D01*
X112585161Y-99827433D01*
X112779423Y-99918018D01*
X112779432Y-99918022D01*
X112986462Y-99973495D01*
X112986472Y-99973497D01*
X113199999Y-99992179D01*
X113200001Y-99992179D01*
X113413527Y-99973497D01*
X113413537Y-99973495D01*
X113620567Y-99918022D01*
X113620576Y-99918018D01*
X113814839Y-99827433D01*
X113871621Y-99787673D01*
X113268173Y-99184225D01*
X113364044Y-99158537D01*
X113460956Y-99102584D01*
X113540084Y-99023456D01*
X113596037Y-98926544D01*
X113621725Y-98830672D01*
X114225173Y-99434121D01*
X114264933Y-99377339D01*
X114355518Y-99183076D01*
X114355522Y-99183067D01*
X114410995Y-98976037D01*
X114410997Y-98976027D01*
X114429679Y-98762500D01*
X114429679Y-98762499D01*
X114410997Y-98548972D01*
X114410995Y-98548962D01*
X114355522Y-98341932D01*
X114355518Y-98341923D01*
X114264933Y-98147662D01*
X114225172Y-98090879D01*
X113621725Y-98694326D01*
X113596037Y-98598456D01*
X113540084Y-98501544D01*
X113460956Y-98422416D01*
X113364044Y-98366463D01*
X113268173Y-98340774D01*
X113871621Y-97737326D01*
X113871620Y-97737325D01*
X113814840Y-97697567D01*
X113814838Y-97697566D01*
X113620576Y-97606981D01*
X113620567Y-97606977D01*
X113413537Y-97551504D01*
X113413527Y-97551502D01*
X113200001Y-97532821D01*
X113199999Y-97532821D01*
X112986472Y-97551502D01*
X112986462Y-97551504D01*
X112779432Y-97606977D01*
X112779423Y-97606981D01*
X112585162Y-97697566D01*
X112528378Y-97737326D01*
X113131827Y-98340774D01*
X113035956Y-98366463D01*
X112939044Y-98422416D01*
X112859916Y-98501544D01*
X112803963Y-98598456D01*
X112778274Y-98694326D01*
X112174826Y-98090878D01*
X112135066Y-98147662D01*
X112044481Y-98341923D01*
X112044477Y-98341932D01*
X111989004Y-98548962D01*
X111989002Y-98548972D01*
X111970321Y-98762499D01*
X111970321Y-98762500D01*
X111989002Y-98976027D01*
X111989004Y-98976037D01*
X112022138Y-99099696D01*
X112020475Y-99169546D01*
X111981312Y-99227408D01*
X111917083Y-99254912D01*
X111848181Y-99243325D01*
X111796481Y-99196326D01*
X111791875Y-99188078D01*
X111790803Y-99185974D01*
X111689032Y-99045897D01*
X111566602Y-98923467D01*
X111426524Y-98821695D01*
X111272257Y-98743091D01*
X111107584Y-98689585D01*
X110936571Y-98662500D01*
X110750000Y-98662500D01*
X110750000Y-99462500D01*
X110250000Y-99462500D01*
X110250000Y-98662500D01*
X110063429Y-98662500D01*
X109892415Y-98689585D01*
X109727742Y-98743091D01*
X109573475Y-98821695D01*
X109433397Y-98923467D01*
X109310967Y-99045897D01*
X109209195Y-99185975D01*
X109130591Y-99340244D01*
X109077085Y-99504915D01*
X109075884Y-99512499D01*
X108600500Y-99512499D01*
X108600500Y-95349996D01*
X116094435Y-95349996D01*
X116094435Y-95350003D01*
X116114630Y-95529249D01*
X116114631Y-95529254D01*
X116174211Y-95699523D01*
X116270184Y-95852262D01*
X116274525Y-95857705D01*
X116272798Y-95859081D01*
X116301226Y-95911142D01*
X116296242Y-95980834D01*
X116273390Y-96016390D01*
X116274525Y-96017295D01*
X116270184Y-96022737D01*
X116174211Y-96175476D01*
X116114631Y-96345745D01*
X116114630Y-96345750D01*
X116094435Y-96524996D01*
X116094435Y-96525003D01*
X116114630Y-96704249D01*
X116114631Y-96704254D01*
X116174211Y-96874523D01*
X116246886Y-96990184D01*
X116270184Y-97027262D01*
X116397738Y-97154816D01*
X116424744Y-97171785D01*
X116549979Y-97250476D01*
X116550478Y-97250789D01*
X116716018Y-97308714D01*
X116720745Y-97310368D01*
X116720750Y-97310369D01*
X116899996Y-97330565D01*
X116900000Y-97330565D01*
X116900004Y-97330565D01*
X117079249Y-97310369D01*
X117079252Y-97310368D01*
X117079255Y-97310368D01*
X117249522Y-97250789D01*
X117402262Y-97154816D01*
X117529816Y-97027262D01*
X117625789Y-96874522D01*
X117685368Y-96704255D01*
X117685847Y-96700003D01*
X117705565Y-96525003D01*
X117705565Y-96524996D01*
X117685369Y-96345750D01*
X117685368Y-96345745D01*
X117653543Y-96254795D01*
X117625789Y-96175478D01*
X117617634Y-96162500D01*
X117529815Y-96022737D01*
X117525475Y-96017295D01*
X117527201Y-96015918D01*
X117498774Y-95963858D01*
X117503758Y-95894166D01*
X117526609Y-95858609D01*
X117525475Y-95857705D01*
X117529811Y-95852266D01*
X117529816Y-95852262D01*
X117625789Y-95699522D01*
X117685368Y-95529255D01*
X117688483Y-95501607D01*
X117705565Y-95350003D01*
X117705565Y-95349996D01*
X117685369Y-95170750D01*
X117685368Y-95170744D01*
X117653298Y-95079095D01*
X117625789Y-95000478D01*
X117620574Y-94992179D01*
X117574753Y-94919255D01*
X117529816Y-94847738D01*
X117402262Y-94720184D01*
X117340350Y-94681282D01*
X117249523Y-94624211D01*
X117079254Y-94564631D01*
X117079249Y-94564630D01*
X116900004Y-94544435D01*
X116899996Y-94544435D01*
X116720750Y-94564630D01*
X116720745Y-94564631D01*
X116550476Y-94624211D01*
X116397737Y-94720184D01*
X116270184Y-94847737D01*
X116174211Y-95000476D01*
X116114632Y-95170744D01*
X116114630Y-95170750D01*
X116094435Y-95349996D01*
X108600500Y-95349996D01*
X108600500Y-92512499D01*
X109075884Y-92512499D01*
X109075885Y-92512500D01*
X109983012Y-92512500D01*
X109965795Y-92522440D01*
X109909940Y-92578295D01*
X109870444Y-92646704D01*
X109850000Y-92723004D01*
X109850000Y-92801996D01*
X109870444Y-92878296D01*
X109909940Y-92946705D01*
X109965795Y-93002560D01*
X109983012Y-93012500D01*
X109075885Y-93012500D01*
X109077085Y-93020084D01*
X109130591Y-93184755D01*
X109209195Y-93339024D01*
X109310967Y-93479102D01*
X109433397Y-93601532D01*
X109573475Y-93703304D01*
X109727742Y-93781908D01*
X109892415Y-93835414D01*
X110063429Y-93862500D01*
X110250000Y-93862500D01*
X110250000Y-93062500D01*
X110750000Y-93062500D01*
X110750000Y-93862500D01*
X110936571Y-93862500D01*
X111107584Y-93835414D01*
X111272257Y-93781908D01*
X111426524Y-93703304D01*
X111566602Y-93601532D01*
X111689032Y-93479102D01*
X111790804Y-93339024D01*
X111791872Y-93336928D01*
X111792492Y-93336271D01*
X111793349Y-93334873D01*
X111793642Y-93335052D01*
X111839840Y-93286126D01*
X111907659Y-93269323D01*
X111973797Y-93291853D01*
X112017255Y-93346563D01*
X112024235Y-93416083D01*
X112022138Y-93425303D01*
X111989004Y-93548962D01*
X111989002Y-93548972D01*
X111970321Y-93762499D01*
X111970321Y-93762500D01*
X111989002Y-93976027D01*
X111989004Y-93976037D01*
X112044477Y-94183067D01*
X112044481Y-94183076D01*
X112135066Y-94377338D01*
X112135067Y-94377340D01*
X112174825Y-94434120D01*
X112174826Y-94434121D01*
X112778274Y-93830672D01*
X112803963Y-93926544D01*
X112859916Y-94023456D01*
X112939044Y-94102584D01*
X113035956Y-94158537D01*
X113131827Y-94184225D01*
X112528377Y-94787673D01*
X112585161Y-94827433D01*
X112779423Y-94918018D01*
X112779432Y-94918022D01*
X112986462Y-94973495D01*
X112986472Y-94973497D01*
X113199999Y-94992179D01*
X113200001Y-94992179D01*
X113413527Y-94973497D01*
X113413537Y-94973495D01*
X113620567Y-94918022D01*
X113620576Y-94918018D01*
X113814839Y-94827433D01*
X113871621Y-94787673D01*
X113268173Y-94184225D01*
X113364044Y-94158537D01*
X113460956Y-94102584D01*
X113540084Y-94023456D01*
X113596037Y-93926544D01*
X113621725Y-93830672D01*
X114225173Y-94434121D01*
X114264933Y-94377339D01*
X114355518Y-94183076D01*
X114355522Y-94183067D01*
X114410995Y-93976037D01*
X114410997Y-93976027D01*
X114429679Y-93762500D01*
X114429679Y-93762499D01*
X114410997Y-93548972D01*
X114410995Y-93548962D01*
X114355522Y-93341932D01*
X114355518Y-93341923D01*
X114264933Y-93147662D01*
X114225172Y-93090879D01*
X113621725Y-93694326D01*
X113596037Y-93598456D01*
X113540084Y-93501544D01*
X113460956Y-93422416D01*
X113364044Y-93366463D01*
X113268173Y-93340774D01*
X113871621Y-92737326D01*
X113871620Y-92737325D01*
X113814840Y-92697567D01*
X113814838Y-92697566D01*
X113620576Y-92606981D01*
X113620567Y-92606977D01*
X113413537Y-92551504D01*
X113413527Y-92551502D01*
X113200001Y-92532821D01*
X113199999Y-92532821D01*
X112986472Y-92551502D01*
X112986462Y-92551504D01*
X112779432Y-92606977D01*
X112779423Y-92606981D01*
X112585162Y-92697566D01*
X112528378Y-92737326D01*
X113131827Y-93340774D01*
X113035956Y-93366463D01*
X112939044Y-93422416D01*
X112859916Y-93501544D01*
X112803963Y-93598456D01*
X112778274Y-93694326D01*
X112174826Y-93090878D01*
X112174825Y-93090878D01*
X112137791Y-93143770D01*
X112083214Y-93187395D01*
X112013716Y-93194589D01*
X111951361Y-93163066D01*
X111915947Y-93102837D01*
X111918287Y-93034324D01*
X111922913Y-93020086D01*
X111922914Y-93020085D01*
X111924115Y-93012500D01*
X111016988Y-93012500D01*
X111034205Y-93002560D01*
X111090060Y-92946705D01*
X111129556Y-92878296D01*
X111150000Y-92801996D01*
X111150000Y-92723004D01*
X111129556Y-92646704D01*
X111090060Y-92578295D01*
X111034205Y-92522440D01*
X111016988Y-92512500D01*
X111924115Y-92512500D01*
X111924115Y-92512499D01*
X111922914Y-92504915D01*
X111869408Y-92340244D01*
X111790804Y-92185975D01*
X111689032Y-92045897D01*
X111566602Y-91923467D01*
X111506769Y-91879996D01*
X116574435Y-91879996D01*
X116574435Y-91880003D01*
X116594630Y-92059249D01*
X116594631Y-92059254D01*
X116654211Y-92229523D01*
X116681365Y-92272738D01*
X116750184Y-92382262D01*
X116877738Y-92509816D01*
X116944081Y-92551502D01*
X116986721Y-92578295D01*
X117030478Y-92605789D01*
X117200745Y-92665368D01*
X117200750Y-92665369D01*
X117379996Y-92685565D01*
X117380000Y-92685565D01*
X117380004Y-92685565D01*
X117559249Y-92665369D01*
X117559252Y-92665368D01*
X117559255Y-92665368D01*
X117729522Y-92605789D01*
X117882262Y-92509816D01*
X118009816Y-92382262D01*
X118105789Y-92229522D01*
X118165368Y-92059255D01*
X118173213Y-91989630D01*
X118185565Y-91880003D01*
X118185565Y-91879996D01*
X118165369Y-91700750D01*
X118165368Y-91700745D01*
X118126710Y-91590266D01*
X118105789Y-91530478D01*
X118009816Y-91377738D01*
X117882262Y-91250184D01*
X117854379Y-91232664D01*
X117729523Y-91154211D01*
X117559254Y-91094631D01*
X117559249Y-91094630D01*
X117380004Y-91074435D01*
X117379996Y-91074435D01*
X117200750Y-91094630D01*
X117200745Y-91094631D01*
X117030476Y-91154211D01*
X116877737Y-91250184D01*
X116750184Y-91377737D01*
X116654211Y-91530476D01*
X116594631Y-91700745D01*
X116594630Y-91700750D01*
X116574435Y-91879996D01*
X111506769Y-91879996D01*
X111426524Y-91821695D01*
X111272257Y-91743091D01*
X111107584Y-91689585D01*
X110936571Y-91662500D01*
X110750000Y-91662500D01*
X110750000Y-92462500D01*
X110250000Y-92462500D01*
X110250000Y-91662500D01*
X110063429Y-91662500D01*
X109892415Y-91689585D01*
X109727742Y-91743091D01*
X109573475Y-91821695D01*
X109433397Y-91923467D01*
X109310967Y-92045897D01*
X109209195Y-92185975D01*
X109130591Y-92340244D01*
X109077085Y-92504915D01*
X109075884Y-92512499D01*
X108600500Y-92512499D01*
X108600500Y-86724500D01*
X108620185Y-86657461D01*
X108672989Y-86611706D01*
X108724500Y-86600500D01*
X177475500Y-86600500D01*
X177542539Y-86620185D01*
G37*
%TD.AperFunction*%
%TD*%
M02*
