%TF.GenerationSoftware,KiCad,Pcbnew,8.0.5*%
%TF.CreationDate,2025-08-25T20:07:29+05:30*%
%TF.ProjectId,ESP32_Development_Board,45535033-325f-4446-9576-656c6f706d65,rev?*%
%TF.SameCoordinates,Original*%
%TF.FileFunction,Legend,Top*%
%TF.FilePolarity,Positive*%
%FSLAX46Y46*%
G04 Gerber Fmt 4.6, Leading zero omitted, Abs format (unit mm)*
G04 Created by KiCad (PCBNEW 8.0.5) date 2025-08-25 20:07:29*
%MOMM*%
%LPD*%
G01*
G04 APERTURE LIST*
%ADD10C,0.150000*%
%ADD11C,0.120000*%
G04 APERTURE END LIST*
D10*
X172126779Y-95684819D02*
X172126779Y-96494342D01*
X172126779Y-96494342D02*
X172174398Y-96589580D01*
X172174398Y-96589580D02*
X172222017Y-96637200D01*
X172222017Y-96637200D02*
X172317255Y-96684819D01*
X172317255Y-96684819D02*
X172507731Y-96684819D01*
X172507731Y-96684819D02*
X172602969Y-96637200D01*
X172602969Y-96637200D02*
X172650588Y-96589580D01*
X172650588Y-96589580D02*
X172698207Y-96494342D01*
X172698207Y-96494342D02*
X172698207Y-95684819D01*
X173698207Y-96684819D02*
X173126779Y-96684819D01*
X173412493Y-96684819D02*
X173412493Y-95684819D01*
X173412493Y-95684819D02*
X173317255Y-95827676D01*
X173317255Y-95827676D02*
X173222017Y-95922914D01*
X173222017Y-95922914D02*
X173126779Y-95970533D01*
D11*
%TO.C,C9*%
X143880000Y-94372836D02*
X143880000Y-94157164D01*
X143160000Y-94372836D02*
X143160000Y-94157164D01*
%TO.C,R10*%
X141270000Y-92428641D02*
X141270000Y-92121359D01*
X142030000Y-92428641D02*
X142030000Y-92121359D01*
%TO.C,J1*%
X111395000Y-89655000D02*
X111395000Y-88325000D01*
X112725000Y-89655000D02*
X111395000Y-89655000D01*
X113995000Y-86995000D02*
X154695000Y-86995000D01*
X113995000Y-89655000D02*
X113995000Y-86995000D01*
X113995000Y-89655000D02*
X154695000Y-89655000D01*
X154695000Y-89655000D02*
X154695000Y-86995000D01*
%TO.C,R9*%
X143105000Y-92121359D02*
X143105000Y-92428641D01*
X142345000Y-92121359D02*
X142345000Y-92428641D01*
%TO.C,C1*%
X156740000Y-94542164D02*
X156740000Y-94757836D01*
X157460000Y-94542164D02*
X157460000Y-94757836D01*
%TO.C,C8*%
X144955000Y-94372836D02*
X144955000Y-94157164D01*
X144235000Y-94372836D02*
X144235000Y-94157164D01*
%TO.C,SW1*%
X120580000Y-95090000D02*
X120280000Y-95090000D01*
X120580000Y-90950000D02*
X120580000Y-95090000D01*
X120280000Y-90950000D02*
X120580000Y-90950000D01*
X117740000Y-95090000D02*
X117440000Y-95090000D01*
X117440000Y-95090000D02*
X117440000Y-90950000D01*
X117440000Y-90950000D02*
X117740000Y-90950000D01*
%TO.C,C2*%
X157060000Y-92086252D02*
X157060000Y-91563748D01*
X155590000Y-92086252D02*
X155590000Y-91563748D01*
%TO.C,R2*%
X157170000Y-104671359D02*
X157170000Y-104978641D01*
X157930000Y-104671359D02*
X157930000Y-104978641D01*
%TO.C,Q2*%
X146640000Y-102390000D02*
X146160000Y-102390000D01*
X146400000Y-102060000D01*
X146640000Y-102390000D01*
G36*
X146640000Y-102390000D02*
G01*
X146160000Y-102390000D01*
X146400000Y-102060000D01*
X146640000Y-102390000D01*
G37*
X145100000Y-98990000D02*
X144300000Y-98990000D01*
X145100000Y-98990000D02*
X145900000Y-98990000D01*
X145100000Y-102110000D02*
X144300000Y-102110000D01*
X145100000Y-102110000D02*
X145900000Y-102110000D01*
%TO.C,D5*%
X114975000Y-95350000D02*
X114975000Y-93390000D01*
X116175000Y-93390000D02*
X114975000Y-93390000D01*
X116175000Y-95350000D02*
X116175000Y-93390000D01*
%TO.C,R5*%
X140595000Y-100738641D02*
X140595000Y-100431359D01*
X141355000Y-100738641D02*
X141355000Y-100431359D01*
%TO.C,J2*%
X111395000Y-105530000D02*
X111395000Y-104200000D01*
X112725000Y-105530000D02*
X111395000Y-105530000D01*
X113995000Y-102870000D02*
X154695000Y-102870000D01*
X113995000Y-105530000D02*
X113995000Y-102870000D01*
X113995000Y-105530000D02*
X154695000Y-105530000D01*
X154695000Y-105530000D02*
X154695000Y-102870000D01*
%TO.C,C6*%
X156110000Y-87957836D02*
X156110000Y-87742164D01*
X155390000Y-87957836D02*
X155390000Y-87742164D01*
%TO.C,J4*%
X109100000Y-92362500D02*
X109350000Y-92362500D01*
X109100000Y-100162500D02*
X109350000Y-100162500D01*
X111650000Y-92362500D02*
X113500000Y-92362500D01*
X111650000Y-100162500D02*
X113500000Y-100162500D01*
X113500000Y-92362500D02*
X113500000Y-92812500D01*
X113500000Y-100162500D02*
X113500000Y-99712500D01*
X114050000Y-94562500D02*
X113600000Y-94562500D01*
X114050000Y-94562500D02*
X114050000Y-95012500D01*
%TO.C,R1*%
X148953641Y-102155000D02*
X148646359Y-102155000D01*
X148953641Y-101395000D02*
X148646359Y-101395000D01*
%TO.C,D3*%
X114375000Y-92725000D02*
X114375000Y-90765000D01*
X115575000Y-90765000D02*
X114375000Y-90765000D01*
X115575000Y-92725000D02*
X115575000Y-90765000D01*
%TO.C,C10*%
X152382836Y-94535000D02*
X152167164Y-94535000D01*
X152382836Y-93815000D02*
X152167164Y-93815000D01*
%TO.C,Q1*%
X134537500Y-98940000D02*
X133737500Y-98940000D01*
X134537500Y-98940000D02*
X135337500Y-98940000D01*
X134537500Y-102060000D02*
X133737500Y-102060000D01*
X134537500Y-102060000D02*
X135337500Y-102060000D01*
X133237500Y-98990000D02*
X132997500Y-98660000D01*
X133477500Y-98660000D01*
X133237500Y-98990000D01*
G36*
X133237500Y-98990000D02*
G01*
X132997500Y-98660000D01*
X133477500Y-98660000D01*
X133237500Y-98990000D01*
G37*
%TO.C,R8*%
X139120000Y-92438641D02*
X139120000Y-92131359D01*
X139880000Y-92438641D02*
X139880000Y-92131359D01*
%TO.C,U3*%
X152335000Y-99915000D02*
X151855000Y-99915000D01*
X152095000Y-99585000D01*
X152335000Y-99915000D01*
G36*
X152335000Y-99915000D02*
G01*
X151855000Y-99915000D01*
X152095000Y-99585000D01*
X152335000Y-99915000D01*
G37*
X151545000Y-99735000D02*
X148965000Y-99735000D01*
X148965000Y-98755000D02*
X148965000Y-99735000D01*
X148965000Y-95995000D02*
X148965000Y-95015000D01*
X148965000Y-95015000D02*
X151685000Y-95015000D01*
%TO.C,R4*%
X139520000Y-100753641D02*
X139520000Y-100446359D01*
X140280000Y-100753641D02*
X140280000Y-100446359D01*
%TO.C,R3*%
X120960000Y-91846359D02*
X120960000Y-92153641D01*
X121720000Y-91846359D02*
X121720000Y-92153641D01*
%TO.C,R12*%
X154205000Y-95203641D02*
X154205000Y-94896359D01*
X153445000Y-95203641D02*
X153445000Y-94896359D01*
%TO.C,C5*%
X111932836Y-90365000D02*
X111717164Y-90365000D01*
X111932836Y-91085000D02*
X111717164Y-91085000D01*
%TO.C,R7*%
X138445000Y-100446359D02*
X138445000Y-100753641D01*
X139205000Y-100446359D02*
X139205000Y-100753641D01*
%TO.C,SW2*%
X126300000Y-90980000D02*
X126300000Y-95120000D01*
X126000000Y-90980000D02*
X126300000Y-90980000D01*
X123160000Y-90980000D02*
X123460000Y-90980000D01*
X126300000Y-95120000D02*
X126000000Y-95120000D01*
X123460000Y-95120000D02*
X123160000Y-95120000D01*
X123160000Y-95120000D02*
X123160000Y-90980000D01*
%TO.C,R13*%
X133570000Y-96343641D02*
X133570000Y-96036359D01*
X134330000Y-96343641D02*
X134330000Y-96036359D01*
%TO.C,D4*%
X114975000Y-96525000D02*
X114975000Y-98485000D01*
X114975000Y-98485000D02*
X116175000Y-98485000D01*
X116175000Y-96525000D02*
X116175000Y-98485000D01*
%TO.C,C3*%
X120970000Y-93882164D02*
X120970000Y-94097836D01*
X121690000Y-93882164D02*
X121690000Y-94097836D01*
%TO.C,C11*%
X154135000Y-97992164D02*
X154135000Y-98207836D01*
X153415000Y-97992164D02*
X153415000Y-98207836D01*
%TO.C,R11*%
X140955000Y-92121359D02*
X140955000Y-92428641D01*
X140195000Y-92121359D02*
X140195000Y-92428641D01*
%TO.C,D2*%
X134565000Y-98610000D02*
X136485000Y-98610000D01*
X136485000Y-98610000D02*
X136485000Y-95925000D01*
X134565000Y-95925000D02*
X134565000Y-98610000D01*
%TO.C,C4*%
X122780000Y-91102164D02*
X122780000Y-91317836D01*
X122060000Y-91102164D02*
X122060000Y-91317836D01*
%TO.C,C7*%
X113892164Y-101390000D02*
X114107836Y-101390000D01*
X113892164Y-102110000D02*
X114107836Y-102110000D01*
%TO.C,U2*%
X137220000Y-93840000D02*
X137220000Y-94565000D01*
X137220000Y-99060000D02*
X137220000Y-98335000D01*
X137945000Y-93840000D02*
X137220000Y-93840000D01*
X137945000Y-99060000D02*
X137220000Y-99060000D01*
X141715000Y-93840000D02*
X142440000Y-93840000D01*
X141715000Y-99060000D02*
X142140000Y-99060000D01*
X142440000Y-93840000D02*
X142440000Y-94565000D01*
X142440000Y-98335000D02*
X142440000Y-98820000D01*
X142680000Y-99390000D02*
X142200000Y-99390000D01*
X142440000Y-99060000D01*
X142680000Y-99390000D01*
G36*
X142680000Y-99390000D02*
G01*
X142200000Y-99390000D01*
X142440000Y-99060000D01*
X142680000Y-99390000D01*
G37*
%TO.C,C12*%
X115865000Y-92357836D02*
X115865000Y-92142164D01*
X116585000Y-92357836D02*
X116585000Y-92142164D01*
%TO.C,D1*%
X156460000Y-97160000D02*
X156460000Y-94475000D01*
X154540000Y-97160000D02*
X156460000Y-97160000D01*
X154540000Y-94475000D02*
X154540000Y-97160000D01*
%TO.C,J3*%
X154785000Y-90865000D02*
X154785000Y-91975000D01*
X154025000Y-90865000D02*
X154785000Y-90865000D01*
X153265000Y-93085000D02*
X150790000Y-93085000D01*
X153265000Y-92538471D02*
X153265000Y-93085000D01*
X153265000Y-90865000D02*
X153265000Y-91411529D01*
X153265000Y-90865000D02*
X150790000Y-90865000D01*
X150790000Y-92282530D02*
X150790000Y-93085000D01*
X150790000Y-90865000D02*
X150790000Y-91667470D01*
%TO.C,R6*%
X142430000Y-100446359D02*
X142430000Y-100753641D01*
X141670000Y-100446359D02*
X141670000Y-100753641D01*
%TO.C,U1*%
X158835000Y-87062500D02*
X159785000Y-87062500D01*
X158835000Y-88462500D02*
X158835000Y-87062500D01*
X158835000Y-104062500D02*
X158835000Y-105462500D01*
X158835000Y-105462500D02*
X159785000Y-105462500D01*
X178285000Y-87062500D02*
X177785000Y-87062500D01*
X177785000Y-86562500D01*
X178285000Y-87062500D01*
G36*
X178285000Y-87062500D02*
G01*
X177785000Y-87062500D01*
X177785000Y-86562500D01*
X178285000Y-87062500D01*
G37*
%TD*%
M02*
