%TF.GenerationSoftware,KiCad,Pcbnew,8.0.5*%
%TF.CreationDate,2025-08-25T20:07:28+05:30*%
%TF.ProjectId,ESP32_Development_Board,45535033-325f-4446-9576-656c6f706d65,rev?*%
%TF.SameCoordinates,Original*%
%TF.FileFunction,Copper,L1,Top*%
%TF.FilePolarity,Positive*%
%FSLAX46Y46*%
G04 Gerber Fmt 4.6, Leading zero omitted, Abs format (unit mm)*
G04 Created by KiCad (PCBNEW 8.0.5) date 2025-08-25 20:07:28*
%MOMM*%
%LPD*%
G01*
G04 APERTURE LIST*
G04 Aperture macros list*
%AMRoundRect*
0 Rectangle with rounded corners*
0 $1 Rounding radius*
0 $2 $3 $4 $5 $6 $7 $8 $9 X,Y pos of 4 corners*
0 Add a 4 corners polygon primitive as box body*
4,1,4,$2,$3,$4,$5,$6,$7,$8,$9,$2,$3,0*
0 Add four circle primitives for the rounded corners*
1,1,$1+$1,$2,$3*
1,1,$1+$1,$4,$5*
1,1,$1+$1,$6,$7*
1,1,$1+$1,$8,$9*
0 Add four rect primitives between the rounded corners*
20,1,$1+$1,$2,$3,$4,$5,0*
20,1,$1+$1,$4,$5,$6,$7,0*
20,1,$1+$1,$6,$7,$8,$9,0*
20,1,$1+$1,$8,$9,$2,$3,0*%
%AMFreePoly0*
4,1,9,3.862500,-0.866500,0.737500,-0.866500,0.737500,-0.450000,-0.737500,-0.450000,-0.737500,0.450000,0.737500,0.450000,0.737500,0.866500,3.862500,0.866500,3.862500,-0.866500,3.862500,-0.866500,$1*%
G04 Aperture macros list end*
%TA.AperFunction,SMDPad,CuDef*%
%ADD10RoundRect,0.140000X0.170000X-0.140000X0.170000X0.140000X-0.170000X0.140000X-0.170000X-0.140000X0*%
%TD*%
%TA.AperFunction,SMDPad,CuDef*%
%ADD11RoundRect,0.135000X0.185000X-0.135000X0.185000X0.135000X-0.185000X0.135000X-0.185000X-0.135000X0*%
%TD*%
%TA.AperFunction,ComponentPad*%
%ADD12R,1.700000X1.700000*%
%TD*%
%TA.AperFunction,ComponentPad*%
%ADD13O,1.700000X1.700000*%
%TD*%
%TA.AperFunction,SMDPad,CuDef*%
%ADD14RoundRect,0.135000X-0.185000X0.135000X-0.185000X-0.135000X0.185000X-0.135000X0.185000X0.135000X0*%
%TD*%
%TA.AperFunction,SMDPad,CuDef*%
%ADD15RoundRect,0.140000X-0.170000X0.140000X-0.170000X-0.140000X0.170000X-0.140000X0.170000X0.140000X0*%
%TD*%
%TA.AperFunction,SMDPad,CuDef*%
%ADD16RoundRect,0.200000X-0.800000X0.200000X-0.800000X-0.200000X0.800000X-0.200000X0.800000X0.200000X0*%
%TD*%
%TA.AperFunction,SMDPad,CuDef*%
%ADD17RoundRect,0.250000X0.475000X-0.250000X0.475000X0.250000X-0.475000X0.250000X-0.475000X-0.250000X0*%
%TD*%
%TA.AperFunction,SMDPad,CuDef*%
%ADD18RoundRect,0.150000X0.512500X0.150000X-0.512500X0.150000X-0.512500X-0.150000X0.512500X-0.150000X0*%
%TD*%
%TA.AperFunction,SMDPad,CuDef*%
%ADD19RoundRect,0.150000X0.200000X-0.150000X0.200000X0.150000X-0.200000X0.150000X-0.200000X-0.150000X0*%
%TD*%
%TA.AperFunction,SMDPad,CuDef*%
%ADD20R,1.350000X0.400000*%
%TD*%
%TA.AperFunction,ComponentPad*%
%ADD21O,1.900000X1.200000*%
%TD*%
%TA.AperFunction,SMDPad,CuDef*%
%ADD22R,1.900000X1.200000*%
%TD*%
%TA.AperFunction,ComponentPad*%
%ADD23C,1.450000*%
%TD*%
%TA.AperFunction,SMDPad,CuDef*%
%ADD24R,1.900000X1.500000*%
%TD*%
%TA.AperFunction,SMDPad,CuDef*%
%ADD25RoundRect,0.135000X0.135000X0.185000X-0.135000X0.185000X-0.135000X-0.185000X0.135000X-0.185000X0*%
%TD*%
%TA.AperFunction,SMDPad,CuDef*%
%ADD26RoundRect,0.140000X0.140000X0.170000X-0.140000X0.170000X-0.140000X-0.170000X0.140000X-0.170000X0*%
%TD*%
%TA.AperFunction,SMDPad,CuDef*%
%ADD27RoundRect,0.150000X-0.512500X-0.150000X0.512500X-0.150000X0.512500X0.150000X-0.512500X0.150000X0*%
%TD*%
%TA.AperFunction,SMDPad,CuDef*%
%ADD28RoundRect,0.225000X0.425000X0.225000X-0.425000X0.225000X-0.425000X-0.225000X0.425000X-0.225000X0*%
%TD*%
%TA.AperFunction,SMDPad,CuDef*%
%ADD29FreePoly0,180.000000*%
%TD*%
%TA.AperFunction,SMDPad,CuDef*%
%ADD30RoundRect,0.150000X-0.200000X0.150000X-0.200000X-0.150000X0.200000X-0.150000X0.200000X0.150000X0*%
%TD*%
%TA.AperFunction,SMDPad,CuDef*%
%ADD31RoundRect,0.243750X0.456250X-0.243750X0.456250X0.243750X-0.456250X0.243750X-0.456250X-0.243750X0*%
%TD*%
%TA.AperFunction,SMDPad,CuDef*%
%ADD32RoundRect,0.140000X-0.140000X-0.170000X0.140000X-0.170000X0.140000X0.170000X-0.140000X0.170000X0*%
%TD*%
%TA.AperFunction,SMDPad,CuDef*%
%ADD33RoundRect,0.062500X0.337500X0.062500X-0.337500X0.062500X-0.337500X-0.062500X0.337500X-0.062500X0*%
%TD*%
%TA.AperFunction,SMDPad,CuDef*%
%ADD34RoundRect,0.062500X0.062500X0.337500X-0.062500X0.337500X-0.062500X-0.337500X0.062500X-0.337500X0*%
%TD*%
%TA.AperFunction,HeatsinkPad*%
%ADD35R,3.350000X3.350000*%
%TD*%
%TA.AperFunction,ComponentPad*%
%ADD36O,1.000000X1.000000*%
%TD*%
%TA.AperFunction,ComponentPad*%
%ADD37R,1.000000X1.000000*%
%TD*%
%TA.AperFunction,SMDPad,CuDef*%
%ADD38R,0.900000X1.500000*%
%TD*%
%TA.AperFunction,SMDPad,CuDef*%
%ADD39R,1.500000X0.900000*%
%TD*%
%TA.AperFunction,SMDPad,CuDef*%
%ADD40R,0.900000X0.900000*%
%TD*%
%TA.AperFunction,ComponentPad*%
%ADD41C,0.600000*%
%TD*%
%TA.AperFunction,ViaPad*%
%ADD42C,0.600000*%
%TD*%
%TA.AperFunction,Conductor*%
%ADD43C,0.200000*%
%TD*%
%TA.AperFunction,Conductor*%
%ADD44C,0.533400*%
%TD*%
G04 APERTURE END LIST*
D10*
%TO.P,C9,2*%
%TO.N,GND*%
X143520000Y-93785000D03*
%TO.P,C9,1*%
%TO.N,+3.3V*%
X143520000Y-94745000D03*
%TD*%
D11*
%TO.P,R10,1*%
%TO.N,Net-(U2-VBUS)*%
X141650000Y-92785000D03*
%TO.P,R10,2*%
%TO.N,GND*%
X141650000Y-91765000D03*
%TD*%
D12*
%TO.P,J1,1,Pin_1*%
%TO.N,GND*%
X112725000Y-88325000D03*
D13*
%TO.P,J1,2,Pin_2*%
%TO.N,+3.3V*%
X115265000Y-88325000D03*
%TO.P,J1,3,Pin_3*%
%TO.N,/EN*%
X117805000Y-88325000D03*
%TO.P,J1,4,Pin_4*%
%TO.N,/I36*%
X120345000Y-88325000D03*
%TO.P,J1,5,Pin_5*%
%TO.N,/I39*%
X122885000Y-88325000D03*
%TO.P,J1,6,Pin_6*%
%TO.N,/I34*%
X125425000Y-88325000D03*
%TO.P,J1,7,Pin_7*%
%TO.N,/I35*%
X127965000Y-88325000D03*
%TO.P,J1,8,Pin_8*%
%TO.N,/IO32*%
X130505000Y-88325000D03*
%TO.P,J1,9,Pin_9*%
%TO.N,/IO33*%
X133045000Y-88325000D03*
%TO.P,J1,10,Pin_10*%
%TO.N,/IO25*%
X135585000Y-88325000D03*
%TO.P,J1,11,Pin_11*%
%TO.N,/IO26*%
X138125000Y-88325000D03*
%TO.P,J1,12,Pin_12*%
%TO.N,/IO27*%
X140665000Y-88325000D03*
%TO.P,J1,13,Pin_13*%
%TO.N,/IO14*%
X143205000Y-88325000D03*
%TO.P,J1,14,Pin_14*%
%TO.N,/IO12*%
X145745000Y-88325000D03*
%TO.P,J1,15,Pin_15*%
%TO.N,GND*%
X148285000Y-88325000D03*
%TO.P,J1,16,Pin_16*%
%TO.N,/IO13*%
X150825000Y-88325000D03*
%TO.P,J1,17,Pin_17*%
%TO.N,+5VD*%
X153365000Y-88325000D03*
%TD*%
D14*
%TO.P,R9,1*%
%TO.N,+5VA*%
X142725000Y-91765000D03*
%TO.P,R9,2*%
%TO.N,Net-(U2-VBUS)*%
X142725000Y-92785000D03*
%TD*%
D15*
%TO.P,C1,1*%
%TO.N,+3.3V*%
X157100000Y-94170000D03*
%TO.P,C1,2*%
%TO.N,GND*%
X157100000Y-95130000D03*
%TD*%
D10*
%TO.P,C8,2*%
%TO.N,GND*%
X144595000Y-93785000D03*
%TO.P,C8,1*%
%TO.N,+3.3V*%
X144595000Y-94745000D03*
%TD*%
D16*
%TO.P,SW1,1,1*%
%TO.N,/EN*%
X119010000Y-90920000D03*
%TO.P,SW1,2,2*%
%TO.N,GND*%
X119010000Y-95120000D03*
%TD*%
D17*
%TO.P,C2,2*%
%TO.N,GND*%
X156325000Y-90875000D03*
%TO.P,C2,1*%
%TO.N,+3.3V*%
X156325000Y-92775000D03*
%TD*%
D14*
%TO.P,R2,1*%
%TO.N,Net-(U1-IO0)*%
X157550000Y-104315000D03*
%TO.P,R2,2*%
%TO.N,/IO0_BTN*%
X157550000Y-105335000D03*
%TD*%
D18*
%TO.P,Q2,3,E*%
%TO.N,/DTR*%
X143962500Y-100550000D03*
%TO.P,Q2,2,B*%
%TO.N,Net-(Q2-B)*%
X146237500Y-99600000D03*
%TO.P,Q2,1,C*%
%TO.N,/IO0_BTN*%
X146237500Y-101500000D03*
%TD*%
D19*
%TO.P,D5,1,A1*%
%TO.N,GND*%
X115575000Y-93950000D03*
%TO.P,D5,2,A2*%
%TO.N,/USB_DN*%
X115575000Y-95350000D03*
%TD*%
D11*
%TO.P,R5,1*%
%TO.N,/RXD0*%
X140975000Y-101095000D03*
%TO.P,R5,2*%
%TO.N,/TXD*%
X140975000Y-100075000D03*
%TD*%
D12*
%TO.P,J2,1,Pin_1*%
%TO.N,+3.3V*%
X112725000Y-104200000D03*
D13*
%TO.P,J2,2,Pin_2*%
%TO.N,GND*%
X115265000Y-104200000D03*
%TO.P,J2,3,Pin_3*%
%TO.N,/IO23*%
X117805000Y-104200000D03*
%TO.P,J2,4,Pin_4*%
%TO.N,/IO22*%
X120345000Y-104200000D03*
%TO.P,J2,5,Pin_5*%
%TO.N,/TXD0*%
X122885000Y-104200000D03*
%TO.P,J2,6,Pin_6*%
%TO.N,/RXD0*%
X125425000Y-104200000D03*
%TO.P,J2,7,Pin_7*%
%TO.N,/IO21*%
X127965000Y-104200000D03*
%TO.P,J2,8,Pin_8*%
%TO.N,GND*%
X130505000Y-104200000D03*
%TO.P,J2,9,Pin_9*%
%TO.N,/IO19*%
X133045000Y-104200000D03*
%TO.P,J2,10,Pin_10*%
%TO.N,/IO18*%
X135585000Y-104200000D03*
%TO.P,J2,11,Pin_11*%
%TO.N,/IO5*%
X138125000Y-104200000D03*
%TO.P,J2,12,Pin_12*%
%TO.N,/IO17*%
X140665000Y-104200000D03*
%TO.P,J2,13,Pin_13*%
%TO.N,/IO16*%
X143205000Y-104200000D03*
%TO.P,J2,14,Pin_14*%
%TO.N,/IO4*%
X145745000Y-104200000D03*
%TO.P,J2,15,Pin_15*%
%TO.N,/IO0_CON*%
X148285000Y-104200000D03*
%TO.P,J2,16,Pin_16*%
%TO.N,/IO2*%
X150825000Y-104200000D03*
%TO.P,J2,17,Pin_17*%
%TO.N,/IO15*%
X153365000Y-104200000D03*
%TD*%
D10*
%TO.P,C6,2*%
%TO.N,GND*%
X155750000Y-87370000D03*
%TO.P,C6,1*%
%TO.N,+5VD*%
X155750000Y-88330000D03*
%TD*%
D20*
%TO.P,J4,1,VBUS*%
%TO.N,+5VA*%
X113200000Y-94962500D03*
%TO.P,J4,2,D-*%
%TO.N,/USB_DN*%
X113200000Y-95612500D03*
%TO.P,J4,3,D+*%
%TO.N,/USB_DP*%
X113200000Y-96262500D03*
%TO.P,J4,4,ID*%
%TO.N,unconnected-(J4-ID-Pad4)*%
X113200000Y-96912500D03*
%TO.P,J4,5,GND*%
%TO.N,GND*%
X113200000Y-97562500D03*
D21*
%TO.P,J4,6,Shield*%
X110500000Y-92762500D03*
D22*
X110500000Y-93362500D03*
D23*
X113200000Y-93762500D03*
D24*
X110500000Y-95262500D03*
X110500000Y-97262500D03*
D23*
X113200000Y-98762500D03*
D22*
X110500000Y-99162500D03*
D21*
X110500000Y-99762500D03*
%TD*%
D25*
%TO.P,R1,2*%
%TO.N,/IO0_CON*%
X148290000Y-101775000D03*
%TO.P,R1,1*%
%TO.N,Net-(U1-IO0)*%
X149310000Y-101775000D03*
%TD*%
D19*
%TO.P,D3,1,A1*%
%TO.N,GND*%
X114975000Y-91325000D03*
%TO.P,D3,2,A2*%
%TO.N,+5VA*%
X114975000Y-92725000D03*
%TD*%
D26*
%TO.P,C10,2*%
%TO.N,GND*%
X151795000Y-94175000D03*
%TO.P,C10,1*%
%TO.N,+5V*%
X152755000Y-94175000D03*
%TD*%
D27*
%TO.P,Q1,1,C*%
%TO.N,/EN*%
X133400000Y-99550000D03*
%TO.P,Q1,2,B*%
%TO.N,Net-(Q1-B)*%
X133400000Y-101450000D03*
%TO.P,Q1,3,E*%
%TO.N,/RTS*%
X135675000Y-100500000D03*
%TD*%
D11*
%TO.P,R8,1*%
%TO.N,Net-(U2-~{SUSPEND})*%
X139500000Y-92795000D03*
%TO.P,R8,2*%
%TO.N,GND*%
X139500000Y-91775000D03*
%TD*%
D28*
%TO.P,U3,3,VI*%
%TO.N,+5V*%
X152275000Y-95875000D03*
D29*
%TO.P,U3,2,VO*%
%TO.N,+3.3V*%
X152187500Y-97375000D03*
D28*
%TO.P,U3,1,GND*%
%TO.N,GND*%
X152275000Y-98875000D03*
%TD*%
D11*
%TO.P,R4,1*%
%TO.N,/TXD0*%
X139900000Y-101110000D03*
%TO.P,R4,2*%
%TO.N,/RXD*%
X139900000Y-100090000D03*
%TD*%
D14*
%TO.P,R3,1*%
%TO.N,+3.3V*%
X121340000Y-91490000D03*
%TO.P,R3,2*%
%TO.N,/EN*%
X121340000Y-92510000D03*
%TD*%
D11*
%TO.P,R12,2*%
%TO.N,Net-(D1-A)*%
X153825000Y-94540000D03*
%TO.P,R12,1*%
%TO.N,+3.3V*%
X153825000Y-95560000D03*
%TD*%
D26*
%TO.P,C5,1*%
%TO.N,+3.3V*%
X112305000Y-90725000D03*
%TO.P,C5,2*%
%TO.N,GND*%
X111345000Y-90725000D03*
%TD*%
D14*
%TO.P,R7,2*%
%TO.N,Net-(Q2-B)*%
X138825000Y-101110000D03*
%TO.P,R7,1*%
%TO.N,/RTS*%
X138825000Y-100090000D03*
%TD*%
D16*
%TO.P,SW2,1,1*%
%TO.N,/IO0_BTN*%
X124730000Y-90950000D03*
%TO.P,SW2,2,2*%
%TO.N,GND*%
X124730000Y-95150000D03*
%TD*%
D11*
%TO.P,R13,1*%
%TO.N,+3.3V*%
X133950000Y-96700000D03*
%TO.P,R13,2*%
%TO.N,Net-(D2-A)*%
X133950000Y-95680000D03*
%TD*%
D30*
%TO.P,D4,1,A1*%
%TO.N,GND*%
X115575000Y-97925000D03*
%TO.P,D4,2,A2*%
%TO.N,/USB_DP*%
X115575000Y-96525000D03*
%TD*%
D15*
%TO.P,C3,1*%
%TO.N,/EN*%
X121330000Y-93510000D03*
%TO.P,C3,2*%
%TO.N,GND*%
X121330000Y-94470000D03*
%TD*%
%TO.P,C11,2*%
%TO.N,GND*%
X153775000Y-98580000D03*
%TO.P,C11,1*%
%TO.N,+3.3V*%
X153775000Y-97620000D03*
%TD*%
D14*
%TO.P,R11,1*%
%TO.N,+3.3V*%
X140575000Y-91765000D03*
%TO.P,R11,2*%
%TO.N,Net-(U2-~{RST})*%
X140575000Y-92785000D03*
%TD*%
D31*
%TO.P,D2,1,K*%
%TO.N,/IO18*%
X135525000Y-97862500D03*
%TO.P,D2,2,A*%
%TO.N,Net-(D2-A)*%
X135525000Y-95987500D03*
%TD*%
D15*
%TO.P,C4,1*%
%TO.N,/IO0_BTN*%
X122420000Y-90730000D03*
%TO.P,C4,2*%
%TO.N,GND*%
X122420000Y-91690000D03*
%TD*%
D32*
%TO.P,C7,1*%
%TO.N,+3.3V*%
X113520000Y-101750000D03*
%TO.P,C7,2*%
%TO.N,GND*%
X114480000Y-101750000D03*
%TD*%
D33*
%TO.P,U2,1,~{DCD}*%
%TO.N,unconnected-(U2-~{DCD}-Pad1)*%
X142280000Y-97950000D03*
%TO.P,U2,2,~{RI}/CLK*%
%TO.N,unconnected-(U2-~{RI}{slash}CLK-Pad2)*%
X142280000Y-97450000D03*
%TO.P,U2,3,GND*%
%TO.N,GND*%
X142280000Y-96950000D03*
%TO.P,U2,4,D+*%
%TO.N,/USB_DP*%
X142280000Y-96450000D03*
%TO.P,U2,5,D-*%
%TO.N,/USB_DN*%
X142280000Y-95950000D03*
%TO.P,U2,6,VDD*%
%TO.N,+3.3V*%
X142280000Y-95450000D03*
%TO.P,U2,7,VREGIN*%
X142280000Y-94950000D03*
D34*
%TO.P,U2,8,VBUS*%
%TO.N,Net-(U2-VBUS)*%
X141330000Y-94000000D03*
%TO.P,U2,9,~{RST}*%
%TO.N,Net-(U2-~{RST})*%
X140830000Y-94000000D03*
%TO.P,U2,10,NC*%
%TO.N,unconnected-(U2-NC-Pad10)*%
X140330000Y-94000000D03*
%TO.P,U2,11,~{SUSPEND}*%
%TO.N,Net-(U2-~{SUSPEND})*%
X139830000Y-94000000D03*
%TO.P,U2,12,SUSPEND*%
%TO.N,unconnected-(U2-SUSPEND-Pad12)*%
X139330000Y-94000000D03*
%TO.P,U2,13,CHREN*%
%TO.N,unconnected-(U2-CHREN-Pad13)*%
X138830000Y-94000000D03*
%TO.P,U2,14,CHR1*%
%TO.N,unconnected-(U2-CHR1-Pad14)*%
X138330000Y-94000000D03*
D33*
%TO.P,U2,15,CHR0*%
%TO.N,unconnected-(U2-CHR0-Pad15)*%
X137380000Y-94950000D03*
%TO.P,U2,16,~{WAKEUP}/GPIO.3*%
%TO.N,unconnected-(U2-~{WAKEUP}{slash}GPIO.3-Pad16)*%
X137380000Y-95450000D03*
%TO.P,U2,17,RS485/GPIO.2*%
%TO.N,unconnected-(U2-RS485{slash}GPIO.2-Pad17)*%
X137380000Y-95950000D03*
%TO.P,U2,18,~{RXT}/GPIO.1*%
%TO.N,unconnected-(U2-~{RXT}{slash}GPIO.1-Pad18)*%
X137380000Y-96450000D03*
%TO.P,U2,19,~{TXT}/GPIO.0*%
%TO.N,unconnected-(U2-~{TXT}{slash}GPIO.0-Pad19)*%
X137380000Y-96950000D03*
%TO.P,U2,20,GPIO.6*%
%TO.N,unconnected-(U2-GPIO.6-Pad20)*%
X137380000Y-97450000D03*
%TO.P,U2,21,GPIO.5*%
%TO.N,unconnected-(U2-GPIO.5-Pad21)*%
X137380000Y-97950000D03*
D34*
%TO.P,U2,22,GPIO.4*%
%TO.N,unconnected-(U2-GPIO.4-Pad22)*%
X138330000Y-98900000D03*
%TO.P,U2,23,~{CTS}*%
%TO.N,unconnected-(U2-~{CTS}-Pad23)*%
X138830000Y-98900000D03*
%TO.P,U2,24,~{RTS}*%
%TO.N,/RTS*%
X139330000Y-98900000D03*
%TO.P,U2,25,RXD*%
%TO.N,/RXD*%
X139830000Y-98900000D03*
%TO.P,U2,26,TXD*%
%TO.N,/TXD*%
X140330000Y-98900000D03*
%TO.P,U2,27,~{DSR}*%
%TO.N,unconnected-(U2-~{DSR}-Pad27)*%
X140830000Y-98900000D03*
%TO.P,U2,28,~{DTR}*%
%TO.N,/DTR*%
X141330000Y-98900000D03*
D35*
%TO.P,U2,29,GND*%
%TO.N,GND*%
X139830000Y-96450000D03*
%TD*%
D10*
%TO.P,C12,1*%
%TO.N,+5VA*%
X116225000Y-92730000D03*
%TO.P,C12,2*%
%TO.N,GND*%
X116225000Y-91770000D03*
%TD*%
D31*
%TO.P,D1,2,A*%
%TO.N,Net-(D1-A)*%
X155500000Y-94537500D03*
%TO.P,D1,1,K*%
%TO.N,GND*%
X155500000Y-96412500D03*
%TD*%
D36*
%TO.P,J3,3,Pin_3*%
%TO.N,+5VA*%
X151485000Y-91975000D03*
%TO.P,J3,2,Pin_2*%
%TO.N,+5V*%
X152755000Y-91975000D03*
D37*
%TO.P,J3,1,Pin_1*%
%TO.N,+5VD*%
X154025000Y-91975000D03*
%TD*%
D14*
%TO.P,R6,1*%
%TO.N,/DTR*%
X142050000Y-100090000D03*
%TO.P,R6,2*%
%TO.N,Net-(Q1-B)*%
X142050000Y-101110000D03*
%TD*%
D37*
%TO.P,J5,1,Pin_1*%
%TO.N,+3.3V*%
X120940000Y-99820000D03*
D36*
%TO.P,J5,2,Pin_2*%
%TO.N,Net-(J5-Pin_2)*%
X120940000Y-101090000D03*
%TD*%
D38*
%TO.P,U1,1,GND*%
%TO.N,GND*%
X177045000Y-87512500D03*
%TO.P,U1,2,VDD*%
%TO.N,+3.3V*%
X175775000Y-87512500D03*
%TO.P,U1,3,EN*%
%TO.N,/EN*%
X174505000Y-87512500D03*
%TO.P,U1,4,SENSOR_VP*%
%TO.N,/I36*%
X173235000Y-87512500D03*
%TO.P,U1,5,SENSOR_VN*%
%TO.N,/I39*%
X171965000Y-87512500D03*
%TO.P,U1,6,IO34*%
%TO.N,/I34*%
X170695000Y-87512500D03*
%TO.P,U1,7,IO35*%
%TO.N,/I35*%
X169425000Y-87512500D03*
%TO.P,U1,8,IO32*%
%TO.N,/IO32*%
X168155000Y-87512500D03*
%TO.P,U1,9,IO33*%
%TO.N,/IO33*%
X166885000Y-87512500D03*
%TO.P,U1,10,IO25*%
%TO.N,/IO25*%
X165615000Y-87512500D03*
%TO.P,U1,11,IO26*%
%TO.N,/IO26*%
X164345000Y-87512500D03*
%TO.P,U1,12,IO27*%
%TO.N,/IO27*%
X163075000Y-87512500D03*
%TO.P,U1,13,IO14*%
%TO.N,/IO14*%
X161805000Y-87512500D03*
%TO.P,U1,14,IO12*%
%TO.N,/IO12*%
X160535000Y-87512500D03*
D39*
%TO.P,U1,15,GND*%
%TO.N,GND*%
X159285000Y-90547500D03*
%TO.P,U1,16,IO13*%
%TO.N,/IO13*%
X159285000Y-91817500D03*
%TO.P,U1,17,NC*%
%TO.N,unconnected-(U1-NC-Pad17)*%
X159285000Y-93087500D03*
%TO.P,U1,18,NC*%
%TO.N,unconnected-(U1-NC-Pad18)*%
X159285000Y-94357500D03*
%TO.P,U1,19,NC*%
%TO.N,unconnected-(U1-NC-Pad19)*%
X159285000Y-95627500D03*
%TO.P,U1,20,NC*%
%TO.N,unconnected-(U1-NC-Pad20)*%
X159285000Y-96897500D03*
%TO.P,U1,21,NC*%
%TO.N,unconnected-(U1-NC-Pad21)*%
X159285000Y-98167500D03*
%TO.P,U1,22,NC*%
%TO.N,unconnected-(U1-NC-Pad22)*%
X159285000Y-99437500D03*
%TO.P,U1,23,IO15*%
%TO.N,/IO15*%
X159285000Y-100707500D03*
%TO.P,U1,24,IO2*%
%TO.N,/IO2*%
X159285000Y-101977500D03*
D38*
%TO.P,U1,25,IO0*%
%TO.N,Net-(U1-IO0)*%
X160535000Y-105012500D03*
%TO.P,U1,26,IO4*%
%TO.N,/IO4*%
X161805000Y-105012500D03*
%TO.P,U1,27,IO16*%
%TO.N,/IO16*%
X163075000Y-105012500D03*
%TO.P,U1,28,IO17*%
%TO.N,/IO17*%
X164345000Y-105012500D03*
%TO.P,U1,29,IO5*%
%TO.N,/IO5*%
X165615000Y-105012500D03*
%TO.P,U1,30,IO18*%
%TO.N,/IO18*%
X166885000Y-105012500D03*
%TO.P,U1,31,IO19*%
%TO.N,/IO19*%
X168155000Y-105012500D03*
%TO.P,U1,32,NC*%
%TO.N,unconnected-(U1-NC-Pad32)*%
X169425000Y-105012500D03*
%TO.P,U1,33,IO21*%
%TO.N,/IO21*%
X170695000Y-105012500D03*
%TO.P,U1,34,RXD0/IO3*%
%TO.N,/RXD0*%
X171965000Y-105012500D03*
%TO.P,U1,35,TXD0/IO1*%
%TO.N,/TXD0*%
X173235000Y-105012500D03*
%TO.P,U1,36,IO22*%
%TO.N,/IO22*%
X174505000Y-105012500D03*
%TO.P,U1,37,IO23*%
%TO.N,/IO23*%
X175775000Y-105012500D03*
%TO.P,U1,38,GND*%
%TO.N,GND*%
X177045000Y-105012500D03*
D40*
%TO.P,U1,39,GND*%
X170725000Y-93362500D03*
D41*
X170025000Y-93362500D03*
D40*
X169325000Y-93362500D03*
D41*
X168625000Y-93362500D03*
D40*
X167925000Y-93362500D03*
D41*
X170725000Y-94062500D03*
X169325000Y-94062500D03*
X167925000Y-94062500D03*
D40*
X170725000Y-94762500D03*
D41*
X170025000Y-94762500D03*
D40*
X169325000Y-94762500D03*
D41*
X168625000Y-94762500D03*
D40*
X167925000Y-94762500D03*
D41*
X170725000Y-95462500D03*
X169325000Y-95462500D03*
X167925000Y-95462500D03*
D40*
X170725000Y-96162500D03*
D41*
X170025000Y-96162500D03*
D40*
X169325000Y-96162500D03*
D41*
X168625000Y-96162500D03*
D40*
X167925000Y-96162500D03*
%TD*%
D42*
%TO.N,Net-(Q1-B)*%
X131660000Y-100480000D03*
X142070000Y-102000000D03*
%TO.N,/EN*%
X130890000Y-99550000D03*
%TO.N,/IO0_BTN*%
X127510000Y-93810000D03*
%TO.N,+3.3V*%
X121340000Y-90550000D03*
%TO.N,+5VA*%
X117380000Y-91880000D03*
%TO.N,Net-(Q2-B)*%
X144980000Y-97540000D03*
X137050000Y-99800000D03*
%TO.N,/IO18*%
X133702500Y-97862500D03*
%TO.N,/IO13*%
X157770000Y-90410000D03*
%TO.N,/I39*%
X145720000Y-95940000D03*
X156550000Y-97600000D03*
%TO.N,/IO0_BTN*%
X147030000Y-102470000D03*
X156382265Y-104630795D03*
%TO.N,Net-(U1-IO0)*%
X156430000Y-103830000D03*
X155870000Y-102230000D03*
%TO.N,/IO4*%
X161805000Y-103155000D03*
%TO.N,/IO16*%
X163075000Y-103155000D03*
%TO.N,/IO17*%
X164345000Y-103155000D03*
%TO.N,/IO5*%
X165615000Y-103155000D03*
%TO.N,/IO18*%
X166885000Y-103155000D03*
%TO.N,/IO19*%
X168155000Y-103155000D03*
%TO.N,/IO21*%
X170695000Y-103155000D03*
%TO.N,/RXD0*%
X171965000Y-103155000D03*
%TO.N,/TXD0*%
X173235000Y-103155000D03*
%TO.N,/IO22*%
X174505000Y-103155000D03*
%TO.N,/IO23*%
X175775000Y-103155000D03*
%TO.N,GND*%
X177045000Y-103155000D03*
%TO.N,+3.3V*%
X175775000Y-89255000D03*
%TO.N,GND*%
X177045000Y-89255000D03*
%TO.N,/EN*%
X174505000Y-89255000D03*
%TO.N,/I36*%
X173235000Y-89255000D03*
%TO.N,/I39*%
X171965000Y-89255000D03*
%TO.N,/I34*%
X170695000Y-89255000D03*
%TO.N,/I35*%
X169425000Y-89255000D03*
%TO.N,/IO32*%
X168155000Y-89255000D03*
%TO.N,/IO33*%
X166885000Y-89255000D03*
%TO.N,/IO25*%
X165615000Y-89255000D03*
%TO.N,/IO26*%
X164345000Y-89255000D03*
%TO.N,/IO27*%
X163075000Y-89255000D03*
%TO.N,/IO14*%
X161805000Y-89255000D03*
%TO.N,/IO12*%
X160535000Y-89255000D03*
%TO.N,GND*%
X122260000Y-93690000D03*
X120840000Y-96430000D03*
X118830000Y-98350000D03*
X116900000Y-99660000D03*
X157780000Y-89100000D03*
%TO.N,+3.3V*%
X154690000Y-97620000D03*
%TO.N,/USB_DP*%
X143892500Y-96762500D03*
%TO.N,/USB_DN*%
X143892500Y-95587500D03*
%TO.N,GND*%
X143250000Y-97790000D03*
%TO.N,+5VA*%
X142725000Y-90920000D03*
%TO.N,GND*%
X141650000Y-90920000D03*
%TO.N,+3.3V*%
X140575000Y-90920000D03*
%TO.N,GND*%
X139500000Y-90920000D03*
%TO.N,+3.3V*%
X133050000Y-96700000D03*
%TO.N,GND*%
X145520000Y-93780000D03*
%TO.N,+3.3V*%
X145520000Y-94740000D03*
%TO.N,GND*%
X155500000Y-97610000D03*
X150905000Y-94175000D03*
X157100000Y-96000000D03*
X156570000Y-88280000D03*
X115600000Y-101750000D03*
X156320000Y-89680000D03*
X116900000Y-97925000D03*
X110175000Y-90725000D03*
X116900000Y-93950000D03*
X113475000Y-91325000D03*
X116225000Y-90825000D03*
%TO.N,+3.3V*%
X153820000Y-96440000D03*
X112275000Y-101750000D03*
X147665000Y-97375000D03*
X157775000Y-93450000D03*
%TO.N,/USB_DN*%
X116900000Y-95350000D03*
%TO.N,/USB_DP*%
X116900000Y-96525000D03*
%TO.N,+3.3V*%
X157775000Y-92775000D03*
%TD*%
D43*
%TO.N,Net-(Q1-B)*%
X132630000Y-101450000D02*
X133400000Y-101450000D01*
X131660000Y-100480000D02*
X132630000Y-101450000D01*
%TO.N,/EN*%
X133400000Y-99550000D02*
X130890000Y-99550000D01*
%TO.N,Net-(Q1-B)*%
X142050000Y-101980000D02*
X142070000Y-102000000D01*
X142050000Y-101110000D02*
X142050000Y-101980000D01*
%TO.N,GND*%
X142280000Y-96950000D02*
X140330000Y-96950000D01*
X140330000Y-96950000D02*
X139830000Y-96450000D01*
%TO.N,/IO0_BTN*%
X126410000Y-93810000D02*
X127510000Y-93810000D01*
X124930000Y-92330000D02*
X126410000Y-93810000D01*
X124730000Y-90950000D02*
X124730000Y-92130000D01*
X124730000Y-92130000D02*
X124930000Y-92330000D01*
D44*
%TO.N,GND*%
X113200000Y-97562500D02*
X113200000Y-98762500D01*
X110500000Y-97262500D02*
X110500000Y-99162500D01*
X110500000Y-95262500D02*
X110500000Y-93362500D01*
%TO.N,+3.3V*%
X121340000Y-91490000D02*
X121340000Y-90550000D01*
D43*
%TO.N,/EN*%
X119980000Y-91730000D02*
X120760000Y-92510000D01*
X119370000Y-91730000D02*
X119980000Y-91730000D01*
X119010000Y-90920000D02*
X119010000Y-91370000D01*
X119010000Y-91370000D02*
X119370000Y-91730000D01*
X120760000Y-92510000D02*
X121340000Y-92510000D01*
X121340000Y-92510000D02*
X121340000Y-93500000D01*
X121340000Y-93500000D02*
X121330000Y-93510000D01*
D44*
%TO.N,GND*%
X122260000Y-93690000D02*
X122260000Y-94260000D01*
X122260000Y-94260000D02*
X122050000Y-94470000D01*
X122050000Y-94470000D02*
X121330000Y-94470000D01*
%TO.N,+5VA*%
X117380000Y-92420000D02*
X117380000Y-91880000D01*
X117300000Y-92500000D02*
X117380000Y-92420000D01*
X116225000Y-92730000D02*
X117070000Y-92730000D01*
X117070000Y-92730000D02*
X117300000Y-92500000D01*
D43*
%TO.N,Net-(Q2-B)*%
X146030000Y-97850000D02*
X145720000Y-97540000D01*
X146237500Y-99600000D02*
X146237500Y-98057500D01*
X145720000Y-97540000D02*
X144980000Y-97540000D01*
X146237500Y-98057500D02*
X146030000Y-97850000D01*
%TO.N,/RTS*%
X135675000Y-100500000D02*
X135675000Y-99525000D01*
X135675000Y-99525000D02*
X136000000Y-99200000D01*
X136000000Y-99200000D02*
X137580000Y-99200000D01*
X137580000Y-99200000D02*
X138470000Y-100090000D01*
X138470000Y-100090000D02*
X138825000Y-100090000D01*
%TO.N,Net-(Q2-B)*%
X137050000Y-100610000D02*
X137550000Y-101110000D01*
X137550000Y-101110000D02*
X138825000Y-101110000D01*
X137050000Y-99800000D02*
X137050000Y-100610000D01*
%TO.N,/IO18*%
X135525000Y-97862500D02*
X133702500Y-97862500D01*
%TO.N,/RXD0*%
X140975000Y-101095000D02*
X140975000Y-101875000D01*
X140975000Y-101875000D02*
X140660000Y-102190000D01*
X140660000Y-102190000D02*
X139975686Y-102190000D01*
X125425000Y-103125000D02*
X125425000Y-104200000D01*
X139975686Y-102190000D02*
X139515686Y-102650000D01*
X139515686Y-102650000D02*
X125900000Y-102650000D01*
X125900000Y-102650000D02*
X125425000Y-103125000D01*
%TO.N,/TXD0*%
X139900000Y-101110000D02*
X139900000Y-101700000D01*
X122885000Y-102815000D02*
X122885000Y-104200000D01*
X139900000Y-101700000D02*
X139350000Y-102250000D01*
X139350000Y-102250000D02*
X123450000Y-102250000D01*
X123450000Y-102250000D02*
X122885000Y-102815000D01*
%TO.N,/IO13*%
X159285000Y-91817500D02*
X158037500Y-91817500D01*
X158037500Y-91817500D02*
X157770000Y-91550000D01*
X157770000Y-91550000D02*
X157770000Y-90410000D01*
D44*
%TO.N,GND*%
X159285000Y-90547500D02*
X159285000Y-89765000D01*
X159285000Y-89765000D02*
X158620000Y-89100000D01*
X158620000Y-89100000D02*
X157780000Y-89100000D01*
D43*
%TO.N,/IO0_BTN*%
X157086470Y-105335000D02*
X157550000Y-105335000D01*
X156382265Y-104630795D02*
X157086470Y-105335000D01*
%TO.N,Net-(U1-IO0)*%
X157550000Y-104315000D02*
X156915000Y-104315000D01*
X156915000Y-104315000D02*
X156430000Y-103830000D01*
%TO.N,/I39*%
X145720000Y-95940000D02*
X145720000Y-96910000D01*
X145720000Y-96910000D02*
X147560000Y-98750000D01*
X147560000Y-98750000D02*
X147560000Y-99710000D01*
X147560000Y-99710000D02*
X148010000Y-100160000D01*
X148010000Y-100160000D02*
X155040000Y-100160000D01*
X155040000Y-100160000D02*
X156550000Y-98650000D01*
X156550000Y-98650000D02*
X156550000Y-97600000D01*
D44*
%TO.N,GND*%
X155500000Y-97610000D02*
X155500000Y-98170000D01*
X155500000Y-98170000D02*
X155090000Y-98580000D01*
X155090000Y-98580000D02*
X153775000Y-98580000D01*
D43*
%TO.N,/IO0_BTN*%
X147030000Y-102292500D02*
X147030000Y-102470000D01*
X146237500Y-101500000D02*
X147030000Y-102292500D01*
%TO.N,Net-(U1-IO0)*%
X155415000Y-101775000D02*
X155870000Y-102230000D01*
X149310000Y-101775000D02*
X155415000Y-101775000D01*
%TO.N,/IO15*%
X153365000Y-104200000D02*
X154970000Y-104200000D01*
X154970000Y-104200000D02*
X155940000Y-103230000D01*
X160870000Y-101150000D02*
X160427500Y-100707500D01*
X155940000Y-103230000D02*
X160100000Y-103230000D01*
X160100000Y-103230000D02*
X160870000Y-102460000D01*
X160870000Y-102460000D02*
X160870000Y-101150000D01*
X160427500Y-100707500D02*
X159285000Y-100707500D01*
%TO.N,/IO2*%
X150825000Y-104200000D02*
X150825000Y-103535000D01*
X151530000Y-102830000D02*
X159080000Y-102830000D01*
X150825000Y-103535000D02*
X151530000Y-102830000D01*
X159080000Y-102830000D02*
X159285000Y-102625000D01*
X159285000Y-102625000D02*
X159285000Y-101977500D01*
D44*
%TO.N,GND*%
X177045000Y-105012500D02*
X177045000Y-103155000D01*
D43*
%TO.N,/IO23*%
X175775000Y-105012500D02*
X175775000Y-103155000D01*
%TO.N,/IO22*%
X174505000Y-105012500D02*
X174505000Y-103155000D01*
%TO.N,/TXD0*%
X173235000Y-105012500D02*
X173235000Y-103155000D01*
%TO.N,/RXD0*%
X171965000Y-105012500D02*
X171965000Y-103155000D01*
%TO.N,/IO21*%
X170695000Y-105012500D02*
X170695000Y-103155000D01*
%TO.N,/IO19*%
X168155000Y-105012500D02*
X168155000Y-103155000D01*
%TO.N,/IO18*%
X166885000Y-105012500D02*
X166885000Y-103155000D01*
%TO.N,/IO5*%
X165615000Y-105012500D02*
X165615000Y-103155000D01*
%TO.N,/IO17*%
X164345000Y-105012500D02*
X164345000Y-103155000D01*
%TO.N,/IO16*%
X163075000Y-105012500D02*
X163075000Y-103155000D01*
%TO.N,/IO4*%
X161805000Y-105012500D02*
X161805000Y-103155000D01*
D44*
%TO.N,GND*%
X177045000Y-87512500D02*
X177045000Y-89255000D01*
%TO.N,+3.3V*%
X175775000Y-87512500D02*
X175775000Y-89255000D01*
%TO.N,GND*%
X156570000Y-88280000D02*
X156570000Y-87610000D01*
X156570000Y-87610000D02*
X156330000Y-87370000D01*
X156330000Y-87370000D02*
X155750000Y-87370000D01*
D43*
%TO.N,/EN*%
X174505000Y-87512500D02*
X174505000Y-89255000D01*
%TO.N,/IO12*%
X160535000Y-87512500D02*
X160535000Y-89255000D01*
%TO.N,/IO14*%
X161805000Y-87512500D02*
X161805000Y-89255000D01*
%TO.N,/IO27*%
X163075000Y-87512500D02*
X163075000Y-89255000D01*
%TO.N,/IO26*%
X164345000Y-87512500D02*
X164345000Y-89255000D01*
%TO.N,/IO25*%
X165615000Y-87512500D02*
X165615000Y-89255000D01*
%TO.N,/IO33*%
X166885000Y-87512500D02*
X166885000Y-89255000D01*
%TO.N,/IO32*%
X168155000Y-87512500D02*
X168155000Y-89255000D01*
%TO.N,/I35*%
X169425000Y-87512500D02*
X169425000Y-89255000D01*
%TO.N,/I34*%
X170695000Y-87512500D02*
X170695000Y-89255000D01*
%TO.N,/I39*%
X171965000Y-87512500D02*
X171965000Y-89255000D01*
%TO.N,/I36*%
X173235000Y-87512500D02*
X173235000Y-89255000D01*
%TO.N,/IO0_BTN*%
X122420000Y-90730000D02*
X122950000Y-90730000D01*
X122950000Y-90730000D02*
X123170000Y-90950000D01*
X123170000Y-90950000D02*
X124730000Y-90950000D01*
D44*
%TO.N,GND*%
X122260000Y-93690000D02*
X122260000Y-93040000D01*
X122260000Y-93040000D02*
X122420000Y-92880000D01*
X122420000Y-92880000D02*
X122420000Y-91690000D01*
X122260000Y-93690000D02*
X124330000Y-93690000D01*
X124330000Y-93690000D02*
X124730000Y-94090000D01*
X124730000Y-94090000D02*
X124730000Y-95150000D01*
X119010000Y-95120000D02*
X120490000Y-95120000D01*
X120490000Y-95120000D02*
X120840000Y-95470000D01*
X120840000Y-95470000D02*
X120840000Y-96430000D01*
D43*
%TO.N,/EN*%
X117805000Y-88325000D02*
X117805000Y-89635000D01*
X118700000Y-89860000D02*
X119010000Y-90170000D01*
X117805000Y-89635000D02*
X118030000Y-89860000D01*
X118030000Y-89860000D02*
X118700000Y-89860000D01*
X119010000Y-90170000D02*
X119010000Y-90920000D01*
D44*
%TO.N,GND*%
X156325000Y-90875000D02*
X156325000Y-89685000D01*
D43*
X156325000Y-89685000D02*
X156320000Y-89680000D01*
D44*
%TO.N,+5VD*%
X153365000Y-88325000D02*
X155745000Y-88325000D01*
X155745000Y-88325000D02*
X155750000Y-88330000D01*
%TO.N,GND*%
X150905000Y-94175000D02*
X151795000Y-94175000D01*
%TO.N,+3.3V*%
X157775000Y-93450000D02*
X157775000Y-93900000D01*
X157505000Y-94170000D02*
X157100000Y-94170000D01*
X157775000Y-93900000D02*
X157505000Y-94170000D01*
%TO.N,GND*%
X157100000Y-95130000D02*
X157100000Y-96000000D01*
%TO.N,+3.3V*%
X153825000Y-96435000D02*
X153825000Y-95560000D01*
X153820000Y-96440000D02*
X153825000Y-96435000D01*
X153775000Y-97620000D02*
X154690000Y-97620000D01*
%TO.N,GND*%
X155500000Y-96412500D02*
X155500000Y-97610000D01*
%TO.N,+3.3V*%
X147665000Y-97375000D02*
X152187500Y-97375000D01*
X142280000Y-94950000D02*
X142280000Y-95358300D01*
X143520000Y-94745000D02*
X142485000Y-94745000D01*
X142485000Y-94745000D02*
X142280000Y-94950000D01*
D43*
%TO.N,/USB_DP*%
X142280000Y-96450000D02*
X142880001Y-96450000D01*
X142880001Y-96450000D02*
X142930000Y-96400001D01*
X142930000Y-96400001D02*
X143530001Y-96400001D01*
X143530001Y-96400001D02*
X143892500Y-96762500D01*
%TO.N,/USB_DN*%
X142280000Y-95950000D02*
X142880001Y-95950000D01*
X142880001Y-95950000D02*
X142905001Y-95975000D01*
X142905001Y-95975000D02*
X143505000Y-95975000D01*
X143505000Y-95975000D02*
X143892500Y-95587500D01*
%TO.N,GND*%
X143250000Y-97180000D02*
X143250000Y-97790000D01*
X142280000Y-96950000D02*
X143020000Y-96950000D01*
X143020000Y-96950000D02*
X143250000Y-97180000D01*
D44*
%TO.N,+3.3V*%
X144595000Y-94745000D02*
X145515000Y-94745000D01*
X145515000Y-94745000D02*
X145520000Y-94740000D01*
%TO.N,GND*%
X144595000Y-93785000D02*
X145515000Y-93785000D01*
X145515000Y-93785000D02*
X145520000Y-93780000D01*
X139500000Y-91775000D02*
X139500000Y-90920000D01*
%TO.N,+3.3V*%
X133950000Y-96700000D02*
X133050000Y-96700000D01*
D43*
%TO.N,Net-(D2-A)*%
X135525000Y-95987500D02*
X134887500Y-95987500D01*
X134887500Y-95987500D02*
X134580000Y-95680000D01*
X134580000Y-95680000D02*
X133950000Y-95680000D01*
%TO.N,/RTS*%
X139330000Y-98900000D02*
X139330000Y-99314386D01*
X139330000Y-99314386D02*
X138825000Y-99819386D01*
X138825000Y-99819386D02*
X138825000Y-100090000D01*
%TO.N,/DTR*%
X142050000Y-100090000D02*
X142540000Y-100090000D01*
X142540000Y-100090000D02*
X143000000Y-100550000D01*
X143000000Y-100550000D02*
X143962500Y-100550000D01*
X141330000Y-98900000D02*
X141330000Y-99370000D01*
X141330000Y-99370000D02*
X142050000Y-100090000D01*
%TO.N,/TXD*%
X140330000Y-98900000D02*
X140330000Y-99430000D01*
X140330000Y-99430000D02*
X140975000Y-100075000D01*
%TO.N,/RXD*%
X139830000Y-98900000D02*
X139830000Y-99555000D01*
X139830000Y-99555000D02*
X139900000Y-99625000D01*
X139900000Y-99625000D02*
X139900000Y-100090000D01*
%TO.N,Net-(U2-VBUS)*%
X142725000Y-92785000D02*
X141650000Y-92785000D01*
X141650000Y-92785000D02*
X141650000Y-92975000D01*
X141650000Y-92975000D02*
X141330000Y-93295000D01*
X141330000Y-93295000D02*
X141330000Y-94000000D01*
%TO.N,Net-(U2-~{RST})*%
X140575000Y-92785000D02*
X140575000Y-93050000D01*
X140575000Y-93050000D02*
X140830000Y-93305000D01*
X140830000Y-93305000D02*
X140830000Y-94000000D01*
%TO.N,Net-(U2-~{SUSPEND})*%
X139500000Y-92795000D02*
X139500000Y-92975000D01*
X139500000Y-92975000D02*
X139830000Y-93305000D01*
X139830000Y-93305000D02*
X139830000Y-94000000D01*
D44*
%TO.N,+5VA*%
X142725000Y-91765000D02*
X142725000Y-90920000D01*
%TO.N,+3.3V*%
X140575000Y-91765000D02*
X140575000Y-90920000D01*
%TO.N,GND*%
X141650000Y-91765000D02*
X141650000Y-90920000D01*
X143520000Y-93785000D02*
X144595000Y-93785000D01*
%TO.N,+3.3V*%
X144595000Y-94745000D02*
X143520000Y-94745000D01*
%TO.N,GND*%
X115265000Y-103290000D02*
X114480000Y-102505000D01*
X114975000Y-91325000D02*
X113475000Y-91325000D01*
X153320000Y-98580000D02*
X153775000Y-98580000D01*
X153025000Y-98875000D02*
X153320000Y-98580000D01*
X152275000Y-98875000D02*
X153025000Y-98875000D01*
X111345000Y-89705000D02*
X112725000Y-88325000D01*
X114480000Y-101750000D02*
X115600000Y-101750000D01*
X115575000Y-97925000D02*
X116900000Y-97925000D01*
X116225000Y-91770000D02*
X116225000Y-90825000D01*
X111345000Y-90725000D02*
X110175000Y-90725000D01*
X115575000Y-93950000D02*
X116900000Y-93950000D01*
X115265000Y-104200000D02*
X115265000Y-103290000D01*
X111345000Y-90725000D02*
X111345000Y-89705000D01*
X114480000Y-102505000D02*
X114480000Y-101750000D01*
%TO.N,+3.3V*%
X153170000Y-97620000D02*
X153775000Y-97620000D01*
X113520000Y-102330000D02*
X113520000Y-101750000D01*
X112925000Y-90725000D02*
X113600000Y-90050000D01*
X112725000Y-104200000D02*
X112725000Y-103125000D01*
X152187500Y-97375000D02*
X152925000Y-97375000D01*
X112305000Y-90725000D02*
X112925000Y-90725000D01*
X113520000Y-101750000D02*
X112275000Y-101750000D01*
X112725000Y-103125000D02*
X113520000Y-102330000D01*
X115265000Y-89535000D02*
X115265000Y-88325000D01*
X114750000Y-90050000D02*
X115265000Y-89535000D01*
X113600000Y-90050000D02*
X114750000Y-90050000D01*
X152925000Y-97375000D02*
X153170000Y-97620000D01*
%TO.N,+5VD*%
X153365000Y-88325000D02*
X153365000Y-89515000D01*
X153365000Y-89515000D02*
X154025000Y-90175000D01*
X154025000Y-90175000D02*
X154025000Y-91975000D01*
%TO.N,+5V*%
X152755000Y-91975000D02*
X152755000Y-94175000D01*
X152755000Y-94695000D02*
X152275000Y-95175000D01*
X152755000Y-94175000D02*
X152755000Y-94695000D01*
X152275000Y-95175000D02*
X152275000Y-95875000D01*
%TO.N,+5VA*%
X114337500Y-94962500D02*
X114525000Y-94775000D01*
X114525000Y-93175000D02*
X114975000Y-92725000D01*
X114975000Y-92725000D02*
X116220000Y-92725000D01*
X113200000Y-94962500D02*
X114337500Y-94962500D01*
X114525000Y-94775000D02*
X114525000Y-93175000D01*
X116220000Y-92725000D02*
X116225000Y-92730000D01*
D43*
%TO.N,Net-(D1-A)*%
X155497500Y-94540000D02*
X155500000Y-94537500D01*
X153825000Y-94540000D02*
X155497500Y-94540000D01*
%TO.N,/USB_DN*%
X114212501Y-95612500D02*
X114312501Y-95712500D01*
X115575000Y-95350000D02*
X115937499Y-95712499D01*
X113200000Y-95612500D02*
X114212501Y-95612500D01*
X116537501Y-95712499D02*
X116900000Y-95350000D01*
X115937499Y-95712499D02*
X116537501Y-95712499D01*
X115212500Y-95712500D02*
X115575000Y-95350000D01*
X114312501Y-95712500D02*
X115212500Y-95712500D01*
%TO.N,/USB_DP*%
X114212501Y-96262500D02*
X114312501Y-96162500D01*
X115937499Y-96162501D02*
X116537501Y-96162501D01*
X113200000Y-96262500D02*
X114212501Y-96262500D01*
X114312501Y-96162500D02*
X115212500Y-96162500D01*
X115212500Y-96162500D02*
X115575000Y-96525000D01*
X116537501Y-96162501D02*
X116900000Y-96525000D01*
X115575000Y-96525000D02*
X115937499Y-96162501D01*
%TO.N,/IO0_CON*%
X148290000Y-104195000D02*
X148285000Y-104200000D01*
X148290000Y-101775000D02*
X148290000Y-104195000D01*
%TO.N,Net-(U1-IO0)*%
X159137500Y-105012500D02*
X160535000Y-105012500D01*
X158440000Y-104315000D02*
X159137500Y-105012500D01*
X157550000Y-104315000D02*
X158440000Y-104315000D01*
D44*
%TO.N,+3.3V*%
X156325000Y-92775000D02*
X157775000Y-92775000D01*
%TD*%
M02*
