%TF.GenerationSoftware,KiCad,Pcbnew,8.0.5*%
%TF.CreationDate,2025-08-25T20:07:29+05:30*%
%TF.ProjectId,ESP32_Development_Board,45535033-325f-4446-9576-656c6f706d65,rev?*%
%TF.SameCoordinates,Original*%
%TF.FileFunction,Legend,Bot*%
%TF.FilePolarity,Positive*%
%FSLAX46Y46*%
G04 Gerber Fmt 4.6, Leading zero omitted, Abs format (unit mm)*
G04 Created by KiCad (PCBNEW 8.0.5) date 2025-08-25 20:07:29*
%MOMM*%
%LPD*%
G01*
G04 APERTURE LIST*
%ADD10C,0.120000*%
%ADD11C,0.150000*%
G04 APERTURE END LIST*
D10*
%TO.C,J5*%
X119830000Y-100580000D02*
X120376529Y-100580000D01*
X119830000Y-101785000D02*
X119830000Y-100580000D01*
X119830000Y-101785000D02*
X120632470Y-101785000D01*
X120940000Y-99060000D02*
X122050000Y-99060000D01*
X121247530Y-101785000D02*
X122050000Y-101785000D01*
X121503471Y-100580000D02*
X122050000Y-100580000D01*
X122050000Y-99060000D02*
X122050000Y-99820000D01*
X122050000Y-101785000D02*
X122050000Y-100580000D01*
%TO.C,C13*%
X118242164Y-101090000D02*
X118457836Y-101090000D01*
X118242164Y-100370000D02*
X118457836Y-100370000D01*
%TO.C,Q3*%
X117805000Y-96460000D02*
X119105000Y-96460000D01*
X117805000Y-98260000D02*
X119105000Y-98260000D01*
D11*
X117280000Y-97870000D02*
G75*
G02*
X117130000Y-97870000I-75000J0D01*
G01*
X117130000Y-97870000D02*
G75*
G02*
X117280000Y-97870000I75000J0D01*
G01*
D10*
%TO.C,R15*%
X118473641Y-101430000D02*
X118166359Y-101430000D01*
X118473641Y-102190000D02*
X118166359Y-102190000D01*
%TO.C,R14*%
X118166359Y-100040000D02*
X118473641Y-100040000D01*
X118166359Y-99280000D02*
X118473641Y-99280000D01*
%TO.C,Q4*%
D11*
X118945000Y-95540000D02*
G75*
G02*
X118795000Y-95540000I-75000J0D01*
G01*
X118795000Y-95540000D02*
G75*
G02*
X118945000Y-95540000I75000J0D01*
G01*
D10*
X119260000Y-94940000D02*
X119260000Y-93640000D01*
X117460000Y-94940000D02*
X117460000Y-93640000D01*
%TD*%
M02*
