%TF.GenerationSoftware,KiCad,Pcbnew,8.0.5*%
%TF.CreationDate,2025-08-25T20:07:29+05:30*%
%TF.ProjectId,ESP32_Development_Board,45535033-325f-4446-9576-656c6f706d65,rev?*%
%TF.SameCoordinates,Original*%
%TF.FileFunction,Paste,Top*%
%TF.FilePolarity,Positive*%
%FSLAX46Y46*%
G04 Gerber Fmt 4.6, Leading zero omitted, Abs format (unit mm)*
G04 Created by KiCad (PCBNEW 8.0.5) date 2025-08-25 20:07:29*
%MOMM*%
%LPD*%
G01*
G04 APERTURE LIST*
G04 Aperture macros list*
%AMRoundRect*
0 Rectangle with rounded corners*
0 $1 Rounding radius*
0 $2 $3 $4 $5 $6 $7 $8 $9 X,Y pos of 4 corners*
0 Add a 4 corners polygon primitive as box body*
4,1,4,$2,$3,$4,$5,$6,$7,$8,$9,$2,$3,0*
0 Add four circle primitives for the rounded corners*
1,1,$1+$1,$2,$3*
1,1,$1+$1,$4,$5*
1,1,$1+$1,$6,$7*
1,1,$1+$1,$8,$9*
0 Add four rect primitives between the rounded corners*
20,1,$1+$1,$2,$3,$4,$5,0*
20,1,$1+$1,$4,$5,$6,$7,0*
20,1,$1+$1,$6,$7,$8,$9,0*
20,1,$1+$1,$8,$9,$2,$3,0*%
%AMFreePoly0*
4,1,9,3.862500,-0.866500,0.737500,-0.866500,0.737500,-0.450000,-0.737500,-0.450000,-0.737500,0.450000,0.737500,0.450000,0.737500,0.866500,3.862500,0.866500,3.862500,-0.866500,3.862500,-0.866500,$1*%
G04 Aperture macros list end*
%ADD10RoundRect,0.140000X0.170000X-0.140000X0.170000X0.140000X-0.170000X0.140000X-0.170000X-0.140000X0*%
%ADD11RoundRect,0.135000X0.185000X-0.135000X0.185000X0.135000X-0.185000X0.135000X-0.185000X-0.135000X0*%
%ADD12RoundRect,0.135000X-0.185000X0.135000X-0.185000X-0.135000X0.185000X-0.135000X0.185000X0.135000X0*%
%ADD13RoundRect,0.140000X-0.170000X0.140000X-0.170000X-0.140000X0.170000X-0.140000X0.170000X0.140000X0*%
%ADD14RoundRect,0.200000X-0.800000X0.200000X-0.800000X-0.200000X0.800000X-0.200000X0.800000X0.200000X0*%
%ADD15RoundRect,0.250000X0.475000X-0.250000X0.475000X0.250000X-0.475000X0.250000X-0.475000X-0.250000X0*%
%ADD16RoundRect,0.150000X0.512500X0.150000X-0.512500X0.150000X-0.512500X-0.150000X0.512500X-0.150000X0*%
%ADD17RoundRect,0.150000X0.200000X-0.150000X0.200000X0.150000X-0.200000X0.150000X-0.200000X-0.150000X0*%
%ADD18R,1.350000X0.400000*%
%ADD19R,1.900000X1.500000*%
%ADD20RoundRect,0.135000X0.135000X0.185000X-0.135000X0.185000X-0.135000X-0.185000X0.135000X-0.185000X0*%
%ADD21RoundRect,0.140000X0.140000X0.170000X-0.140000X0.170000X-0.140000X-0.170000X0.140000X-0.170000X0*%
%ADD22RoundRect,0.150000X-0.512500X-0.150000X0.512500X-0.150000X0.512500X0.150000X-0.512500X0.150000X0*%
%ADD23RoundRect,0.225000X0.425000X0.225000X-0.425000X0.225000X-0.425000X-0.225000X0.425000X-0.225000X0*%
%ADD24FreePoly0,180.000000*%
%ADD25RoundRect,0.150000X-0.200000X0.150000X-0.200000X-0.150000X0.200000X-0.150000X0.200000X0.150000X0*%
%ADD26RoundRect,0.243750X0.456250X-0.243750X0.456250X0.243750X-0.456250X0.243750X-0.456250X-0.243750X0*%
%ADD27RoundRect,0.140000X-0.140000X-0.170000X0.140000X-0.170000X0.140000X0.170000X-0.140000X0.170000X0*%
%ADD28RoundRect,0.225000X0.225000X0.225000X-0.225000X0.225000X-0.225000X-0.225000X0.225000X-0.225000X0*%
%ADD29RoundRect,0.062500X0.337500X0.062500X-0.337500X0.062500X-0.337500X-0.062500X0.337500X-0.062500X0*%
%ADD30RoundRect,0.062500X0.062500X0.337500X-0.062500X0.337500X-0.062500X-0.337500X0.062500X-0.337500X0*%
%ADD31R,0.900000X1.500000*%
%ADD32R,1.500000X0.900000*%
%ADD33R,0.900000X0.900000*%
G04 APERTURE END LIST*
D10*
%TO.C,C9*%
X143520000Y-93785000D03*
X143520000Y-94745000D03*
%TD*%
D11*
%TO.C,R10*%
X141650000Y-92785000D03*
X141650000Y-91765000D03*
%TD*%
D12*
%TO.C,R9*%
X142725000Y-91765000D03*
X142725000Y-92785000D03*
%TD*%
D13*
%TO.C,C1*%
X157100000Y-94170000D03*
X157100000Y-95130000D03*
%TD*%
D10*
%TO.C,C8*%
X144595000Y-93785000D03*
X144595000Y-94745000D03*
%TD*%
D14*
%TO.C,SW1*%
X119010000Y-90920000D03*
X119010000Y-95120000D03*
%TD*%
D15*
%TO.C,C2*%
X156325000Y-90875000D03*
X156325000Y-92775000D03*
%TD*%
D12*
%TO.C,R2*%
X157550000Y-104315000D03*
X157550000Y-105335000D03*
%TD*%
D16*
%TO.C,Q2*%
X143962500Y-100550000D03*
X146237500Y-99600000D03*
X146237500Y-101500000D03*
%TD*%
D17*
%TO.C,D5*%
X115575000Y-93950000D03*
X115575000Y-95350000D03*
%TD*%
D11*
%TO.C,R5*%
X140975000Y-101095000D03*
X140975000Y-100075000D03*
%TD*%
D10*
%TO.C,C6*%
X155750000Y-87370000D03*
X155750000Y-88330000D03*
%TD*%
D18*
%TO.C,J4*%
X113200000Y-94962500D03*
X113200000Y-95612500D03*
X113200000Y-96262500D03*
X113200000Y-96912500D03*
X113200000Y-97562500D03*
D19*
X110500000Y-95262500D03*
X110500000Y-97262500D03*
%TD*%
D20*
%TO.C,R1*%
X148290000Y-101775000D03*
X149310000Y-101775000D03*
%TD*%
D17*
%TO.C,D3*%
X114975000Y-91325000D03*
X114975000Y-92725000D03*
%TD*%
D21*
%TO.C,C10*%
X151795000Y-94175000D03*
X152755000Y-94175000D03*
%TD*%
D22*
%TO.C,Q1*%
X133400000Y-99550000D03*
X133400000Y-101450000D03*
X135675000Y-100500000D03*
%TD*%
D11*
%TO.C,R8*%
X139500000Y-92795000D03*
X139500000Y-91775000D03*
%TD*%
D23*
%TO.C,U3*%
X152275000Y-95875000D03*
D24*
X152187500Y-97375000D03*
D23*
X152275000Y-98875000D03*
%TD*%
D11*
%TO.C,R4*%
X139900000Y-101110000D03*
X139900000Y-100090000D03*
%TD*%
D12*
%TO.C,R3*%
X121340000Y-91490000D03*
X121340000Y-92510000D03*
%TD*%
D11*
%TO.C,R12*%
X153825000Y-94540000D03*
X153825000Y-95560000D03*
%TD*%
D21*
%TO.C,C5*%
X112305000Y-90725000D03*
X111345000Y-90725000D03*
%TD*%
D12*
%TO.C,R7*%
X138825000Y-101110000D03*
X138825000Y-100090000D03*
%TD*%
D14*
%TO.C,SW2*%
X124730000Y-90950000D03*
X124730000Y-95150000D03*
%TD*%
D11*
%TO.C,R13*%
X133950000Y-96700000D03*
X133950000Y-95680000D03*
%TD*%
D25*
%TO.C,D4*%
X115575000Y-97925000D03*
X115575000Y-96525000D03*
%TD*%
D13*
%TO.C,C3*%
X121330000Y-93510000D03*
X121330000Y-94470000D03*
%TD*%
%TO.C,C11*%
X153775000Y-98580000D03*
X153775000Y-97620000D03*
%TD*%
D12*
%TO.C,R11*%
X140575000Y-91765000D03*
X140575000Y-92785000D03*
%TD*%
D26*
%TO.C,D2*%
X135525000Y-97862500D03*
X135525000Y-95987500D03*
%TD*%
D13*
%TO.C,C4*%
X122420000Y-90730000D03*
X122420000Y-91690000D03*
%TD*%
D27*
%TO.C,C7*%
X113520000Y-101750000D03*
X114480000Y-101750000D03*
%TD*%
D28*
%TO.C,U2*%
X140950000Y-97570000D03*
X140950000Y-96450000D03*
X140950000Y-95330000D03*
X139830000Y-97570000D03*
X139830000Y-96450000D03*
X139830000Y-95330000D03*
X138710000Y-97570000D03*
X138710000Y-96450000D03*
X138710000Y-95330000D03*
D29*
X142280000Y-97950000D03*
X142280000Y-97450000D03*
X142280000Y-96950000D03*
X142280000Y-96450000D03*
X142280000Y-95950000D03*
X142280000Y-95450000D03*
X142280000Y-94950000D03*
D30*
X141330000Y-94000000D03*
X140830000Y-94000000D03*
X140330000Y-94000000D03*
X139830000Y-94000000D03*
X139330000Y-94000000D03*
X138830000Y-94000000D03*
X138330000Y-94000000D03*
D29*
X137380000Y-94950000D03*
X137380000Y-95450000D03*
X137380000Y-95950000D03*
X137380000Y-96450000D03*
X137380000Y-96950000D03*
X137380000Y-97450000D03*
X137380000Y-97950000D03*
D30*
X138330000Y-98900000D03*
X138830000Y-98900000D03*
X139330000Y-98900000D03*
X139830000Y-98900000D03*
X140330000Y-98900000D03*
X140830000Y-98900000D03*
X141330000Y-98900000D03*
%TD*%
D10*
%TO.C,C12*%
X116225000Y-92730000D03*
X116225000Y-91770000D03*
%TD*%
D26*
%TO.C,D1*%
X155500000Y-94537500D03*
X155500000Y-96412500D03*
%TD*%
D12*
%TO.C,R6*%
X142050000Y-100090000D03*
X142050000Y-101110000D03*
%TD*%
D31*
%TO.C,U1*%
X177045000Y-87512500D03*
X175775000Y-87512500D03*
X174505000Y-87512500D03*
X173235000Y-87512500D03*
X171965000Y-87512500D03*
X170695000Y-87512500D03*
X169425000Y-87512500D03*
X168155000Y-87512500D03*
X166885000Y-87512500D03*
X165615000Y-87512500D03*
X164345000Y-87512500D03*
X163075000Y-87512500D03*
X161805000Y-87512500D03*
X160535000Y-87512500D03*
D32*
X159285000Y-90547500D03*
X159285000Y-91817500D03*
X159285000Y-93087500D03*
X159285000Y-94357500D03*
X159285000Y-95627500D03*
X159285000Y-96897500D03*
X159285000Y-98167500D03*
X159285000Y-99437500D03*
X159285000Y-100707500D03*
X159285000Y-101977500D03*
D31*
X160535000Y-105012500D03*
X161805000Y-105012500D03*
X163075000Y-105012500D03*
X164345000Y-105012500D03*
X165615000Y-105012500D03*
X166885000Y-105012500D03*
X168155000Y-105012500D03*
X169425000Y-105012500D03*
X170695000Y-105012500D03*
X171965000Y-105012500D03*
X173235000Y-105012500D03*
X174505000Y-105012500D03*
X175775000Y-105012500D03*
X177045000Y-105012500D03*
D33*
X170725000Y-93362500D03*
X169325000Y-93362500D03*
X167925000Y-93362500D03*
X170725000Y-94762500D03*
X169325000Y-94762500D03*
X167925000Y-94762500D03*
X170725000Y-96162500D03*
X169325000Y-96162500D03*
X167925000Y-96162500D03*
%TD*%
M02*
